<?xml version="1.0" standalone="no"?>
<!DOCTYPE svg PUBLIC "-//W3C//DTD SVG 1.1//EN" "http://www.w3.org/Graphics/SVG/1.1/DTD/svg11.dtd" >
<svg xmlns="http://www.w3.org/2000/svg" xmlns:xlink="http://www.w3.org/1999/xlink" version="1.1">
<metadata>
Created by FontForge 20170924 at Mon Jul  2 18:38:13 2018
 By www-data
Copyright \(c\) 2018 by . All rights reserved.
</metadata>
<defs>
<font id="Calderock-Inky" horiz-adv-x="492" >
  <font-face 
    font-family="Calderock Inky"
    font-weight="400"
    font-stretch="normal"
    units-per-em="1000"
    panose-1="0 0 0 0 0 0 0 0 0 0"
    ascent="750"
    descent="-250"
    x-height="676"
    cap-height="680"
    bbox="-28.2187 -195.107 761.422 993"
    underline-thickness="50"
    underline-position="-100"
    stemh="117"
    stemv="141"
    unicode-range="U+000D-2212"
  />
<missing-glyph horiz-adv-x="295" 
 />
    <glyph glyph-name=".notdef" horiz-adv-x="295" 
 />
    <glyph glyph-name="uni0000" horiz-adv-x="0" 
 />
    <glyph glyph-name="uni0000" horiz-adv-x="0" 
 />
    <glyph glyph-name="uni000D" unicode="&#xd;" horiz-adv-x="295" 
 />
    <glyph glyph-name="space" unicode=" " horiz-adv-x="295" 
 />
    <glyph glyph-name="B" unicode="B" horiz-adv-x="438" 
d="M65 1c-18 6 -22 20 -23 35c-1 5 -1 10 0 16c5 26 2 52 2 78c0 15 -2 29 -2 44c-1 9 1 18 2 27c0 5 1 11 0 16c-4 24 -4 48 0 72c0 5 -1 10 -1 16c0 13 -2 26 -1 38c3 38 3 75 0 113c-1 18 1 36 2 54c0 8 1 15 0 23c-4 42 -4 84 1 127c1 9 5 14 13 18c10 3 21 4 32 3
c12 -1 24 -2 37 -2c22 -1 44 1 66 -1c24 -1 49 -1 72 -10c32 -12 61 -29 82 -57c17 -21 25 -46 30 -73c5 -28 3 -57 2 -86c0 -20 -7 -39 -16 -56c-4 -7 -6 -14 -9 -21c-6 -12 -3 -22 3 -33c4 -6 8 -13 13 -19c10 -14 15 -31 19 -48c9 -35 8 -71 7 -107
c-1 -28 -8 -55 -20 -80c-11 -21 -28 -37 -48 -51c-23 -16 -48 -24 -75 -29c-28 -5 -57 -6 -86 -7h-102zM178 124c21 -11 29 -13 46 -6c24 9 42 25 46 51c4 25 5 50 0 75c-5 32 -35 63 -76 58c-10 -2 -17 -7 -20 -16c-2 -7 -3 -14 -4 -22c0 -23 1 -46 -1 -69
c-1 -17 2 -33 2 -49c0 -8 5 -15 7 -22zM187 408h10c23 0 47 15 54 42c4 20 7 41 3 61c-3 16 -9 30 -21 41c-14 12 -31 15 -48 9c-12 -7 -14 -18 -15 -29c0 -13 1 -25 0 -37c-3 -21 -2 -42 0 -63c1 -12 6 -20 17 -24z" />
    <glyph glyph-name="D" unicode="D" horiz-adv-x="474" 
d="M52 1c-8 12 -11 22 -11 33c1 19 2 38 2 58c1 31 2 62 -2 93v9v227c0 28 0 56 1 84c0 15 1 30 1 45c0 30 -1 61 -2 92c0 5 1 10 2 15c4 13 13 21 26 21c29 -1 59 2 88 -3h5c20 6 39 1 59 -1c40 -3 77 -17 109 -44c34 -29 54 -65 70 -105c11 -29 16 -59 24 -89
c1 -3 0 -7 0 -11c1 -21 3 -43 6 -64c2 -18 3 -37 -2 -56c-2 -9 -3 -19 -3 -28c2 -30 -7 -57 -14 -85c-7 -27 -15 -54 -28 -79c-10 -18 -21 -36 -37 -50c-2 -2 -4 -4 -5 -6c-23 -31 -58 -43 -92 -55c-2 -1 -5 -1 -8 -1c-32 -1 -65 -3 -98 -3c-23 0 -47 -1 -70 0
c-7 0 -15 2 -21 3zM172 206c2 -20 3 -43 4 -66c1 -14 9 -24 20 -26c14 -2 28 -1 38 11c14 14 23 31 29 49c9 27 18 54 21 83c2 22 5 44 5 66l-3 48c-1 21 -1 42 -4 62c-4 29 -11 56 -22 83c-9 22 -24 37 -47 45c-13 4 -29 -3 -33 -14c-5 -17 -5 -35 -5 -52
c-1 -8 1 -15 1 -23v-122c0 -9 -1 -17 -2 -26v-12c1 -8 2 -15 2 -23c-1 -27 -2 -53 -4 -83z" />
    <glyph glyph-name="K" unicode="K" horiz-adv-x="488" 
d="M178 664c7 -33 3 -65 4 -98c0 -13 -2 -26 -2 -40c0 -9 3 -18 2 -27c-3 -23 1 -46 0 -69c-1 -11 -2 -23 9 -32c12 -2 16 7 20 15c6 15 12 31 18 46c16 39 31 79 47 118c10 25 21 50 31 75c6 16 17 24 34 24c10 0 21 3 31 2c18 0 36 -1 54 -3c5 0 9 -4 15 -7
c-2 -9 -2 -17 -5 -24c-11 -30 -23 -59 -35 -89c-10 -27 -20 -54 -31 -80l-45 -111c-8 -19 -7 -39 1 -59c8 -21 18 -42 26 -63c7 -16 13 -32 19 -49c8 -21 15 -43 24 -64c12 -28 25 -56 37 -85c2 -5 4 -10 6 -16c3 -8 3 -17 -6 -25c-8 -1 -18 -4 -28 -4c-20 -1 -40 -1 -61 0
c-15 0 -28 6 -35 20c-5 10 -10 20 -14 31c-27 65 -53 130 -80 196c-2 5 -4 10 -7 15c-4 6 -9 10 -17 8c-7 -5 -8 -13 -8 -21v-112c0 -25 -2 -50 -3 -75c0 -8 2 -16 2 -24c0 -7 -1 -15 -2 -22c-2 -9 -9 -13 -18 -13c-31 -1 -63 -2 -94 -3c-16 4 -20 15 -20 29c0 26 3 53 2 79
c-1 38 3 76 -2 114c-2 22 0 44 0 66v129v184v48c0 19 11 31 30 31l81 -3c8 -1 15 -4 20 -12z" />
    <glyph glyph-name="H" unicode="H" 
d="M439 3c-8 -1 -15 -3 -22 -3c-24 -1 -48 -1 -71 -1c-15 0 -19 3 -30 16c0 10 0 23 -1 35c0 9 -1 18 -1 27c0 10 -1 20 0 29c3 24 3 47 0 70c-2 14 -1 27 -1 41c2 21 -12 32 -32 34c-24 2 -48 3 -72 0c-11 -2 -21 -4 -28 -17c-1 -9 -3 -20 -3 -31v-92c-1 -11 -2 -23 -3 -35
v-25c1 -12 2 -24 3 -34c-7 -14 -18 -19 -31 -18c-7 1 -13 1 -19 1c-12 1 -24 1 -36 0c-9 0 -19 -1 -28 -1c-10 1 -16 7 -18 16c-2 6 -3 12 -3 17c0 22 1 44 1 66c0 4 2 8 1 11c-5 26 -2 52 -3 77c0 30 1 59 1 89c0 48 -1 95 -1 143c1 20 2 41 2 61c0 39 -1 78 -2 117
c0 22 2 44 3 66c7 13 17 18 31 17h72c23 0 31 -13 30 -31c-1 -14 -2 -29 -2 -43c-1 -7 1 -13 1 -19c1 -36 1 -71 0 -107c0 -22 -2 -43 -2 -65c0 -9 1 -19 3 -27c2 -11 9 -18 19 -20c30 -5 61 -10 92 -4c16 4 21 9 24 25c1 9 2 19 2 28c0 51 -2 101 -2 152c0 32 3 64 4 97
c2 3 6 6 11 12c12 1 25 2 39 2c16 1 32 0 48 0c12 0 23 -3 29 -15c1 -1 1 -2 1 -3c1 -45 2 -89 3 -134v-124c0 -11 -1 -22 -2 -33c0 -4 -1 -7 0 -10c5 -25 -1 -49 0 -74c0 -22 2 -43 2 -65c0 -13 -2 -25 -2 -37c1 -23 2 -46 2 -69c1 -21 1 -41 0 -62c0 -12 -2 -25 -3 -38
c-1 -3 -3 -6 -6 -12z" />
    <glyph glyph-name="E" unicode="E" horiz-adv-x="421" 
d="M46 664c7 12 18 16 31 14c10 0 21 1 31 1h146c14 0 27 -2 40 -3c6 0 12 -1 18 0c18 4 35 3 54 0c4 -4 8 -7 11 -10v-36c0 -9 2 -17 2 -26c0 -7 -1 -15 -2 -22c-2 -10 -9 -15 -19 -16c-32 -3 -64 -4 -97 -2c-21 2 -43 -2 -65 -5c-11 -1 -18 -12 -19 -26
c-2 -22 -5 -44 -1 -66c3 -12 1 -26 0 -38c0 -10 1 -19 8 -26c9 -9 21 -9 33 -9c22 0 44 0 66 1c28 1 37 -10 39 -39v-57c-5 -5 -10 -11 -16 -18c-28 1 -55 3 -81 3c-11 0 -21 -3 -31 -5c-8 -2 -13 -9 -15 -16c-2 -9 -6 -19 -4 -28c3 -25 1 -50 2 -74c0 -7 -1 -14 0 -21
c0 -13 7 -23 19 -25c22 -4 43 -8 66 -5c24 2 47 1 71 1c11 0 21 -2 30 -2c13 -9 17 -19 17 -33c-1 -19 0 -37 0 -56c-7 -14 -7 -14 -22 -21h-136c-25 0 -50 -1 -75 0c-10 0 -19 2 -28 2s-19 0 -28 -1c-9 0 -18 -1 -26 -1c-13 0 -23 10 -23 23c-1 14 0 27 1 40v15v58v11
c-2 25 -2 51 0 77c2 14 0 29 -1 43c0 5 -1 10 -1 14v163c0 8 2 16 2 24c1 3 1 6 1 8c-4 33 -4 66 0 100c0 8 1 16 0 24c-4 21 -3 42 2 65z" />
    <glyph glyph-name="F" unicode="F" horiz-adv-x="421" 
d="M321 269c-4 -4 -9 -10 -14 -16c-25 -1 -50 -2 -76 -3c-10 0 -19 3 -30 0s-19 -9 -22 -20l-3 -24c-1 -15 -2 -31 -2 -46c0 -13 2 -26 2 -39c0 -16 -2 -33 -3 -49c0 -3 0 -6 1 -9c1 -15 2 -30 3 -43c-7 -17 -17 -22 -32 -21c-12 1 -25 2 -38 2c-7 0 -14 0 -21 -1
c-3 0 -6 -1 -9 -1c-20 -2 -28 3 -37 23c1 8 2 18 3 27v13c-4 23 -2 46 -1 69v15c1 26 -1 52 -1 78c0 16 4 31 2 47c-4 30 -2 61 -2 91c0 8 1 16 1 24c1 3 1 7 1 10c-4 20 -4 40 0 61c0 2 1 5 0 8c-4 23 -2 47 -1 70c0 11 -1 22 -1 32c-1 27 -1 53 0 79c0 21 12 33 33 33
c37 0 75 1 112 -1c27 -1 54 3 81 0c23 -2 46 -2 69 1c4 0 9 0 14 -1c9 -1 19 -2 25 -12c4 -23 4 -46 4 -69c1 -20 -9 -32 -33 -34c-11 -1 -23 0 -34 0c-32 0 -63 0 -95 1c-30 0 -41 -11 -41 -42c-1 -34 -2 -68 -3 -103c0 -10 1 -20 3 -30c4 -17 11 -22 27 -26
c7 -2 14 -2 21 -2c21 0 43 1 64 1c22 0 34 -9 33 -33v-29c-1 -9 0 -18 0 -31z" />
    <glyph glyph-name="C" unicode="C" horiz-adv-x="460" 
d="M414 638c-10 -26 -24 -50 -39 -73c-5 -8 -12 -14 -25 -11c-5 4 -11 10 -18 15c-20 16 -43 24 -68 23c-17 -1 -31 -10 -41 -23c-6 -9 -11 -18 -15 -28c-10 -23 -15 -47 -20 -72c-6 -28 -6 -57 -6 -86v-50c0 -54 9 -107 26 -158c5 -16 13 -31 25 -42c7 -6 15 -11 23 -15
c38 -6 70 12 105 26c5 -4 12 -8 16 -13c13 -20 24 -41 36 -62c1 -1 1 -3 1 -4c-3 -12 -11 -19 -19 -27c-22 -19 -48 -27 -74 -32c-27 -5 -55 -6 -83 -2c-24 4 -46 11 -65 24c-34 24 -62 54 -79 93c-15 37 -28 73 -36 112c-2 13 -4 25 -5 38c-2 26 -5 52 -6 78
c-1 17 1 34 1 50c1 4 2 8 2 11c0 26 4 51 10 76c7 33 18 65 32 96c15 33 35 62 64 83c22 15 46 28 72 33c51 8 100 2 147 -20c9 -5 17 -11 25 -17c8 -5 11 -14 14 -23z" />
    <glyph glyph-name="I" unicode="I" horiz-adv-x="211" 
d="M56 680h80c7 0 14 -2 21 -3c7 -2 12 -7 14 -15c1 -7 3 -15 3 -23c1 -30 0 -59 0 -89c0 -6 -1 -13 -2 -19v-13c0 -19 2 -37 2 -56c1 -18 1 -36 0 -55c0 -8 -1 -17 -2 -25c0 -7 -1 -14 0 -21c3 -22 4 -44 0 -66c-1 -6 -1 -13 0 -19c4 -36 2 -72 2 -108c1 -16 1 -33 0 -50
c0 -21 -1 -42 -2 -63c0 -4 2 -8 1 -12c0 -7 0 -15 -1 -23c-1 -10 -7 -17 -20 -21c-12 1 -28 2 -43 3c-3 1 -7 0 -10 0c-14 -1 -29 -2 -42 -3c-6 3 -10 6 -13 8c-7 8 -9 16 -8 26c1 14 1 27 2 41c0 5 -1 10 -1 15v38v37s-2 23 0 35c3 33 3 66 -1 99c-1 10 -1 20 0 29
c3 32 2 64 1 97c-2 32 -3 64 1 96c1 9 1 18 0 27c-3 22 -3 44 0 66c1 9 -1 19 -1 29c-2 16 2 30 19 38z" />
    <glyph glyph-name="L" unicode="L" horiz-adv-x="421" 
d="M363 2c-18 -1 -38 -2 -57 -2c-8 0 -17 1 -25 2h-4c-25 0 -51 -1 -76 -1c-4 0 -7 -1 -10 -1c-33 1 -65 1 -98 2c-10 0 -20 -3 -30 0c-11 3 -16 9 -19 19c-3 16 -3 31 -1 47c1 18 1 36 0 54c-2 40 -3 81 0 121c1 7 0 15 0 22c-2 21 -4 42 0 63c2 7 2 15 1 22
c-5 34 -2 68 -3 101v36c1 9 2 19 2 29c0 9 -1 18 -1 27c1 17 1 34 1 51c0 7 0 13 -1 19c-1 14 -1 28 2 42c3 18 10 23 28 24c22 2 44 0 66 -1c5 0 9 -1 14 -1c9 0 16 -4 20 -13c4 -20 7 -41 2 -63c-1 -3 0 -6 0 -9c1 -29 2 -57 2 -85c1 -13 -2 -25 -2 -37c0 -10 1 -20 2 -31
c0 -6 1 -14 0 -20c-3 -30 -2 -59 -1 -89c2 -29 0 -58 0 -86c0 -4 1 -8 1 -12c0 -12 1 -24 -1 -36c-2 -20 -1 -40 2 -60c2 -13 14 -23 30 -23c17 -1 34 0 50 -1c9 0 18 -1 27 -2h5c18 1 36 1 55 2c3 0 7 1 11 0c14 0 24 -10 24 -24c1 -20 1 -41 1 -61c0 -11 -6 -18 -17 -25z
" />
    <glyph glyph-name="X" unicode="X" horiz-adv-x="510" 
d="M51 660c2 5 3 9 5 13c9 6 18 8 28 5c3 -1 7 -1 11 -1c16 1 33 2 49 2c9 0 18 -1 26 -4c7 -2 14 -6 18 -15c5 -12 10 -24 14 -37c12 -35 24 -71 36 -107c3 -8 7 -17 18 -17c11 1 15 10 18 19l30 90c3 12 6 24 10 35c8 25 31 42 60 35c5 -1 11 -2 16 -1c17 3 33 1 50 0
c7 -1 12 -3 16 -9c4 -15 -4 -28 -9 -41c-11 -28 -24 -56 -35 -83c-16 -36 -31 -72 -46 -109c-9 -20 -17 -41 -25 -62c-2 -3 -2 -7 -4 -10c-9 -18 -7 -35 1 -52c30 -74 61 -148 91 -221c8 -18 15 -36 22 -55c3 -7 5 -15 7 -22c-1 -8 -3 -10 -10 -11c-30 -1 -61 -2 -91 -2
c-8 0 -15 2 -23 3c-4 6 -10 12 -12 19c-13 33 -25 67 -38 101c-4 12 -7 23 -11 35c-3 7 -8 14 -18 16c-9 -1 -14 -7 -17 -16c-7 -18 -13 -36 -20 -54c-8 -24 -17 -49 -25 -73c-2 -4 -3 -8 -5 -12c-5 -12 -15 -20 -29 -19c-19 0 -38 1 -57 2h-38c-4 3 -7 6 -11 9
c1 5 2 11 4 16c6 18 14 36 21 53c25 59 49 118 74 177c7 17 14 35 21 53c8 17 9 34 2 51c-17 40 -33 80 -49 121c-10 23 -20 47 -30 70c-11 28 -23 55 -34 82c-4 9 -7 18 -11 26z" />
    <glyph glyph-name="Q" unicode="Q" horiz-adv-x="531" 
d="M436 -15c-4 -17 -17 -23 -26 -31c-9 -9 -20 -16 -30 -25c-8 -7 -17 -11 -31 -8c-5 6 -12 14 -19 23c-8 10 -17 21 -25 33c-11 17 -27 23 -46 24c-51 2 -94 23 -128 62c-24 27 -40 59 -53 93c-10 27 -16 54 -22 82c-5 26 -7 53 -10 79c-2 18 -4 35 -3 52c3 33 5 66 12 99
c7 34 16 66 27 98c18 50 50 89 96 116c19 11 40 17 62 18l21 3c51 2 95 -13 133 -48c21 -20 39 -43 51 -69c8 -19 14 -39 20 -59c4 -10 7 -20 9 -30c3 -16 6 -32 8 -47c2 -18 3 -35 5 -53c1 -5 1 -10 1 -14v-50c0 -26 -3 -51 -6 -77c-4 -35 -11 -69 -23 -102
c-11 -29 -23 -59 -46 -82c-3 -3 -5 -7 -7 -10c-7 -12 -7 -24 0 -35c6 -9 12 -17 18 -25c4 -6 8 -12 12 -17zM178 352v0c0 -7 0 -15 1 -22c1 -22 3 -45 6 -67c2 -18 4 -37 8 -55c5 -20 12 -39 18 -58c5 -12 13 -23 23 -32c20 -19 62 -14 74 10c18 32 29 65 35 101
c2 14 5 27 6 41c3 21 5 42 6 64c0 17 -1 34 -2 51c-1 16 0 32 -3 48c-5 24 -6 50 -10 74c-5 23 -12 45 -23 66c-10 17 -25 27 -44 32c-3 1 -7 2 -11 1c-17 -4 -34 -11 -42 -28c-7 -14 -14 -27 -18 -41c-9 -26 -15 -53 -18 -81c-2 -25 -2 -51 -5 -76c-2 -9 -1 -18 -1 -28z
" />
    <glyph glyph-name="W" unicode="W" horiz-adv-x="766" 
d="M386 351c-12 1 -17 -7 -20 -16c-3 -12 -6 -25 -9 -38l-18 -81c-10 -48 -20 -96 -31 -144c-3 -15 -7 -30 -10 -45c-3 -12 -5 -14 -18 -24c-40 -2 -80 -5 -121 1c-9 5 -15 13 -16 25c-1 16 -6 32 -8 47c-2 12 -2 24 -4 35c-4 25 -6 51 -12 76c-4 18 -5 38 -7 57
c-3 18 -5 36 -8 54s-5 36 -9 55c-6 29 -6 60 -14 89c-3 10 -3 21 -5 32c-3 23 -7 45 -9 68c-2 26 -7 50 -13 75c-2 11 -3 23 -3 34c-1 14 6 24 20 26c13 2 27 2 40 2c15 0 29 -2 44 -3c19 0 31 -11 31 -30c0 -20 2 -39 6 -58c2 -13 3 -26 3 -40c0 -26 6 -51 10 -77
c1 -10 3 -20 3 -31c0 -24 3 -49 6 -73c3 -17 3 -35 5 -53c1 -12 0 -25 10 -37h10c8 7 9 15 11 23c5 29 9 57 13 86c2 9 5 19 7 29c5 28 12 56 13 85c0 14 4 28 7 43c5 35 16 69 19 105c1 15 8 27 26 32h81c25 0 37 -11 40 -36c4 -31 10 -63 16 -94c5 -24 7 -48 11 -72
c2 -15 6 -29 9 -44c3 -13 4 -26 6 -39c2 -8 4 -16 5 -24c3 -17 5 -34 8 -52c2 -10 4 -22 7 -32c2 -6 6 -12 16 -10c7 5 8 15 9 23c2 10 3 19 4 29c2 23 4 46 6 68c3 23 6 45 9 67c1 4 1 7 1 11c-2 26 5 51 7 77c2 15 4 30 6 46c2 19 4 39 6 58c1 8 5 12 16 20
c35 3 70 8 105 0c2 -2 4 -3 5 -5l6 -6c0 -3 1 -6 0 -10l-9 -66c-4 -25 -6 -49 -10 -74c-3 -22 -8 -44 -12 -66c-2 -17 -5 -35 -7 -52c-3 -17 -5 -34 -8 -51c-2 -12 -3 -24 -5 -36c-1 -4 -1 -7 -2 -11c-4 -20 -7 -40 -8 -60c-1 -15 -5 -31 -7 -46c-3 -18 -6 -35 -9 -53
c-4 -27 -8 -55 -12 -82c-2 -8 -3 -17 -4 -25c-2 -10 -4 -19 -10 -26c-12 -9 -25 -9 -38 -7c-22 3 -44 4 -65 0c-5 0 -10 -1 -15 0c-14 0 -24 9 -27 23c-4 21 -8 43 -13 64c-10 49 -21 97 -32 146c-7 33 -15 66 -23 99c-1 7 -4 14 -12 19z" />
    <glyph glyph-name="V" unicode="V" 
d="M433 674c4 -5 8 -8 12 -13c-1 -14 -1 -28 -5 -41c-6 -19 -7 -38 -11 -58c-4 -15 -6 -31 -8 -47c-6 -34 -12 -69 -19 -103c-1 -11 -4 -22 -6 -33c-5 -22 -9 -45 -13 -67c-7 -42 -15 -85 -22 -127c-5 -26 -7 -52 -14 -77c-7 -28 -10 -57 -15 -86c-3 -14 -11 -22 -25 -22
c-40 -2 -80 -3 -114 -4c-28 6 -32 23 -35 41c-6 28 -12 57 -16 86c-2 17 -6 34 -10 51c-3 18 -4 35 -7 53c-1 8 -4 16 -5 25c-4 20 -7 41 -11 62c-3 19 -7 38 -11 57c-2 15 -5 31 -8 46c-4 21 -7 41 -11 62l-15 84c-3 20 -7 40 -11 60c-2 12 -4 25 -6 37c4 5 8 9 11 12
c16 5 32 5 48 3c2 0 5 -1 7 0c17 3 35 1 53 -3c8 -5 13 -12 15 -22c3 -19 8 -37 9 -55c1 -17 6 -33 8 -49c2 -20 8 -40 9 -60c0 -17 4 -34 7 -51c3 -21 6 -43 8 -64c3 -20 6 -39 13 -58c2 -6 4 -12 12 -14c12 9 15 22 17 35c4 27 6 55 10 82c2 15 5 30 8 44c4 25 7 50 11 74
c4 27 8 53 12 79c1 11 2 22 4 33c3 19 15 31 39 30c28 0 55 -1 85 -2z" />
    <glyph glyph-name="U" unicode="U" 
d="M336 681c25 1 50 3 76 3c5 1 11 -1 17 -2c16 -5 24 -16 22 -32c-4 -27 -1 -53 0 -79c1 -47 1 -93 0 -140c-1 -28 2 -57 0 -85c-1 -23 -2 -47 -2 -71c-1 -21 -1 -41 0 -62c0 -20 -3 -38 -6 -57c-6 -34 -22 -62 -42 -88c-10 -13 -24 -23 -37 -33c-26 -19 -55 -32 -86 -36
c-54 -7 -105 3 -150 37c-39 30 -66 68 -76 118c-6 30 -11 61 -9 93c1 42 -1 85 -1 127c0 7 1 14 2 21c0 5 1 10 0 14c-5 32 -3 64 -1 95c2 40 1 80 2 121c0 9 1 19 0 29c-1 12 5 20 16 27c14 1 29 1 45 1c13 1 26 1 38 2c14 2 24 -2 32 -13c6 -16 4 -32 4 -48
c1 -37 1 -74 1 -111c-1 -12 -2 -23 -3 -34v-18c1 -23 3 -47 2 -70c0 -23 1 -45 0 -68c0 -19 -2 -38 -2 -57c0 -28 1 -56 3 -84c3 -34 18 -53 51 -62c21 -6 42 0 59 14c19 15 27 36 26 60c-1 40 -2 80 -1 120c1 31 -1 61 0 92v90v153c0 14 4 26 20 33z" />
    <glyph glyph-name="P" unicode="P" horiz-adv-x="438" 
d="M51 675c7 1 15 3 23 3c38 1 77 2 116 0c47 -1 91 -12 131 -40c14 -10 23 -24 33 -38c1 -1 0 -3 1 -3c22 -28 30 -61 37 -94c3 -13 2 -27 2 -40c1 -11 1 -22 2 -32c2 -19 -2 -36 -6 -54c-6 -27 -16 -53 -30 -76c-16 -25 -38 -42 -65 -52c-16 -7 -33 -12 -50 -16
c-11 -3 -23 -4 -35 -6c-20 -2 -27 -7 -31 -27c0 -3 -1 -5 -1 -8c-1 -35 -2 -71 -3 -106c0 -9 2 -18 1 -27c0 -16 -1 -31 -2 -46c-1 -4 -5 -9 -9 -11c-5 -2 -10 -4 -15 -3c-32 3 -63 -3 -100 5c-4 2 -8 11 -8 20c0 18 2 37 2 55v37c-1 5 -2 10 -2 16c1 55 -1 111 0 167
c0 12 2 23 2 35c0 75 -1 150 -2 225c0 16 2 32 2 48c0 12 -1 23 -2 34c0 11 3 21 9 34zM183 554c-6 -11 -9 -22 -8 -34c0 -30 2 -60 2 -90c1 -16 -2 -32 -2 -48c0 -8 2 -16 5 -23c3 -10 11 -15 22 -16c13 -1 25 5 35 13c23 18 31 44 34 71c1 18 1 37 0 55
c-2 19 -5 39 -15 56c-6 10 -14 17 -24 20c-16 5 -33 6 -49 -4z" />
    <glyph glyph-name="O" unicode="O" horiz-adv-x="531" 
d="M43 348c2 28 2 53 5 77c4 44 14 87 29 129c13 35 33 67 61 93c17 16 36 29 58 39c8 3 17 5 26 7c24 5 50 5 75 4c3 0 7 -2 10 -3c22 -8 45 -15 65 -28s38 -29 50 -50c16 -26 30 -53 39 -82c8 -27 14 -55 19 -84c3 -17 2 -35 3 -52l3 -36c3 -26 0 -52 -1 -78
c0 -16 -3 -32 -6 -47c-3 -21 -7 -41 -12 -61c-7 -27 -17 -53 -29 -78c-2 -4 -5 -9 -8 -13c-18 -22 -36 -44 -60 -60c-19 -13 -40 -20 -62 -24c-9 -1 -18 -2 -27 -4c-12 -4 -25 -3 -38 -1c-11 3 -21 6 -32 8c-23 5 -41 18 -58 32c-31 25 -51 57 -68 92c-16 36 -23 73 -31 110
c-3 18 -5 36 -6 54c-2 20 -4 40 -5 56zM177 366c1 -36 2 -62 3 -89c1 -16 3 -32 6 -48c4 -17 9 -33 13 -51c4 -20 13 -39 24 -56c16 -23 44 -29 68 -15c15 9 24 24 30 39c10 24 15 48 21 73c5 26 9 52 11 78c4 41 -2 83 -2 125l-1 1c-3 20 -7 39 -9 59c-2 22 -8 44 -17 66
c-7 19 -18 36 -37 46c-14 9 -29 9 -44 0c-8 -5 -15 -11 -21 -19c-10 -15 -16 -32 -23 -49c-10 -24 -12 -49 -15 -74c-4 -32 -6 -63 -7 -86z" />
    <glyph glyph-name="S" unicode="S" horiz-adv-x="475" 
d="M343 523c-4 3 -9 7 -13 12c-12 14 -25 28 -43 35c-21 8 -43 10 -65 7c-24 -2 -44 -27 -46 -52c-1 -23 7 -42 24 -59c23 -24 49 -44 77 -61c27 -17 51 -38 76 -57c14 -10 24 -24 35 -37c23 -26 33 -58 42 -90c2 -10 0 -20 0 -31c0 -5 -2 -10 -2 -15c0 -28 -7 -53 -22 -76
c-16 -23 -33 -45 -56 -61c-19 -14 -41 -21 -63 -27c-18 -4 -37 -8 -56 -9c-18 -1 -36 2 -53 4c-28 2 -52 14 -77 24c-18 8 -33 20 -47 33c-8 8 -11 18 -10 29c3 19 7 37 11 55c2 11 4 21 5 32c2 9 6 16 17 18c6 -4 13 -9 19 -15c30 -31 67 -47 107 -57c31 -8 72 1 91 34
c11 18 12 37 5 56c-7 23 -23 39 -41 52c-27 20 -54 38 -82 57c-10 7 -19 15 -28 23c-11 10 -22 21 -33 31c-25 26 -40 56 -48 90c-6 23 -4 45 -2 68c0 11 3 22 5 33c12 52 43 90 92 114c7 3 15 6 23 7c28 4 55 7 83 -1c17 -5 35 -6 51 -15c9 -5 18 -11 26 -18
c11 -10 16 -23 16 -39c-2 -23 -3 -47 -5 -70c0 -9 0 -19 -13 -24z" />
    <glyph glyph-name="Y" unicode="Y" 
d="M311 13c-4 -4 -9 -9 -15 -14l-45 3c-8 0 -16 -1 -24 -1c-6 0 -12 -1 -18 -1c-12 0 -18 3 -28 17c0 49 -1 99 -1 150c0 14 2 28 2 42c0 35 -7 69 -18 102c-13 39 -24 79 -38 117s-25 76 -38 113c-11 33 -22 64 -33 97c-3 9 -4 18 -5 24c5 15 15 17 23 16c18 -2 34 2 52 2
c8 0 16 -1 24 0c19 0 32 -11 37 -29c3 -11 5 -21 6 -31c6 -31 13 -61 21 -90c6 -23 10 -46 15 -68c1 -6 2 -11 4 -16c2 -7 6 -15 16 -17c10 4 13 12 15 22c7 29 13 59 20 88c8 37 18 72 25 109c4 20 21 33 43 32c25 -1 49 -2 74 -4c5 0 9 -3 13 -4c6 -10 4 -19 1 -28
c-10 -30 -21 -60 -30 -89c-12 -36 -23 -72 -34 -108c-15 -45 -30 -89 -45 -134c-6 -18 -12 -36 -14 -54c-2 -24 -7 -47 -2 -72c3 -12 2 -24 0 -37c-2 -15 -1 -29 0 -44c1 -23 0 -45 -1 -68c0 -7 -1 -15 -2 -25z" />
    <glyph glyph-name="R" unicode="R" horiz-adv-x="447" 
d="M275 11c-17 27 -27 58 -39 87c-7 19 -15 37 -23 54c-3 8 -7 15 -16 17c-10 -2 -12 -10 -12 -19v-68c-1 -20 -2 -41 -3 -61c-1 -10 -7 -16 -18 -18c-1 -1 -3 0 -4 -1c-19 -1 -38 -2 -56 -2c-15 0 -29 1 -44 2c-3 4 -6 8 -11 15c-1 17 -1 37 -1 57c0 4 1 8 1 11
c-5 51 -3 101 -1 152c1 16 -2 33 -1 49c0 19 2 37 2 55c0 12 -2 23 -2 35c-1 13 0 26 0 39c0 4 1 8 1 13c0 57 -1 115 -2 173c0 15 3 30 1 45c-1 14 6 25 22 31c27 1 56 3 85 2c23 0 46 -3 70 -5c12 -1 25 -1 36 -5c43 -12 79 -36 105 -72c15 -21 24 -46 29 -72
c4 -17 6 -35 7 -53c3 -33 -1 -64 -10 -95c-7 -24 -16 -49 -33 -68c-10 -13 -21 -24 -33 -35c-8 -6 -14 -13 -17 -22c-2 -10 1 -19 5 -28c20 -45 39 -91 59 -136l27 -63c6 -15 -1 -25 -18 -25c-25 -1 -51 0 -77 -1c-11 0 -19 5 -29 12zM208 564c-17 -8 -19 -8 -21 -25
c-2 -25 -3 -51 -5 -76c0 -2 1 -3 1 -5c0 -12 1 -25 0 -37c-2 -22 0 -44 9 -63c15 -13 41 -7 54 4s22 25 25 41c4 20 6 39 7 59c1 15 0 30 -3 44c-6 27 -17 50 -48 56c-6 1 -13 1 -19 2z" />
    <glyph glyph-name="T" unicode="T" 
d="M171 555c-5 3 -10 5 -16 8h-65c-9 0 -18 1 -27 3s-15 8 -17 17c-4 23 -3 46 -3 69c0 9 5 16 12 19c9 4 18 7 26 7c32 1 65 1 97 1c4 -1 8 -1 13 -2c4 0 9 -1 14 -1c45 5 91 2 137 2c23 1 46 0 69 0c5 0 10 -1 16 -2c17 -5 22 -12 22 -30c0 -11 -1 -21 -1 -32
c0 -5 0 -10 1 -14c2 -17 0 -22 -17 -35h-21c-24 -1 -47 -1 -71 -3c-16 0 -25 -9 -26 -26c-1 -12 -1 -23 -1 -35c0 -25 2 -51 0 -76c-1 -22 0 -44 0 -66c1 -15 -2 -31 -2 -46c0 -16 3 -32 3 -48s-3 -32 -3 -48s2 -31 3 -47c0 -12 -2 -24 -2 -37c-1 -4 -1 -9 -1 -14
c5 -28 2 -56 3 -84c0 -7 -3 -14 -4 -21c-7 -12 -17 -17 -30 -16c-15 2 -30 2 -45 3c-7 0 -14 -1 -20 -2c-22 -3 -39 11 -36 32s-1 41 0 61c1 21 0 42 0 63c0 6 1 12 1 17c1 6 1 11 1 16c-5 51 -3 102 -2 153c0 33 1 65 2 98c1 11 -2 21 -2 32c0 10 0 20 1 30
c2 19 2 38 -9 54z" />
    <glyph glyph-name="J" unicode="J" horiz-adv-x="470" 
d="M37 89c9 16 16 32 25 46l39 66c3 4 7 8 10 11c11 0 14 -7 15 -14c3 -22 14 -41 27 -58c21 -30 65 -42 98 -21c17 10 30 24 36 44c7 23 12 47 10 72c-1 13 1 25 2 38c0 5 1 10 0 15c-5 28 -1 56 -2 85c-1 17 -1 34 0 51c0 13 2 25 2 37c0 10 -1 19 -1 29c0 11 1 21 1 32
c0 26 -1 53 -1 79c0 21 -2 43 -1 64c2 19 12 27 31 27c12 0 24 -1 35 -2c5 0 9 1 13 1c11 2 22 1 34 -2c11 -3 17 -9 19 -20c5 -30 4 -61 1 -91c-1 -7 0 -14 0 -21c0 -12 1 -24 0 -35c0 -9 -1 -17 0 -26c0 -11 2 -22 2 -33v-94c0 -8 -1 -16 -2 -24c0 -4 -1 -8 0 -13
c4 -22 2 -43 0 -65c-1 -22 -1 -43 -1 -65c0 -23 -7 -46 -13 -68c-8 -28 -18 -55 -36 -77c-9 -11 -19 -21 -30 -29c-27 -23 -60 -35 -94 -42c-14 -3 -28 -4 -43 -1c-4 1 -8 1 -12 1c-33 -3 -62 5 -90 22c-24 14 -44 33 -61 56c-5 7 -8 16 -13 25z" />
    <glyph glyph-name="cedilla" unicode="&#xb8;" horiz-adv-x="221" 
d="M61 1l55 -1c10 -2 24 -13 42 -33c19 -20 37 -45 37 -69c0 -33 -12 -43 -27 -64s-36 -26 -57 -29c-57 -1 -85 5 -84 18v64c3 21 9 26 19 15s20 -17 30 -19c20 -4 37 -1 37 23c7 29 -12 45 -25 64c-23 19 -32 30 -27 31z" />
    <glyph glyph-name="tilde" unicode="&#x2dc;" horiz-adv-x="344" 
d="M271 919c4 0 8 1 12 0c10 -1 16 -7 16 -18c0 -4 0 -9 -1 -14c-7 -17 -13 -35 -23 -51c-17 -28 -38 -31 -64 -24c-18 4 -36 11 -55 16c-13 4 -26 8 -40 4c-11 -2 -20 -6 -26 -16c-2 -3 -5 -5 -6 -8c-7 -10 -16 -14 -29 -11c-3 4 -7 8 -11 12c0 17 5 32 12 46
c5 10 11 20 18 28c20 25 46 31 76 23c16 -4 32 -9 48 -13c9 -2 19 -3 28 -3c11 -1 21 3 28 12c5 6 11 12 17 17z" />
    <glyph glyph-name="acute" unicode="&#xb4;" horiz-adv-x="224" 
d="M88 810h-32c-3 2 -5 4 -9 7c1 6 0 12 2 17c7 25 15 50 23 74c4 13 8 25 10 37c3 10 8 17 17 23h23c10 0 20 1 30 2c9 1 17 1 23 -7c4 -10 -3 -16 -7 -23c-20 -37 -40 -73 -60 -109c-5 -8 -9 -16 -20 -21z" />
    <glyph glyph-name="dieresis" unicode="&#xa8;" horiz-adv-x="314" 
d="M247 919c21 -10 35 -25 40 -48c4 -17 1 -34 -11 -47c-4 -5 -8 -9 -13 -13c-27 -22 -64 -10 -77 15c-6 10 -10 21 -13 32c-1 7 1 16 3 23c7 22 28 37 51 38h20zM100 919c21 -10 35 -25 40 -48c4 -17 1 -34 -11 -47c-4 -5 -8 -9 -13 -13c-27 -22 -64 -10 -77 15
c-6 10 -10 21 -13 32c-1 7 1 16 3 23c7 22 28 37 51 38h20z" />
    <glyph glyph-name="circumflex" unicode="&#x2c6;" horiz-adv-x="374" 
d="M322 814c-10 -15 -22 -10 -33 -10c-6 0 -12 1 -17 3c-6 2 -13 5 -18 10c-13 15 -26 30 -39 46c-3 3 -4 6 -7 9c-4 3 -8 5 -12 8h-19c-10 -4 -17 -13 -24 -22c-6 -8 -13 -18 -19 -27c-17 -23 -46 -29 -70 -24c-2 0 -3 0 -4 1c-2 2 -4 4 -6 5c-3 9 0 17 4 24
c20 36 41 72 61 108c5 9 12 17 23 23h77c16 0 27 -7 34 -21c7 -12 15 -24 22 -36c14 -25 27 -51 41 -77c3 -7 4 -14 6 -20z" />
    <glyph glyph-name="breve" unicode="&#x2d8;" horiz-adv-x="256" 
d="M241 844c7 -8 7 -16 4 -25c-6 -22 -19 -40 -34 -57c-6 -7 -15 -12 -23 -16c-20 -9 -41 -15 -63 -15c-50 1 -86 26 -109 70c-1 2 -2 4 -3 7c-2 7 -3 14 -5 21c9 23 27 28 48 13c6 -3 10 -9 14 -13c10 -8 19 -16 30 -22c25 -16 53 -8 72 9c5 5 9 10 13 16
c14 17 37 22 56 12z" />
    <glyph glyph-name="ring" unicode="&#x2da;" horiz-adv-x="233" 
d="M115 740c-34 -1 -63 12 -86 37c-21 22 -28 50 -22 81c6 41 53 77 91 80c6 0 13 2 19 3c23 1 44 -7 63 -19c25 -17 40 -40 46 -69c4 -18 -1 -36 -8 -52c-14 -31 -38 -50 -71 -57c-11 -2 -21 -3 -32 -4zM164 849c-15 34 -44 40 -70 29c-23 -10 -32 -36 -21 -58
c7 -16 22 -22 37 -23c23 -1 43 5 51 28c2 8 2 17 3 24z" />
    <glyph glyph-name="hungarumlaut" unicode="&#x2dd;" horiz-adv-x="303" 
d="M187 810h-32c-3 2 -5 4 -9 7c1 6 0 12 2 17c7 25 15 50 23 74c4 13 8 25 10 37c3 10 8 17 17 23h23c10 0 20 1 30 2c9 1 17 1 23 -7c4 -10 -3 -16 -7 -23c-20 -37 -40 -73 -60 -109c-5 -8 -9 -16 -20 -21zM68 810h-32c-3 2 -5 4 -9 7c1 6 0 12 2 17c7 25 15 50 23 74
c4 13 8 25 10 37c3 10 8 17 17 23h23c10 0 20 1 30 2c9 1 17 1 23 -7c4 -10 -3 -16 -7 -23c-20 -37 -40 -73 -60 -109c-5 -8 -9 -16 -20 -21z" />
    <glyph glyph-name="ogonek" unicode="&#x2db;" horiz-adv-x="168" 
d="M78 0l55 1c5 -1 -4 -12 -27 -31c-13 -19 -32 -35 -25 -64c0 -24 17 -27 37 -23c10 2 20 8 30 19s16 6 19 -15v-64c1 -13 -27 -19 -84 -18c-21 3 -42 8 -57 29s-27 31 -27 64c0 24 18 49 37 69c18 20 32 31 42 33z" />
    <glyph glyph-name="caron" unicode="&#x2c7;" horiz-adv-x="301" 
d="M16 953c5 15 15 20 28 20c17 0 32 -6 43 -20c12 -14 24 -28 36 -43c17 -19 38 -20 55 0c8 10 16 21 24 32c17 24 35 33 66 25c3 -1 6 -1 10 -2l3 -3c1 -3 2 -5 4 -9c-4 -7 -9 -15 -13 -23c-17 -31 -33 -62 -51 -92c-7 -14 -17 -26 -33 -30c-2 -1 -3 -2 -5 -2
c-25 0 -50 -3 -75 3c-9 2 -16 8 -21 16c-7 10 -13 20 -19 31c-12 21 -25 42 -36 64c-6 11 -11 23 -16 33z" />
    <glyph glyph-name="dotlessi" unicode="&#x131;" horiz-adv-x="211" 
d="M56 680h80c7 0 14 -2 21 -3c7 -2 12 -7 14 -15c1 -7 3 -15 3 -23c1 -30 0 -59 0 -89c0 -6 -1 -13 -2 -19v-13c0 -19 2 -37 2 -56c1 -18 1 -36 0 -55c0 -8 -1 -17 -2 -25c0 -7 -1 -14 0 -21c3 -22 4 -44 0 -66c-1 -6 -1 -13 0 -19c4 -36 2 -72 2 -108c1 -16 1 -33 0 -50
c0 -21 -1 -42 -2 -63c0 -4 2 -8 1 -12c0 -7 0 -15 -1 -23c-1 -10 -7 -17 -20 -21c-12 1 -28 2 -43 3c-3 1 -7 0 -10 0c-14 -1 -29 -2 -42 -3c-6 3 -10 6 -13 8c-7 8 -9 16 -8 26c1 14 1 27 2 41c0 5 -1 10 -1 15v38v37s-2 23 0 35c3 33 3 66 -1 99c-1 10 -1 20 0 29
c3 32 2 64 1 97c-2 32 -3 64 1 96c1 9 1 18 0 27c-3 22 -3 44 0 66c1 9 -1 19 -1 29c-2 16 2 30 19 38z" />
    <glyph glyph-name="grave" unicode="`" horiz-adv-x="171" 
d="M9 982c4 5 7 8 10 11h71c11 0 18 -7 22 -16c4 -10 7 -20 10 -30c13 -41 26 -82 40 -124c-3 -4 -7 -9 -10 -14h-21c-17 0 -30 7 -39 23c-17 31 -36 63 -53 94c-10 18 -20 37 -30 56z" />
    <glyph glyph-name="Scaron" unicode="&#x160;" horiz-adv-x="475" 
d="M343 523c-4 3 -9 7 -13 12c-12 14 -25 28 -43 35c-21 8 -43 10 -65 7c-24 -2 -44 -27 -46 -52c-1 -23 7 -42 24 -59c23 -24 49 -44 77 -61c27 -17 51 -38 76 -57c14 -10 24 -24 35 -37c23 -26 33 -58 42 -90c2 -10 0 -20 0 -31c0 -5 -2 -10 -2 -15c0 -28 -7 -53 -22 -76
c-16 -23 -33 -45 -56 -61c-19 -14 -41 -21 -63 -27c-18 -4 -37 -8 -56 -9c-18 -1 -36 2 -53 4c-28 2 -52 14 -77 24c-18 8 -33 20 -47 33c-8 8 -11 18 -10 29c3 19 7 37 11 55c2 11 4 21 5 32c2 9 6 16 17 18c6 -4 13 -9 19 -15c30 -31 67 -47 107 -57c31 -8 72 1 91 34
c11 18 12 37 5 56c-7 23 -23 39 -41 52c-27 20 -54 38 -82 57c-10 7 -19 15 -28 23c-11 10 -22 21 -33 31c-25 26 -40 56 -48 90c-6 23 -4 45 -2 68c0 11 3 22 5 33c12 52 43 90 92 114c7 3 15 6 23 7c28 4 55 7 83 -1c17 -5 35 -6 51 -15c9 -5 18 -11 26 -18
c11 -10 16 -23 16 -39c-2 -23 -3 -47 -5 -70c0 -9 0 -19 -13 -24zM101 953c5 15 15 20 28 20c17 0 32 -6 43 -20c12 -14 24 -28 36 -43c17 -19 38 -20 55 0c8 10 16 21 24 32c17 24 35 33 66 25c3 -1 6 -1 10 -2l3 -3c1 -3 2 -5 4 -9c-4 -7 -9 -15 -13 -23
c-17 -31 -33 -62 -51 -92c-7 -14 -17 -26 -33 -30c-2 -1 -3 -2 -5 -2c-25 0 -50 -3 -75 3c-9 2 -16 8 -21 16c-7 10 -13 20 -19 31c-12 21 -25 42 -36 64c-6 11 -11 23 -16 33z" />
    <glyph glyph-name="ae" unicode="&#xe6;" horiz-adv-x="746" 
d="M710 683v-77c0 -13 -7 -20 -20 -20h-190v-176h130c13 0 20 -7 20 -20v-77c0 -13 -7 -20 -20 -20h-130v-176h190c13 0 20 -7 20 -20v-77c0 -13 -7 -20 -20 -20h-358c-11 0 -18 6 -20 17l-10 71h-114l-10 -71c-2 -11 -9 -17 -20 -17h-100c-15 0 -22 8 -20 23l117 663
c2 11 9 17 20 17h136c11 0 17 -5 20 -16l28 -155v151c0 13 7 20 20 20h311c13 0 20 -7 20 -20zM206 205h78l-39 257z" />
    <glyph glyph-name="AE" unicode="&#xc6;" horiz-adv-x="735" 
d="M687 95c3 -30 5 -60 -1 -91c-10 -9 -22 -10 -34 -10c-17 1 -34 3 -50 2c-67 -5 -133 -1 -200 -3c-22 0 -44 0 -66 1c-17 0 -26 8 -29 25c-2 12 -4 24 -7 36c-4 17 -12 23 -30 26c-22 4 -43 1 -65 -4c-4 -1 -8 -3 -11 -4c-10 -12 -10 -26 -13 -40c-1 -6 -2 -13 -3 -20
c-4 -12 -12 -19 -25 -19c-16 0 -33 1 -49 2c-7 0 -13 -1 -20 -2c-12 -1 -24 -2 -36 6c-5 6 -6 14 -4 23c4 15 5 31 8 47c3 15 6 29 8 44l12 72c1 7 2 14 4 21c4 17 7 35 9 53c0 11 4 22 6 33c4 23 8 47 13 70c4 21 8 41 12 61c3 22 7 44 10 66c5 26 10 51 14 77
c4 18 6 36 9 54c1 8 2 18 4 26c2 12 7 23 22 26h132c12 -4 18 -12 19 -24c1 -6 2 -12 4 -18c2 -7 5 -14 15 -12c6 3 7 9 7 15c1 6 2 12 2 17c1 15 11 21 25 23h8h77c39 -1 77 -3 116 -3c26 0 51 2 77 2c3 0 5 1 8 0c21 -1 27 -7 26 -28c-1 -24 -3 -48 -4 -72
c-5 -8 -12 -11 -20 -11c-23 -1 -46 -1 -69 -1c-7 0 -14 1 -21 2h-11c-15 0 -30 -2 -45 -2c-12 0 -22 -4 -31 -17c-1 -8 -2 -19 -3 -30c-1 -12 -3 -23 -2 -35c0 -20 1 -40 2 -59c2 -20 13 -30 33 -30h74h10c23 -3 26 -10 27 -30c0 -16 1 -33 1 -50c0 -3 1 -7 0 -11
c-4 -13 -6 -19 -22 -19c-25 1 -51 -4 -77 -1c-9 1 -20 -2 -30 -4c-8 -2 -13 -9 -15 -17c-2 -9 -2 -19 -2 -28c-1 -7 1 -14 0 -21c-2 -24 -2 -47 1 -71c2 -19 10 -30 34 -31c22 -1 43 -1 65 -1h77c10 1 18 -2 24 -11zM210 210c8 -15 11 -17 28 -17c14 -1 29 0 37 20
c-1 9 -2 22 -4 35c0 6 -2 12 -3 18c-1 14 -1 28 -3 42c-3 15 -6 31 -10 46c-2 8 -6 14 -14 16c-12 -7 -12 -21 -15 -32c-3 -17 -4 -34 -7 -51c-6 -25 -10 -51 -9 -77z" />
    <glyph glyph-name="Zcaron" unicode="&#x17d;" horiz-adv-x="458" 
d="M414 601l-226 -466c-5 -12 -2 -18 11 -18h204c13 0 20 -7 20 -20v-77c0 -13 -7 -20 -20 -20h-348c-13 0 -20 7 -20 20v45c0 12 4 27 9 38l222 465c5 12 2 18 -11 18h-184c-13 0 -20 7 -20 20v77c0 13 7 20 20 20h332c13 0 20 -7 20 -20v-44c0 -12 -4 -27 -9 -38zM333 972
h36c13 0 17 -6 10 -18l-75 -135c-7 -12 -17 -18 -30 -18h-74c-13 0 -23 6 -30 18l-75 135c-7 12 -3 18 10 18h37c14 0 25 -5 32 -16l51 -65c3 -5 7 -7 12 -7s9 2 13 7l50 65c9 11 20 16 33 16z" />
    <glyph glyph-name="zcaron" unicode="&#x17e;" horiz-adv-x="458" 
d="M414 601l-226 -466c-5 -12 -2 -18 11 -18h204c13 0 20 -7 20 -20v-77c0 -13 -7 -20 -20 -20h-348c-13 0 -20 7 -20 20v45c0 12 4 27 9 38l222 465c5 12 2 18 -11 18h-184c-13 0 -20 7 -20 20v77c0 13 7 20 20 20h332c13 0 20 -7 20 -20v-44c0 -12 -4 -27 -9 -38zM333 972
h36c13 0 17 -6 10 -18l-75 -135c-7 -12 -17 -18 -30 -18h-74c-13 0 -23 6 -30 18l-75 135c-7 12 -3 18 10 18h37c14 0 25 -5 32 -16l51 -65c3 -5 7 -7 12 -7s9 2 13 7l50 65c9 11 20 16 33 16z" />
    <glyph glyph-name="oe" unicode="&#x153;" horiz-adv-x="742" 
d="M683 121c3 -3 7 -6 9 -9c0 -26 1 -50 0 -75c0 -16 -10 -25 -26 -25c-17 -1 -33 -1 -50 -1c-32 0 -65 0 -97 1c-8 0 -17 1 -25 2c-3 0 -7 1 -10 0c-29 -5 -58 -2 -87 -2c-30 0 -59 -3 -89 -8c-16 -3 -34 -3 -51 -1c-19 1 -38 3 -56 12c-28 12 -53 30 -72 54
c-23 28 -40 59 -50 94c-6 17 -12 35 -16 53c-5 22 -9 45 -12 67c-7 42 -3 85 -3 127c0 13 4 26 6 39c5 36 14 70 25 104c11 31 26 60 46 85c27 32 62 52 103 60c31 6 62 3 93 0c5 -1 10 -4 15 -5c14 -5 29 -8 44 -8c18 1 36 0 54 1c35 0 70 1 105 3c19 2 38 4 57 1
c9 -2 18 2 26 1c18 0 35 -1 53 -3c11 0 13 -2 21 -19c-1 -23 -2 -49 -3 -76c-4 -4 -7 -8 -9 -10c-6 0 -8 -1 -10 -1c-49 -1 -98 -3 -146 -3c-25 0 -33 -10 -35 -34c-2 -15 -3 -30 -1 -46c2 -17 1 -34 0 -51c-2 -32 17 -43 45 -42c22 0 44 0 66 2c18 2 34 -10 34 -33
c1 -19 0 -39 0 -60c-3 -5 -8 -10 -12 -16c-27 -4 -53 -5 -80 -2c-12 1 -24 -2 -36 -5c-11 -3 -17 -12 -17 -23c1 -37 -5 -74 -1 -111c3 -23 12 -31 38 -33c23 -2 45 -1 68 -1c14 0 28 1 42 0c13 0 27 -2 44 -3zM358 350c-2 34 -3 61 -4 89l-1 1c-5 29 -9 59 -16 88
c-5 21 -14 41 -27 59c-20 27 -68 23 -83 -3c-9 -16 -17 -32 -23 -49c-10 -31 -19 -62 -18 -95c0 -3 -1 -5 -1 -8c-1 -20 -3 -40 -4 -61c0 -16 1 -32 2 -48c0 -11 0 -21 1 -32c5 -31 9 -62 15 -93c5 -25 15 -49 28 -70c21 -33 57 -28 77 -7c4 4 7 9 10 14c14 20 21 43 27 66
c5 22 9 45 10 68c2 29 5 58 7 81z" />
    <glyph glyph-name="Z" unicode="Z" horiz-adv-x="458" 
d="M209 127c6 -11 15 -14 27 -16c32 -5 65 -2 98 -2c22 0 43 1 66 -2c14 -7 17 -20 14 -35c-2 -11 -2 -21 1 -32c1 -4 0 -9 0 -14c0 -20 -12 -27 -27 -27c-38 -1 -77 0 -116 0c-6 0 -13 1 -19 1h-27c-27 0 -55 -1 -82 0c-12 0 -24 1 -36 0c-16 -2 -31 -1 -47 1
c-15 1 -19 11 -19 26c0 16 1 31 3 47c0 6 2 12 4 18c6 15 12 30 19 44c14 30 29 59 43 89c6 13 11 27 16 40l51 108c22 47 44 94 66 142c4 8 7 18 10 25c-2 12 -7 19 -19 23c-6 0 -14 -1 -22 0c-15 0 -31 2 -46 2c-12 0 -23 0 -34 -1c-21 -2 -42 -4 -61 2
c-11 9 -16 19 -15 31c1 20 1 39 3 58c2 16 8 19 23 21c20 2 39 4 58 0c8 -1 17 2 26 2h229c4 -3 10 -8 16 -13l3 -48c1 -18 -4 -34 -11 -50c-18 -38 -36 -76 -53 -114c-21 -44 -41 -89 -62 -133c-15 -34 -30 -68 -46 -102c-9 -20 -18 -40 -28 -61c-5 -9 -8 -18 -6 -30z" />
    <glyph glyph-name="N" unicode="N" 
d="M144 676c9 -3 17 -12 21 -24c14 -42 36 -80 53 -121c14 -36 29 -71 44 -106c7 -17 15 -33 22 -49c4 -9 9 -15 22 -16c2 1 4 5 7 9c0 12 0 23 1 34c0 9 1 19 1 28c1 2 1 4 1 6c-5 32 -2 64 -2 96c1 29 1 57 2 85c0 7 -1 14 -2 21c0 4 0 9 -1 13c-1 15 11 29 29 29
c24 -1 48 0 71 -1c7 0 14 -2 20 -4c10 -4 15 -12 16 -23v-4c-4 -57 3 -113 0 -169c-1 -18 0 -36 0 -54c0 -7 -1 -13 -2 -20c0 -3 -1 -7 -1 -11c4 -24 4 -48 0 -72c-1 -9 0 -18 0 -27c1 -43 2 -87 3 -130v-113c-1 -12 -2 -23 -4 -35c0 -4 -3 -8 -4 -11c-3 -2 -6 -3 -8 -3
c-25 -2 -49 -2 -74 -3c-7 5 -16 9 -22 15c-6 5 -9 13 -13 20c-13 28 -27 57 -40 85c-15 32 -29 64 -44 96c-11 24 -23 47 -34 70c-4 9 -10 16 -19 19c-9 -2 -12 -7 -12 -15v-23c1 -14 3 -28 3 -43c0 -37 -2 -74 -2 -111c0 -25 1 -50 2 -75c0 -6 -2 -12 -3 -18
c-3 -14 -14 -20 -27 -20c-26 -1 -52 -1 -79 0c-14 0 -21 6 -24 21c-2 10 -3 20 -2 30c3 31 3 62 0 93c-2 21 -1 42 0 63c0 13 1 25 2 38c0 8 -1 16 -1 24c0 30 0 59 1 89c0 2 1 5 0 8c-5 33 -1 66 -2 99v169c0 8 2 16 3 24c1 10 7 16 17 19c17 4 33 3 50 2c9 -1 18 -2 31 -4
z" />
    <glyph glyph-name="four" unicode="4" horiz-adv-x="536" 
d="M480 264c4 -3 7 -7 11 -10v-25v-35c0 -6 0 -12 -1 -18c-2 -12 -8 -17 -21 -18l-24 -3c-15 -2 -23 -13 -26 -26c-5 -24 -3 -47 -2 -71c1 -6 1 -13 2 -19c2 -14 -14 -30 -28 -29c-13 1 -27 1 -40 1c-5 1 -11 0 -16 -1c-20 -2 -26 1 -37 15c-6 33 -5 66 -5 99
c0 18 -11 29 -28 31c-5 1 -11 1 -16 1c-17 0 -34 1 -51 1c-15 0 -29 -1 -44 -1c-21 -1 -43 -1 -64 -1c-11 0 -22 2 -34 4c-4 4 -7 8 -11 12v56c1 7 3 14 6 20c6 12 12 24 18 35c31 53 61 105 92 158l63 111c22 37 44 75 67 112c5 9 12 16 19 24c35 3 68 8 99 -2
c13 -14 10 -28 10 -41c-1 -21 -3 -41 -3 -62c1 -33 3 -66 3 -98v-132c0 -17 -3 -33 -1 -50c3 -22 11 -32 33 -34c10 -1 19 -3 29 -4zM281 431c-12 -2 -18 -10 -23 -19c-8 -16 -17 -31 -26 -46l-33 -60c-6 -11 -9 -22 2 -34c3 -1 8 -4 13 -4c17 -1 33 0 50 0c13 0 22 7 26 19
c2 7 3 14 3 21c1 25 0 51 0 77v30c0 8 -4 13 -12 16z" />
    <glyph glyph-name="two" unicode="2" horiz-adv-x="456" 
d="M212 151v-15c6 -10 16 -11 26 -11c45 -2 90 -3 135 -4h18c12 1 20 -4 24 -18c0 -11 -2 -26 -3 -40c0 -6 1 -12 1 -18c3 -22 -9 -34 -31 -32c-7 0 -13 0 -19 -1h-60c-15 -1 -31 -1 -47 0c-8 0 -15 1 -23 2c-4 0 -7 1 -10 0c-27 -4 -54 -3 -82 0c-15 1 -31 -1 -46 -2
c-14 -1 -27 -2 -39 5c-10 5 -15 12 -15 23c1 24 1 48 4 72c1 14 10 27 22 36c19 14 32 34 48 51c18 19 35 39 52 60c11 13 21 28 32 41c27 33 49 69 67 107c16 32 24 67 19 102c-3 25 -9 49 -26 69c-20 23 -48 30 -77 18c-35 -14 -61 -39 -80 -70c-4 -7 -9 -12 -13 -18
c-5 0 -9 0 -13 1l-6 21c-4 23 -9 46 -13 69c-4 24 3 44 22 60c28 25 61 35 95 42c21 5 42 5 62 1c5 0 10 0 15 -1c47 -3 87 -23 117 -60c20 -24 34 -53 39 -84c5 -26 5 -53 5 -80c-1 -29 -8 -55 -19 -82c-18 -43 -45 -82 -72 -120c-14 -20 -31 -39 -47 -57
c-17 -19 -36 -37 -53 -55c-4 -4 -6 -8 -9 -12z" />
    <glyph glyph-name="five" unicode="5" horiz-adv-x="498" 
d="M83 161h15c9 -10 19 -20 28 -30c23 -22 51 -32 82 -34c60 -5 98 31 112 81c8 26 11 54 5 82c-3 11 -5 23 -8 34c-9 37 -35 58 -70 70c-11 3 -22 5 -33 6c-21 3 -41 -4 -60 -10c-6 -2 -12 -4 -17 -6c-25 -12 -54 12 -51 40c1 14 2 29 3 43c1 18 2 37 3 55c2 18 4 37 6 55
l3 30c1 24 2 48 4 71c1 9 3 18 4 29c5 4 11 8 17 14c14 -2 29 -3 43 -4c6 0 12 -1 18 0c22 4 45 2 67 1c16 -2 32 0 48 1h6h89c13 -6 17 -17 17 -29v-49c1 -15 -5 -27 -21 -35c-11 1 -24 3 -38 3c-14 1 -28 1 -42 0c-20 -3 -40 -3 -60 0c-11 1 -22 -2 -32 -4
c-10 -3 -17 -11 -19 -20c-5 -21 -8 -42 -7 -64c1 -5 3 -10 5 -14c10 -7 20 -9 31 -10c28 -2 57 -2 85 -13c46 -18 82 -49 104 -93c12 -22 24 -45 27 -70c3 -15 3 -30 4 -45c0 -9 -1 -18 -1 -27c2 -48 -13 -91 -41 -130c-2 -4 -5 -8 -7 -12c-7 -11 -16 -20 -26 -28
c-30 -24 -63 -41 -102 -47c-23 -4 -47 -8 -71 -8c-46 -1 -88 13 -127 36c-8 4 -15 11 -21 18c-7 10 -11 21 -5 34c9 22 17 44 26 67c1 3 4 7 7 12z" />
    <glyph glyph-name="three" unicode="3" horiz-adv-x="443" 
d="M321 376c1 -12 8 -20 15 -27c16 -15 31 -31 42 -50c16 -28 26 -56 27 -89c2 -35 -5 -68 -16 -100c-13 -35 -36 -63 -69 -83c-22 -14 -45 -23 -71 -28c-29 -6 -59 -4 -89 -2c-25 1 -49 7 -73 15c-14 5 -27 13 -38 23c-10 9 -16 20 -9 34c8 18 15 36 23 53c2 4 6 8 9 11
c10 4 18 1 25 -5c24 -21 52 -31 82 -38h4c28 0 55 4 76 24c16 15 24 35 29 56c3 11 4 24 3 36c-1 52 -30 87 -77 101c-11 4 -22 3 -33 5c-9 1 -17 1 -26 4c-11 2 -18 12 -18 25c0 18 2 37 3 55c6 9 13 14 24 16c19 4 38 9 54 22c17 15 33 29 39 52c4 13 8 26 3 41
c-2 6 -2 13 -3 20c-5 34 -37 58 -69 62c-29 4 -54 -7 -76 -24c-3 -2 -5 -4 -8 -6c-2 -1 -4 -2 -5 -3c-9 2 -12 8 -14 15l-9 45c-1 4 -2 8 -3 13c1 13 10 21 22 27c24 12 49 19 76 19h31c44 1 82 -17 115 -44c22 -18 34 -43 42 -70c8 -24 9 -48 10 -72
c1 -45 -14 -82 -40 -117c-2 -1 -3 -3 -4 -5c-2 -4 -3 -8 -4 -11z" />
    <glyph glyph-name="eight" unicode="8" horiz-adv-x="488" 
d="M372 369c2 -2 7 -6 12 -10c35 -30 55 -68 60 -114c0 -7 3 -13 3 -19l-3 -30c-3 -16 -5 -32 -8 -47c-4 -24 -17 -44 -29 -64c-29 -51 -75 -78 -132 -89c-22 -4 -45 -5 -68 1c-7 3 -16 4 -23 4c-11 0 -20 5 -29 9c-33 16 -59 41 -80 70c-6 7 -10 16 -13 25
c-9 26 -15 53 -19 81c-3 22 1 43 3 64c2 17 8 31 12 46c7 20 19 36 33 51c4 4 9 8 13 13c11 13 16 24 5 45c-7 14 -14 29 -18 44c-5 14 -6 28 -8 42c-2 8 -3 16 -4 24c-2 41 9 79 28 115c5 10 13 19 21 27c23 23 48 42 80 48c12 2 24 2 37 3c20 1 39 -2 57 -11
c47 -25 81 -61 96 -112c4 -12 7 -25 9 -37c2 -8 0 -15 0 -23c-1 -5 -2 -10 -2 -16c2 -35 -9 -67 -27 -96c-8 -12 -11 -24 -6 -44zM169 216c1 -18 2 -37 4 -55c4 -32 22 -54 52 -67c10 -4 20 -4 30 -1c19 7 35 17 44 37c5 12 10 23 14 35c5 20 10 41 7 62c-3 19 -7 38 -13 57
c-5 19 -15 35 -31 47c-19 16 -51 11 -70 -8c-14 -14 -24 -31 -30 -50c-5 -19 -7 -38 -7 -57zM254 621c-5 0 -10 -1 -15 0c-9 0 -17 -3 -24 -9c-14 -11 -24 -26 -28 -43c-5 -18 -7 -37 -6 -56c0 -21 8 -42 17 -62c5 -9 13 -16 22 -20c21 -10 51 -7 63 17c5 10 11 19 14 30
c10 28 12 56 4 85c-7 26 -17 50 -47 58z" />
    <glyph glyph-name="zero" unicode="0" horiz-adv-x="498" 
d="M43 345c3 34 3 67 9 99c7 39 15 77 29 114c8 21 15 42 28 60c17 22 35 43 57 58c28 20 59 28 93 23c11 -1 23 -2 34 -4c13 -3 24 -8 36 -14c35 -19 58 -48 77 -83c16 -32 26 -66 35 -100c6 -24 10 -49 10 -74c0 -16 2 -31 1 -47c-1 -12 1 -25 2 -38c1 -23 -3 -46 -6 -69
c-3 -29 -10 -58 -17 -87c-9 -38 -24 -75 -46 -108c-10 -15 -25 -29 -40 -41c-19 -14 -39 -27 -63 -30c-17 -1 -35 -3 -53 -1c-20 2 -40 8 -58 18s-33 22 -45 38c-30 35 -46 77 -59 121c-7 23 -11 46 -16 70c-2 14 -2 29 -4 44c-1 17 -3 34 -4 51zM157 383h1
c-1 -13 -4 -26 -3 -40c1 -27 4 -54 7 -81c4 -21 10 -41 15 -62s13 -41 25 -59c20 -32 64 -36 88 -9c9 11 17 23 22 37c7 22 14 43 17 66c2 18 6 36 6 54c-1 5 0 9 1 14c1 19 2 39 2 58c1 22 -1 45 -3 67c-1 21 -2 42 -7 62c-6 26 -13 51 -29 73c-19 27 -54 34 -80 14
c-12 -9 -23 -20 -30 -33c-9 -18 -17 -35 -20 -55c-5 -22 -12 -43 -12 -66v-40z" />
    <glyph glyph-name="nine" unicode="9" horiz-adv-x="469" 
d="M81 44c-2 16 -2 30 2 45c4 18 7 37 10 56c1 7 4 13 13 15c11 -3 18 -13 25 -21c10 -10 21 -19 34 -23c24 -9 48 -11 69 5c11 9 21 19 30 31c19 25 28 54 32 85c2 12 5 23 7 34c2 8 2 16 3 24c0 9 -4 14 -12 16c-13 -1 -20 -10 -29 -17c-13 -9 -26 -18 -42 -22
c-30 -7 -60 -8 -89 7c-26 14 -46 32 -61 59c-12 23 -21 47 -27 72c-1 2 -1 4 -1 7c0 34 -2 68 0 102c3 32 14 63 34 89c3 4 6 8 8 12c13 20 33 34 52 47c17 12 37 17 58 21c8 2 15 3 23 3c44 0 81 -15 114 -42c18 -15 31 -34 43 -54c18 -33 30 -69 38 -106
c2 -11 2 -24 4 -36c1 -13 2 -26 3 -38c1 -29 4 -58 2 -87c-2 -45 -5 -90 -19 -132c-10 -33 -21 -65 -41 -93c-10 -13 -19 -26 -28 -39c-13 -17 -29 -29 -47 -39c-13 -6 -26 -12 -39 -17c-19 -6 -39 -6 -59 -7c-32 -2 -61 8 -88 24c-8 5 -15 13 -22 19zM214 359
c43 2 66 27 75 63c8 33 8 67 1 100c-5 21 -11 41 -24 58c-16 22 -50 28 -71 11c-15 -11 -25 -25 -31 -43c-13 -40 -12 -81 -8 -122c2 -17 10 -31 19 -45c9 -15 22 -24 39 -22z" />
    <glyph glyph-name="six" unicode="6" horiz-adv-x="463" 
d="M386 647v-100l-8 -8c-5 4 -10 7 -14 11c-5 5 -10 11 -15 16c-21 23 -49 30 -78 25c-23 -4 -42 -17 -58 -36c-23 -28 -34 -60 -43 -93c-4 -18 -10 -35 -9 -54c0 -6 1 -11 5 -15c10 -4 18 0 26 6c16 12 33 21 54 26c17 4 35 4 52 1c43 -8 72 -35 92 -72
c18 -32 28 -66 30 -102c1 -26 4 -52 -2 -78c-8 -31 -18 -60 -33 -88c-1 -1 -1 -3 -2 -4c-25 -27 -48 -56 -85 -68c-14 -5 -29 -7 -44 -9c-42 -5 -78 7 -113 30c-21 14 -36 34 -50 55c-18 27 -27 58 -33 89l-3 12c-5 20 -8 39 -8 59c1 11 -1 21 -3 32c-5 25 -3 50 -1 75
c1 12 1 23 2 35c0 24 6 47 11 69c7 34 18 66 33 96c9 18 19 35 31 50c12 16 26 29 39 43c21 21 47 36 76 41c49 9 95 0 136 -26c7 -4 11 -13 15 -18zM311 216c-3 22 -5 44 -9 65c-4 19 -12 36 -28 47c-5 4 -11 8 -17 9c-11 1 -22 0 -33 -4c-23 -11 -37 -29 -47 -52
c-11 -26 -7 -52 -7 -79c-1 -17 7 -34 10 -51c4 -23 17 -39 36 -51c16 -10 44 -6 58 7c14 14 24 31 28 51c4 19 6 39 9 58z" />
    <glyph glyph-name="seven" unicode="7" horiz-adv-x="441" 
d="M396 677c1 -20 3 -38 3 -57c0 -9 -2 -19 -5 -28c-12 -39 -26 -77 -38 -116c-11 -36 -22 -73 -33 -109c-2 -5 -2 -10 -4 -14c-18 -45 -30 -91 -45 -137c-9 -28 -19 -55 -27 -83c-9 -29 -17 -57 -27 -85c-2 -4 -3 -8 -4 -12c-7 -15 -17 -24 -35 -23c-19 0 -38 -1 -58 -1
c-6 0 -12 1 -17 3c-9 3 -14 14 -12 23c5 15 9 30 15 44c11 27 19 55 27 83c5 18 13 35 18 52c14 42 28 84 41 126c17 51 34 103 52 155c3 10 7 20 11 30c3 9 4 18 3 28c-1 11 -6 19 -16 21s-21 5 -32 3c-27 -4 -55 -1 -83 -2c-18 -1 -37 0 -55 0c-22 0 -33 11 -33 34v43
c0 6 1 13 4 19c2 7 7 13 15 13c10 1 20 3 29 4h159l36 -3c6 0 13 -1 19 1c15 3 30 2 45 0c5 0 11 1 17 2c14 1 24 -3 30 -14z" />
    <glyph glyph-name="one" unicode="1" horiz-adv-x="328" 
d="M153 547c-4 2 -9 4 -13 6c-16 -3 -30 -12 -44 -19c-11 -7 -11 -7 -28 -7c-3 5 -8 11 -11 17c-4 12 -8 23 -11 35c-7 20 -2 33 15 44c29 19 58 37 88 55c15 9 32 13 50 11c17 -1 35 0 52 0h3c23 1 29 -6 29 -29c0 -11 1 -21 1 -32v-117c-1 -14 -2 -27 -2 -40
c0 -29 1 -58 2 -87c0 -11 1 -22 0 -32c0 -35 -2 -70 -2 -105c0 -48 2 -96 2 -145c1 -8 -1 -17 -2 -25c0 -6 1 -12 1 -18s1 -11 2 -17c1 -13 -6 -20 -16 -27c-28 -1 -57 -3 -84 -4c-16 5 -22 14 -24 30c-2 21 -3 41 0 62c2 10 0 20 -1 31v38c0 8 1 16 0 24c0 6 -1 13 -1 19
v105c0 26 3 52 3 78s-2 53 -3 79c0 8 1 17 2 25c2 16 0 31 -8 45z" />
    <glyph glyph-name="at" unicode="@" horiz-adv-x="720" 
d="M392 507c18 6 35 11 54 10c20 -1 31 -11 31 -32v-61c0 -30 1 -59 0 -89c-1 -24 -1 -48 1 -74c3 -7 6 -16 15 -21c14 -7 35 -5 48 7c18 16 27 38 36 60c2 6 4 14 6 21c4 11 8 23 9 35c5 49 -2 96 -26 140c-10 19 -25 34 -42 47c-20 16 -42 27 -67 33c-19 4 -38 9 -58 8
c-17 0 -34 1 -51 0c-48 -3 -92 -16 -130 -47c-47 -39 -73 -89 -83 -148c-2 -13 -5 -27 -5 -40s3 -26 5 -39c5 -25 11 -50 23 -73c21 -41 50 -75 89 -101c8 -6 19 -9 29 -13c13 -4 26 -8 39 -11c18 -3 35 -6 52 -7c10 -1 21 1 31 2l36 6c5 1 10 0 15 0c4 -3 8 -7 13 -11
c0 -13 0 -26 -1 -40c0 -17 -8 -26 -24 -29c-19 -3 -38 -6 -56 -9c-5 -1 -9 0 -13 0c-8 1 -15 2 -23 2c-63 2 -121 20 -171 60c-13 11 -27 21 -39 33c-43 45 -73 97 -83 159c-5 28 -8 57 -5 86c2 25 5 49 11 72c1 3 1 5 2 7c18 48 40 94 79 130c40 37 85 66 139 80
c27 6 54 11 82 9c11 0 23 3 34 2c50 -2 98 -12 142 -36c38 -19 69 -46 92 -81c19 -28 30 -61 38 -93c6 -23 10 -48 8 -72c-1 -8 -3 -16 -4 -23c-3 -44 -19 -84 -42 -121c-20 -32 -47 -57 -83 -71c-36 -15 -72 -11 -105 9c-8 5 -15 14 -21 22c-5 6 -10 11 -17 14
c-8 3 -15 2 -21 -3c-23 -16 -48 -13 -73 -7c-26 6 -44 23 -59 43c-17 21 -26 46 -30 73c-3 14 -3 28 -1 43c3 13 3 27 4 41c6 58 43 99 97 111c19 5 37 3 54 -6c6 -3 12 -4 19 -7zM296 373c1 -14 2 -28 4 -43c2 -9 6 -19 9 -28c9 -29 52 -31 66 -11c5 7 12 15 15 24
c8 24 8 50 6 75c-1 11 -5 23 -9 35c-8 18 -24 28 -43 28c-17 -1 -26 -11 -35 -23c-11 -17 -13 -37 -13 -57z" />
    <glyph glyph-name="percent" unicode="%" horiz-adv-x="581" 
d="M432 683c3 -4 5 -7 8 -11c2 -14 -4 -28 -9 -42c-20 -62 -42 -125 -63 -187c-10 -32 -20 -64 -31 -96c-28 -88 -57 -175 -87 -263c-6 -18 -12 -36 -19 -54c-6 -16 -19 -25 -37 -25c-9 0 -18 -1 -27 0c-15 1 -23 11 -20 26c2 13 5 27 10 40c16 39 29 79 42 120
c15 51 32 103 49 154c7 23 17 46 25 69c9 28 18 57 28 86c12 37 25 74 38 111c5 15 9 31 14 47c7 21 13 24 34 25h13h32zM43 477c3 43 11 82 33 116c6 10 14 18 23 24c21 17 61 13 80 -4c23 -20 36 -44 39 -73c2 -20 5 -40 6 -61c1 -13 -2 -26 -3 -39c-3 -22 -8 -44 -16 -65
c-8 -22 -23 -40 -46 -48c-32 -12 -62 -2 -82 25c-16 22 -23 46 -27 72c-1 8 -2 15 -3 22c-2 12 -3 23 -4 31zM139 395c10 3 16 9 18 18c4 12 8 25 9 38c1 18 1 36 0 53c-1 12 -3 24 -7 35c-5 17 -27 25 -42 8c-4 -5 -9 -11 -11 -17c-3 -12 -6 -25 -7 -38c-2 -23 2 -47 7 -69
c4 -17 12 -32 33 -28zM355 204c2 14 5 30 7 47c1 17 8 33 14 48c6 18 16 33 31 44c17 13 36 21 58 13c17 -6 33 -15 42 -33c8 -15 18 -30 22 -47c1 -8 2 -15 3 -22c4 -22 8 -44 3 -67c-4 -17 -4 -35 -8 -52c-4 -22 -14 -42 -29 -59c-15 -16 -31 -23 -52 -23
c-24 -1 -42 9 -55 26c-8 9 -14 20 -18 31c-5 17 -9 36 -13 54c-3 12 -3 25 -5 40zM441 125c15 -1 22 2 28 15c4 7 5 15 7 23c1 7 2 14 2 22c2 19 4 38 1 57c-2 10 -6 19 -9 29c-4 10 -12 14 -23 14c-13 1 -22 -7 -26 -19c-4 -10 -7 -22 -8 -33c-3 -28 -4 -55 5 -81
c4 -12 11 -22 23 -27z" />
    <glyph glyph-name="perthousand" unicode="&#x2030;" horiz-adv-x="811" 
d="M367 683c25 9 50 8 73 2c9 -11 6 -19 3 -28c-10 -30 -21 -60 -31 -90c-11 -32 -22 -63 -32 -95c-15 -43 -29 -86 -43 -129c-8 -26 -18 -51 -25 -77c-9 -35 -23 -67 -35 -101l-9 -30c-7 -18 -13 -36 -19 -54c-5 -14 -9 -27 -13 -41c-3 -10 -8 -20 -20 -29
c-6 0 -15 -2 -25 -2c-8 -1 -16 0 -24 0s-15 1 -21 10c0 4 0 10 2 15l33 99c3 8 5 16 7 25c7 26 17 52 27 78c8 19 14 40 21 60c17 50 34 101 48 152c1 2 1 5 2 6c18 39 26 81 40 121l33 93c2 5 5 9 8 15zM227 500c-2 -44 -4 -80 -17 -115c-7 -18 -15 -36 -31 -48
c-10 -8 -21 -11 -34 -13c-39 -3 -72 28 -80 59c-5 18 -12 36 -15 55c-3 15 -2 32 -1 48c1 18 3 37 6 55c4 22 14 41 26 59c15 23 37 32 64 28c10 -1 21 1 30 -7c7 -6 14 -13 21 -20c11 -14 19 -31 23 -49c4 -20 10 -39 8 -52zM128 557c-21 -16 -25 -40 -26 -64
c-1 -19 2 -39 5 -57s9 -36 32 -41c5 2 10 5 14 7c11 15 14 32 15 49c1 10 -1 20 1 29c2 13 1 25 0 38c-3 17 -9 29 -23 39h-18zM760 210c4 -27 -1 -53 -8 -78c-6 -20 -16 -37 -27 -54c-13 -20 -50 -27 -68 -22c-30 9 -49 29 -60 58c-10 29 -16 59 -16 90c0 18 5 37 8 55
c1 7 3 14 4 22c5 21 16 40 30 56c10 13 26 19 43 20c23 2 43 -3 58 -20c13 -15 22 -33 28 -52c7 -25 12 -50 8 -75zM666 286c-13 -5 -20 -15 -24 -28c-9 -29 -7 -57 -2 -86c2 -10 5 -20 9 -30c3 -10 12 -17 23 -17c10 0 18 7 21 16c5 11 9 23 10 34c1 27 1 55 -3 83
c-3 19 -15 28 -34 28zM429 357h35c9 0 16 -3 23 -7c26 -18 39 -44 45 -74c6 -29 9 -59 6 -88c-2 -35 -11 -69 -29 -100c-13 -21 -34 -33 -60 -34c-6 0 -12 1 -17 3c-24 8 -42 23 -51 47c-7 17 -13 35 -18 52c-1 3 -1 6 -1 8c0 22 -4 43 -1 64c5 34 8 69 30 98
c10 13 21 24 38 31zM448 125c11 1 18 6 22 14c5 10 10 22 10 33c2 26 1 51 1 77c-1 16 -10 38 -32 40c-18 -6 -27 -14 -29 -30c-3 -26 -8 -53 -4 -80c2 -17 7 -34 18 -48c5 -2 10 -4 14 -6z" />
    <glyph glyph-name="asciitilde" unicode="~" horiz-adv-x="537" 
d="M106 316c-6 2 -9 2 -11 4c-14 14 -27 28 -40 43c-7 8 -8 19 -3 30c10 23 26 41 46 56c19 13 40 22 62 26c20 4 40 3 59 -2c25 -7 46 -19 65 -36c15 -14 29 -28 44 -43s33 -21 56 -16c22 6 30 31 46 46h14c14 -12 27 -28 38 -44c6 -8 7 -18 2 -27c-20 -39 -49 -68 -93 -79
c-39 -10 -72 3 -102 28c-20 17 -36 37 -54 55c-7 6 -14 11 -22 16c-23 14 -65 7 -83 -22c-4 -6 -7 -14 -12 -20c-3 -5 -8 -10 -12 -15z" />
    <glyph glyph-name="ampersand" unicode="&#x26;" horiz-adv-x="601" 
d="M119 678c6 10 16 10 25 11c7 1 14 -1 21 -1c10 0 20 1 30 1c17 0 34 -1 51 -1c6 0 11 -2 16 -1c30 5 59 2 89 3h111c20 0 25 -4 37 -20c-1 -26 2 -54 -2 -83c-4 -3 -8 -7 -12 -10h-15h-150c-6 0 -12 -2 -19 -3c-9 -1 -14 -6 -18 -13c-2 -11 1 -20 4 -29
c13 -36 24 -73 39 -108c18 -41 29 -84 46 -125c8 -18 14 -37 20 -55c3 -8 7 -16 15 -21h17c4 4 9 8 12 13c11 24 21 48 32 72c2 6 3 13 5 20c1 6 4 11 11 14c3 -2 7 -3 10 -6c3 -4 6 -9 9 -13c12 -21 24 -41 36 -62c1 -1 1 -2 2 -3c18 -26 13 -51 -3 -75
c-20 -31 -39 -61 -66 -86c-5 -5 -8 -12 -11 -15c-3 -16 1 -29 6 -42c5 -12 9 -24 13 -37c6 -15 11 -30 17 -45c4 -12 5 -12 4 -27c-1 -2 -6 -6 -8 -8h-88c-13 3 -20 13 -25 26c-6 16 -13 31 -20 47c-6 14 -17 21 -33 20s-32 -1 -48 -4s-32 -3 -48 -2c-34 3 -65 14 -93 33
c-42 30 -70 70 -81 121c-3 17 -6 35 -8 52c-1 4 -1 9 -1 13c2 12 1 23 0 35c-1 10 1 20 3 30c6 33 15 65 34 94c18 27 41 49 69 66c0 0 1 0 1 1c23 12 27 24 20 48c-12 39 -28 77 -41 115c-5 14 -11 28 -15 42c-2 5 0 12 0 18zM220 354c-12 3 -21 -2 -26 -13
c-3 -5 -6 -9 -8 -14c-6 -13 -8 -26 -10 -40c-4 -24 -9 -48 -3 -73c6 -24 10 -48 27 -67c16 -18 33 -34 57 -40c20 -4 37 2 48 19c2 16 -2 31 -8 45c-3 7 -6 14 -8 21c-16 44 -32 87 -48 131c-4 12 -10 24 -21 31z" />
    <glyph glyph-name="Ydieresis" unicode="&#x178;" 
d="M311 13c-4 -4 -9 -9 -15 -14l-45 3c-8 0 -16 -1 -24 -1c-6 0 -12 -1 -18 -1c-12 0 -18 3 -28 17c0 49 -1 99 -1 150c0 14 2 28 2 42c0 35 -7 69 -18 102c-13 39 -24 79 -38 117s-25 76 -38 113c-11 33 -22 64 -33 97c-3 9 -4 18 -5 24c5 15 15 17 23 16c18 -2 34 2 52 2
c8 0 16 -1 24 0c19 0 32 -11 37 -29c3 -11 5 -21 6 -31c6 -31 13 -61 21 -90c6 -23 10 -46 15 -68c1 -6 2 -11 4 -16c2 -7 6 -15 16 -17c10 4 13 12 15 22c7 29 13 59 20 88c8 37 18 72 25 109c4 20 21 33 43 32c25 -1 49 -2 74 -4c5 0 9 -3 13 -4c6 -10 4 -19 1 -28
c-10 -30 -21 -60 -30 -89c-12 -36 -23 -72 -34 -108c-15 -45 -30 -89 -45 -134c-6 -18 -12 -36 -14 -54c-2 -24 -7 -47 -2 -72c3 -12 2 -24 0 -37c-2 -15 -1 -29 0 -44c1 -23 0 -45 -1 -68c0 -7 -1 -15 -2 -25zM341 919c21 -10 35 -25 40 -48c4 -17 1 -34 -11 -47
c-4 -5 -8 -9 -13 -13c-27 -22 -64 -10 -77 15c-6 10 -10 21 -13 32c-1 7 1 16 3 23c7 22 28 37 51 38h20zM194 919c21 -10 35 -25 40 -48c4 -17 1 -34 -11 -47c-4 -5 -8 -9 -13 -13c-27 -22 -64 -10 -77 15c-6 10 -10 21 -13 32c-1 7 1 16 3 23c7 22 28 37 51 38h20z" />
    <glyph glyph-name="question" unicode="?" horiz-adv-x="392" 
d="M114 177l-14 14c-8 25 -2 48 2 70c7 41 28 74 55 104c25 27 48 55 68 86c19 29 24 60 19 95c-3 16 -8 30 -19 43c-15 17 -43 25 -69 11c-26 -16 -46 -36 -61 -62c-3 -6 -6 -13 -9 -19c-3 -4 -6 -8 -8 -12c-8 0 -11 4 -12 9c-7 18 -13 37 -19 55c-9 24 -6 46 11 66
c22 25 48 44 81 52c21 4 43 6 65 4c9 -1 18 -1 26 -4c49 -15 86 -44 104 -95c10 -25 14 -51 14 -78c1 -16 -3 -33 -7 -49c-8 -32 -24 -61 -44 -88c-13 -17 -28 -33 -43 -49c-21 -24 -44 -45 -62 -72c-9 -14 -15 -30 -17 -47c-1 -14 -4 -19 -14 -29c-15 -1 -30 -3 -47 -5z
M127 127h24c22 -1 46 -24 47 -46c0 -13 2 -26 -3 -38c-14 -30 -55 -48 -87 -22c-24 19 -29 57 -16 77c8 13 19 23 35 29z" />
    <glyph glyph-name="braceleft" unicode="{" horiz-adv-x="289" 
d="M250 -17c-8 -18 -20 -22 -34 -22c-28 -2 -54 5 -79 14c-23 8 -38 25 -50 46c-16 28 -20 58 -21 89c-1 23 2 45 3 67c2 15 3 29 7 43c3 14 3 28 2 41c0 17 -4 31 -20 39c-2 0 -3 2 -4 3c-10 7 -15 16 -14 29v25c1 19 5 36 24 46c11 5 14 16 15 28c0 28 -4 56 -9 83
c-2 13 -4 27 -4 40c0 17 2 34 3 51c0 27 8 51 19 75c8 15 19 27 34 35c14 8 30 13 46 16c15 2 31 3 46 4c23 2 33 -5 35 -21c-4 -19 -6 -36 -10 -52c-1 -8 -3 -17 -12 -21c-14 1 -29 3 -41 4c-19 -12 -26 -29 -27 -48c0 -22 3 -44 4 -67l1 -1c5 -26 6 -52 8 -78
c2 -28 -6 -54 -17 -79c-7 -16 -8 -31 0 -46c5 -9 8 -18 10 -27c5 -15 5 -32 4 -48c0 -40 0 -81 -9 -121c-4 -17 -4 -36 5 -53c9 -16 19 -23 37 -21c8 1 15 1 22 2c11 -6 15 -14 16 -25c0 -4 1 -8 2 -11c2 -14 5 -27 8 -39z" />
    <glyph glyph-name="braceright" unicode="}" horiz-adv-x="289" 
d="M39 -17c3 12 6 25 8 39c1 3 2 7 2 11c1 11 5 19 16 25c7 -1 14 -1 22 -2c18 -2 28 5 37 21c9 17 9 36 5 53c-9 40 -9 81 -9 121c-1 16 -1 33 4 48c2 9 5 18 10 27c8 15 7 30 0 46c-11 25 -19 51 -17 79c2 26 3 52 8 78l1 1c1 23 4 45 4 67c-1 19 -8 36 -27 48
c-12 -1 -27 -3 -41 -4c-9 4 -11 13 -12 21c-4 16 -6 33 -10 52c2 16 12 23 35 21c15 -1 31 -2 46 -4c16 -3 32 -8 46 -16c15 -8 26 -20 34 -35c11 -24 19 -48 19 -75c1 -17 3 -34 3 -51c0 -13 -2 -27 -4 -40c-5 -27 -9 -55 -9 -83c1 -12 4 -23 15 -28c19 -10 23 -27 24 -46
v-25c1 -13 -4 -22 -14 -29c-1 -1 -2 -3 -4 -3c-16 -8 -20 -22 -20 -39c-1 -13 -1 -27 2 -41c4 -14 5 -28 7 -43c1 -22 4 -44 3 -67c-1 -31 -5 -61 -21 -89c-12 -21 -27 -38 -50 -46c-25 -9 -51 -16 -79 -14c-14 0 -26 4 -34 22z" />
    <glyph glyph-name="greater" unicode="&#x3e;" horiz-adv-x="303" 
d="M47 166c-6 7 -8 13 -8 20c1 15 1 29 0 44c-1 17 6 30 19 39c18 13 36 26 54 38c16 12 33 24 49 36c14 12 15 24 2 36c-10 9 -22 17 -33 25c-24 17 -47 35 -71 52c-6 5 -11 11 -15 16c-2 27 -4 52 -5 77c3 3 5 6 7 8c9 4 14 -1 20 -5c23 -15 46 -31 69 -46
c32 -23 64 -44 95 -67c15 -11 30 -23 33 -42c2 -14 1 -28 1 -42c0 -5 -2 -10 -2 -16c3 -21 -9 -36 -24 -47l-102 -72c-22 -15 -43 -31 -65 -47c-7 -5 -14 -10 -24 -7z" />
    <glyph glyph-name="less" unicode="&#x3c;" horiz-adv-x="303" 
d="M250 567c10 -5 14 -13 14 -23c-1 -19 -2 -39 -4 -58c-1 -12 -11 -21 -20 -28c-26 -18 -52 -35 -78 -53c-14 -10 -28 -19 -34 -36c3 -13 10 -21 21 -28c14 -9 26 -20 40 -29c13 -10 28 -18 41 -28c23 -16 35 -39 34 -68c-1 -11 -2 -23 -4 -34c0 -4 -3 -7 -4 -11h-14
c-28 19 -56 37 -83 56c-34 24 -67 49 -101 73c-14 9 -21 22 -20 39c1 23 2 45 4 67c0 7 4 14 8 19c4 6 10 11 16 15c19 14 39 27 58 40c24 18 48 36 72 53c15 11 30 21 45 31c2 1 6 2 9 3z" />
    <glyph glyph-name="equal" unicode="=" horiz-adv-x="423" 
d="M359 514c14 -7 14 -7 21 -20v-67c-2 -10 -9 -15 -21 -17c-20 -3 -39 -2 -59 0c-18 1 -37 -1 -56 -1h-50c-4 0 -8 2 -12 1c-38 -5 -76 -1 -114 -2c-15 -1 -22 7 -23 21c-2 22 -3 45 -4 68c5 6 10 11 14 16c19 2 37 3 54 4c7 0 14 -1 21 -2h18c13 3 27 2 41 0
c12 -2 24 -4 36 -2s25 1 37 1c27 0 54 -2 80 0h17zM377 328c1 -20 3 -38 3 -57c1 -17 0 -18 -15 -32c-9 0 -19 1 -29 0c-19 0 -38 -1 -57 -1c-32 -1 -64 -3 -95 1c-12 2 -25 0 -37 0c-25 -1 -51 -2 -76 -2c-5 0 -11 2 -17 4c-7 3 -11 10 -12 18v16c1 13 2 26 3 40v11
c1 7 5 12 12 14c8 1 17 3 25 3h131h134c12 0 22 -3 30 -15z" />
    <glyph glyph-name="comma" unicode="," horiz-adv-x="190" 
d="M94 128c26 0 40 -12 51 -31c2 -4 5 -9 5 -14c4 -24 2 -48 -6 -71c-8 -21 -18 -41 -36 -56c-1 -1 -3 -3 -5 -4c-14 -8 -25 -5 -33 12c2 4 4 9 6 14c7 15 4 25 -9 35c-6 6 -11 11 -16 17c-25 33 -11 67 16 86c4 4 10 7 15 9s10 2 12 3z" />
    <glyph glyph-name="period" unicode="." horiz-adv-x="223" 
d="M115 156c14 1 30 -3 44 -14c10 -8 16 -17 19 -29c7 -19 7 -39 3 -58c-6 -25 -34 -46 -61 -48c-19 0 -37 2 -52 14c-17 13 -26 30 -28 50c-2 12 -2 25 2 37c7 20 20 34 38 43c8 5 14 5 35 5z" />
    <glyph glyph-name="exclam" unicode="!" horiz-adv-x="190" 
d="M55 177c-4 10 -5 20 -3 31c2 7 1 15 0 23c0 4 -1 8 -1 12c-4 54 -5 107 -4 161c0 22 1 45 -1 67c-4 47 -1 113 -2 159c-1 10 -2 20 -2 30c0 9 0 17 2 26c2 8 9 14 18 15c4 1 8 2 12 2c19 -1 39 -1 59 -2c3 -1 5 -3 7 -5c9 -10 7 -22 6 -34c-1 -8 0 -16 0 -24
c0 -20 -1 -39 -1 -59c0 -9 1 -37 1 -46c0 -3 1 -6 1 -9c0 -24 2 -48 -1 -71c-2 -24 -2 -48 -3 -72c0 -10 1 -19 1 -29c-1 -24 -2 -49 -3 -73c0 -5 0 -9 1 -13c4 -28 2 -55 -2 -82c-1 -10 -7 -17 -17 -18c-12 -2 -24 -2 -37 -4c-13 -1 -24 3 -31 15zM77 8c-6 4 -13 8 -20 13
c-20 16 -24 46 -16 68s25 33 48 35c8 0 18 1 26 -2c24 -9 37 -30 37 -56c-1 -9 -3 -17 -6 -25c-7 -21 -24 -30 -45 -33c-7 -1 -15 0 -24 0z" />
    <glyph glyph-name="bar" unicode="|" horiz-adv-x="181" 
d="M48 730c7 1 15 3 24 3c18 -1 37 -2 57 -4c11 -5 15 -16 15 -29c-2 -42 -2 -84 -3 -126c0 -9 1 -19 2 -29c0 -8 1 -16 0 -24c-3 -25 -2 -50 0 -75c2 -21 1 -42 1 -63c-1 -21 2 -41 -3 -62c-1 -5 -1 -10 0 -15c4 -25 0 -50 0 -75c0 -29 4 -58 2 -87c-2 -32 -2 -64 -2 -96
c0 -15 2 -30 3 -45c0 -21 -9 -32 -29 -33s-40 -2 -59 3c-11 2 -14 6 -16 17c-3 31 -5 62 0 93c0 4 1 8 0 12c-5 30 -2 61 -2 91c-1 26 -1 53 -1 79l3 45c0 7 1 15 0 22c-4 29 -4 58 0 87c1 5 1 11 0 16c-4 25 -4 50 0 75c1 9 0 18 0 27c-1 28 -2 55 -2 82c-1 27 0 53 -1 79
c0 11 2 20 11 32z" />
    <glyph glyph-name="bracketleft" unicode="[" horiz-adv-x="256" 
d="M152 620c-6 -11 -9 -23 -7 -36c2 -21 3 -56 0 -76c-2 -8 -1 -15 -1 -23c4 -28 4 -55 1 -83c-1 -3 -1 -6 0 -8c3 -23 1 -45 0 -67c-1 -14 -1 -28 -1 -42v-49c1 -16 4 -33 2 -49c-2 -24 2 -48 1 -72c0 -9 1 -18 3 -27c2 -12 10 -18 22 -19h18c15 0 27 -9 27 -24
c1 -20 2 -40 -2 -61c-2 -10 -7 -17 -18 -21c-6 0 -14 0 -21 -1c-16 0 -31 -2 -46 -2c-21 -1 -42 -1 -63 0c-12 0 -19 6 -27 20v51c0 15 -2 29 -2 44c0 18 -1 37 0 56c0 27 -1 54 -1 81c1 28 -1 55 0 82c1 23 4 46 5 69c0 3 1 6 1 8c-1 20 -2 40 -2 60c-1 10 2 21 2 32
c-1 28 -2 70 -2 98c-1 11 1 22 2 32v16c-2 18 -2 35 0 53c1 14 -2 29 -3 43c0 10 2 18 8 27c3 2 8 4 12 7c42 0 84 0 125 -1c19 0 25 -7 30 -24c5 -20 3 -39 2 -58c0 -17 -12 -26 -31 -27c-12 0 -23 -3 -34 -9z" />
    <glyph glyph-name="bracketright" unicode="]" horiz-adv-x="256" 
d="M54 628c-12 8 -16 18 -15 31c1 15 1 29 0 43c0 13 5 22 15 28c25 1 50 3 74 3s48 -1 71 -2c12 -6 15 -15 17 -26c1 -4 0 -9 0 -14c0 -24 1 -47 0 -71c0 -25 -2 -51 -2 -77c0 -16 2 -32 2 -48c1 -26 1 -51 0 -77c0 -23 -2 -47 -2 -71c-1 -8 1 -17 1 -25c1 -3 1 -7 1 -10
c-5 -24 1 -48 0 -72c0 -12 -2 -25 -2 -37c0 -14 2 -28 2 -42c0 -29 1 -58 -2 -88c-2 -18 1 -37 2 -56v-29c-4 -4 -8 -9 -12 -13c-14 -5 -26 -6 -39 -3c-11 2 -22 1 -32 0c-20 -2 -40 -3 -60 0c-5 1 -11 1 -17 1c-14 7 -17 18 -16 32c1 10 -1 20 -1 30v24c4 14 13 18 25 18
c14 0 27 1 38 9c8 8 9 18 9 27v118c-1 52 -1 104 -1 156c0 23 2 47 3 70c0 12 -2 24 -2 36c-1 18 -1 36 -1 54c0 17 1 34 0 50c0 6 -3 12 -4 16c-17 14 -37 8 -52 15z" />
    <glyph glyph-name="slash" unicode="/" horiz-adv-x="348" 
d="M292 687c3 -4 6 -8 10 -12c-3 -14 -4 -29 -8 -42c-10 -32 -18 -64 -25 -96c-6 -29 -14 -59 -21 -89c-11 -47 -22 -95 -33 -142l-27 -114c-7 -29 -12 -57 -19 -86c-3 -14 -7 -29 -11 -43c-2 -8 -3 -17 -5 -25c-4 -16 -12 -23 -29 -24c-21 -1 -41 -2 -60 -3
c-17 9 -20 16 -17 35c11 50 25 99 37 149c11 46 20 92 31 138c8 35 17 70 26 105c6 27 12 54 18 80c8 33 17 66 24 99c4 13 6 27 9 40c3 14 7 27 23 33c2 0 5 2 7 2c23 -1 47 3 70 -5z" />
    <glyph glyph-name="backslash" unicode="\" horiz-adv-x="348" 
d="M45 672c8 16 18 18 30 16c11 -2 21 -2 32 0c9 1 19 -1 25 -2c11 -7 16 -14 18 -24c3 -15 7 -31 11 -46c5 -19 10 -37 14 -56c6 -24 10 -49 16 -74c9 -36 18 -72 26 -108c11 -45 21 -91 32 -136c5 -22 12 -44 17 -66c5 -19 12 -57 17 -75c8 -26 12 -53 19 -79
c3 -15 -4 -32 -26 -32c-15 -1 -31 -1 -47 0c-15 0 -25 7 -29 21c-6 17 -9 34 -14 51c-10 44 -25 107 -36 151s-22 89 -32 134c-11 44 -22 89 -32 133c-8 32 -15 65 -23 97c-5 21 -10 43 -14 64c-2 11 -3 22 -4 31z" />
    <glyph glyph-name="hyphen" unicode="-" horiz-adv-x="316" 
d="M56 400c26 1 53 2 80 2c15 1 29 -2 44 -2c20 0 41 1 62 1c6 1 13 -1 19 -2c12 -6 15 -17 15 -28c1 -14 1 -29 0 -43c0 -11 -3 -22 -15 -29h-18c-12 -1 -25 -1 -38 -2h-8c-40 0 -80 -1 -120 -1c-25 0 -39 14 -39 39v34s4 23 18 31z" />
    <glyph glyph-name="endash" unicode="&#x2013;" horiz-adv-x="422" 
d="M49 305c-6 8 -8 17 -8 27c1 15 0 30 0 45s6 22 21 26c2 1 5 1 7 1h74c10 0 20 1 29 0c25 0 50 -2 74 -2c19 0 39 2 58 2c16 1 33 -3 49 0c10 2 10 0 21 -6c9 -11 6 -24 5 -37c-1 -10 -3 -20 -1 -30c2 -12 -2 -22 -13 -29c-18 -3 -37 -3 -56 -2c-34 1 -68 -1 -102 -2
c-20 0 -40 -1 -60 1c-9 1 -18 -1 -27 -1h-47c-11 0 -11 0 -24 7z" />
    <glyph glyph-name="emdash" unicode="&#x2014;" horiz-adv-x="516" 
d="M458 409c5 -4 8 -7 13 -11c0 -7 -1 -14 0 -22c0 -12 1 -24 2 -36c1 -13 2 -25 -14 -35h-21c-14 -1 -29 -1 -43 -2c-4 0 -8 -1 -11 0c-38 4 -76 -3 -114 0c-11 0 -21 1 -32 2c-5 0 -10 1 -14 0c-35 -5 -70 -1 -105 -2c-10 0 -20 2 -30 2s-20 -2 -32 -3c-5 5 -11 10 -16 15
c1 28 3 54 4 80c9 12 22 12 35 11c15 -1 30 -1 45 -1c10 0 20 2 30 2c8 0 16 -1 24 -2h8c20 0 41 1 61 1c24 1 47 1 71 1h139z" />
    <glyph glyph-name="plus" unicode="+" horiz-adv-x="422" 
d="M263 193c-8 -9 -15 -11 -23 -11c-16 -1 -32 -3 -48 -3c-12 -1 -22 3 -28 13c-4 7 -7 17 -8 25c-1 13 0 26 0 39c0 8 -2 16 -3 23c-2 9 -8 15 -16 17c-9 3 -19 4 -28 4c-11 0 -23 -1 -34 -2c-15 -1 -27 5 -35 20v58c1 15 10 24 25 25l60 3c24 2 32 12 35 35
c2 18 -2 36 -1 54c1 16 4 20 18 24c14 5 28 3 42 2c10 0 20 -2 32 -3c3 -2 7 -6 10 -8c6 -24 5 -47 4 -70c0 -10 2 -18 8 -26c9 -9 21 -8 33 -8c14 0 28 0 42 1c12 0 22 -3 31 -18c0 -5 2 -14 3 -24v-37c-1 -19 -10 -28 -29 -28c-8 0 -16 1 -24 2c-14 2 -28 0 -42 -3
c-13 -3 -21 -16 -21 -32c-1 -12 0 -25 -1 -37c0 -12 -2 -23 -2 -35z" />
    <glyph glyph-name="parenleft" unicode="(" horiz-adv-x="309" 
d="M259 19c-3 -2 -6 -5 -9 -7c-23 0 -46 -1 -69 0c-19 0 -35 8 -46 23c-5 6 -10 13 -13 20c-15 34 -33 68 -42 105c-7 32 -15 64 -23 96c0 2 -1 5 -1 8c-2 21 -5 43 -6 65c-2 30 -3 60 -3 90c0 27 3 54 6 80c4 29 11 57 16 86c10 50 28 97 49 143c6 12 12 24 23 34
c8 9 18 14 31 14c23 0 46 2 69 3c9 0 17 -2 21 -15c-3 -7 -7 -17 -12 -25c-28 -41 -42 -88 -55 -135c-4 -12 -9 -25 -11 -38c-4 -26 -13 -51 -12 -78c0 -9 -2 -18 -3 -27c-5 -38 -4 -75 -1 -113c1 -1 1 -3 1 -4c-1 -27 6 -53 9 -80c3 -29 9 -58 18 -85
c14 -46 31 -92 57 -133c5 -8 9 -16 6 -27z" />
    <glyph glyph-name="parenright" unicode=")" horiz-adv-x="309" 
d="M47 765c3 4 5 6 7 9c11 5 21 5 32 3c5 -1 11 0 16 1c13 0 26 2 38 0c19 -3 32 -15 42 -31c16 -25 26 -54 36 -82c10 -29 20 -57 25 -87c3 -16 6 -32 8 -47l9 -57c1 -4 1 -9 1 -13c0 -30 1 -60 0 -90c-1 -27 -4 -53 -6 -80c-2 -41 -13 -79 -23 -119
c-8 -30 -17 -61 -30 -90c-7 -15 -16 -29 -24 -43c-10 -17 -26 -26 -45 -27c-22 -1 -44 0 -66 0c-11 0 -14 3 -20 15c3 6 7 12 10 19c22 37 39 76 51 118c8 27 15 54 21 81c5 19 6 39 9 58c7 38 3 75 5 113c2 24 -2 49 -5 73c-4 39 -11 77 -22 114c-13 51 -33 98 -60 143
c-3 6 -6 13 -9 19z" />
    <glyph glyph-name="asterisk" unicode="*" horiz-adv-x="336" 
d="M113 850c13 -3 21 -11 27 -22c6 -12 12 -24 28 -27c14 3 23 13 31 25c6 10 12 21 26 24c17 -7 33 -15 40 -35c-2 -12 -11 -24 -5 -39c9 -10 28 -6 34 -26c0 -10 4 -25 -5 -40c-5 -2 -11 -4 -16 -5c-16 -4 -19 -10 -15 -25c3 -8 4 -17 5 -27c-7 -7 -13 -14 -20 -20
c-12 -11 -25 -9 -36 4c-3 4 -6 9 -10 14c-1 3 -3 6 -5 8c-15 22 -33 22 -48 -1c-3 -4 -5 -9 -8 -14c-5 -9 -11 -17 -22 -19c-12 3 -22 10 -31 18c-9 9 -10 18 -8 29c2 8 3 16 4 22c-9 14 -28 11 -36 27c-2 8 -3 18 -1 29c3 10 8 16 17 19c6 2 12 5 18 7c2 9 2 18 -1 26
c-5 12 -1 22 8 30c8 8 18 15 29 18z" />
    <glyph glyph-name="numbersign" unicode="#" horiz-adv-x="660" 
d="M125 74c-7 9 -7 16 -4 24c7 21 14 42 19 63c3 10 4 20 5 28c-7 15 -17 19 -30 19l-48 3c-11 1 -16 6 -16 18c0 21 5 40 16 58c4 3 9 5 14 8h67c24 0 38 11 45 34l9 27c1 4 3 8 3 12c1 7 1 14 1 20c-7 12 -16 16 -28 17c-23 1 -45 2 -68 3c-16 0 -21 5 -20 21
c1 18 6 36 15 52c3 4 8 7 13 12c24 -1 48 -3 72 -3c12 0 24 0 36 3c13 3 22 13 27 27c7 21 13 42 20 63c3 9 7 18 10 27c5 16 18 22 33 23c11 1 22 0 34 1c6 0 11 -2 16 -8c5 -14 -1 -27 -5 -41c-6 -20 -12 -39 -18 -59c-6 -19 3 -31 22 -35c13 -2 25 -1 38 1
c14 2 23 12 28 24c7 19 13 38 19 58c5 12 9 25 13 37c6 15 19 22 34 22c10 1 21 1 31 1c8 0 14 -4 18 -10c3 -11 0 -21 -3 -30c-7 -21 -13 -42 -20 -63c-3 -11 -2 -21 5 -31c9 -6 21 -7 33 -8c11 -1 23 2 34 -3c5 -3 9 -5 14 -8c-1 -22 -6 -41 -14 -60
c-5 -12 -16 -15 -27 -16c-13 -1 -25 1 -37 2c-26 0 -46 -7 -55 -32c-4 -11 -9 -22 -12 -33c-2 -9 -3 -19 -5 -26c6 -14 14 -20 26 -21c14 -1 28 -2 42 -2c11 -1 21 0 28 0c11 -6 14 -12 13 -20c-2 -14 -5 -28 -8 -42c-3 -11 -11 -18 -23 -20l-27 -3c-15 0 -31 1 -46 0
c-9 0 -19 -1 -27 -4c-14 -4 -21 -15 -25 -29c-8 -23 -15 -45 -23 -68c-1 -4 -2 -8 -4 -12c-6 -11 -3 -14 -20 -21c-13 -1 -24 -3 -35 -4c-17 -1 -25 4 -31 22c6 21 12 42 20 63c4 11 7 22 5 35c-5 18 -21 19 -37 20c-8 1 -17 -1 -25 -3c-14 -4 -23 -13 -28 -26
c-7 -23 -15 -46 -22 -68c-2 -7 -4 -13 -7 -20c-4 -13 -14 -21 -28 -22c-12 -1 -25 -2 -37 -1c-5 0 -10 3 -15 4zM323 294v1h6c22 -2 35 10 42 29c2 4 4 7 4 11c4 14 9 29 11 44c1 15 -10 25 -25 26h-24c-20 -2 -36 -8 -42 -30c-4 -16 -11 -32 -15 -49c-4 -16 7 -29 24 -31
c6 -1 12 -1 19 -1z" />
    <glyph glyph-name="semicolon" unicode=";" horiz-adv-x="190" 
d="M83 -49c-5 4 -11 7 -16 10c-3 10 -1 16 3 23c10 17 8 27 -7 38c-31 22 -39 78 2 103c32 19 76 1 84 -36c4 -15 5 -30 1 -45c-7 -24 -15 -48 -30 -68c-9 -13 -20 -20 -37 -25zM150 418c-1 -8 0 -15 -2 -23c-6 -24 -24 -36 -47 -39c-21 -3 -39 7 -52 25c-25 36 -7 71 21 88
c12 8 39 11 59 -4c15 -13 24 -27 21 -47z" />
    <glyph glyph-name="colon" unicode=":" horiz-adv-x="190" 
d="M153 419c-2 -12 -2 -21 -4 -29c-7 -25 -36 -43 -61 -37c-4 0 -7 1 -10 1c-10 2 -18 6 -24 15c-4 7 -9 14 -12 22c-13 30 4 68 34 79c28 11 63 -6 73 -35c2 -6 3 -12 4 -16zM111 129c21 -10 35 -25 40 -48c4 -17 1 -34 -11 -47c-4 -5 -8 -9 -13 -13
c-27 -22 -64 -10 -77 15c-6 10 -10 21 -13 32c-1 7 1 16 3 23c7 22 28 37 51 38h20z" />
    <glyph glyph-name="Euro" unicode="&#x20ac;" horiz-adv-x="561" 
d="M512 71c-1 -13 -9 -20 -17 -26c-21 -15 -45 -26 -71 -30c-11 -2 -22 -3 -33 -4s-22 -2 -32 -3c-43 -1 -81 12 -116 35c-45 31 -74 73 -91 124c-6 17 -11 33 -16 50c-6 18 -17 29 -37 30c-12 1 -25 2 -38 4c-8 4 -13 11 -13 20c1 15 -5 32 13 44c7 1 15 2 24 3
c14 1 18 5 21 19c-4 9 -12 13 -23 13c-6 0 -12 1 -17 3c-11 4 -17 13 -18 24v21c1 9 3 17 13 23c10 1 22 2 34 3c19 1 28 8 34 28c4 17 8 35 13 52c8 29 19 57 36 81c23 34 52 61 89 79c18 10 38 15 58 15c18 1 36 2 55 3c9 0 19 -2 28 -4c29 -5 56 -13 81 -28
c8 -4 15 -9 20 -17c4 -8 5 -14 0 -21l-39 -63c-5 -8 -13 -10 -25 -8c-5 5 -12 11 -18 17c-22 19 -47 32 -77 30c-19 0 -34 -9 -46 -24c-25 -28 -35 -62 -43 -98c-1 -8 0 -17 0 -26c6 -12 16 -16 29 -16h55c8 0 17 -2 25 -3c11 -2 17 -8 21 -18c4 -12 1 -33 -8 -42
c-6 -8 -14 -11 -24 -11h-75c-14 0 -19 -4 -23 -19c3 -4 7 -9 11 -13c23 0 45 -1 67 0c17 1 29 -6 35 -23v-27c-6 -15 -18 -21 -34 -21c-13 0 -25 -1 -37 0c-11 1 -20 -2 -30 -8c-7 -9 -7 -20 -4 -30c6 -25 16 -48 31 -69c6 -8 13 -17 22 -22c18 -10 38 -13 58 -8
c21 5 40 14 56 27c10 8 10 7 27 6c21 -21 39 -45 49 -72z" />
    <glyph glyph-name="sterling" unicode="&#xa3;" horiz-adv-x="436" 
d="M299 358c-2 -16 4 -32 -5 -47c-5 -6 -12 -7 -19 -7h-58c-7 0 -14 -2 -22 -4c-2 -5 -5 -9 -5 -14c0 -17 1 -34 2 -51c0 -3 1 -6 0 -9c-1 -22 -1 -44 -3 -66c-1 -10 -4 -19 -6 -28c2 -10 6 -17 16 -20c11 -2 22 -3 33 -3c8 -1 16 2 24 2c21 -1 41 -2 61 -2c11 0 22 1 32 2
h10c16 -1 22 -5 30 -20v-53c0 -9 -2 -17 -12 -24c-8 -1 -19 -3 -29 -3c-21 0 -41 2 -61 2c-9 0 -17 -2 -26 -2h-119c-9 0 -17 2 -26 2c-5 0 -10 0 -16 -1c-13 -2 -26 -2 -39 2c-9 3 -17 11 -17 23c1 10 0 21 0 32c1 10 3 20 1 33c6 4 12 8 17 12c19 14 27 35 30 57
c6 34 6 69 1 104c-3 16 -10 25 -26 29c-7 2 -14 4 -19 12c-1 8 -2 17 -4 26c-1 14 3 26 16 32c13 7 18 18 18 32c1 9 -1 18 -3 27c0 5 -1 10 -2 15c-1 14 -1 27 -3 41c-1 16 3 32 7 48c7 33 18 63 39 90c14 18 34 30 53 41c32 19 68 24 103 19c33 -5 66 -15 90 -41
c5 -6 10 -11 16 -16c7 -7 12 -15 14 -25c-9 -27 -47 -89 -61 -98c-7 2 -11 7 -13 14c-3 10 -6 19 -10 27c-8 18 -19 33 -39 38c-14 4 -29 5 -44 1c-6 -2 -12 -6 -17 -11c-25 -23 -36 -52 -38 -86c-1 -29 1 -57 7 -86c1 -6 4 -13 6 -19c11 -7 22 -10 34 -10h56
c14 0 18 -2 26 -17z" />
    <glyph glyph-name="dollar" unicode="$" horiz-adv-x="456" 
d="M339 534c-13 -8 -16 -7 -25 2c-9 10 -19 20 -29 30c-11 10 -25 14 -40 11c-10 -5 -16 -14 -16 -25v-94c0 -17 7 -30 21 -40c20 -14 40 -29 60 -44c33 -25 62 -54 81 -91c11 -21 18 -43 21 -67c1 -9 -2 -19 -2 -28c1 -40 -13 -75 -38 -105c-26 -30 -57 -52 -96 -63
c-8 -2 -15 -4 -23 -6c-14 -6 -22 -16 -24 -31c-1 -6 -3 -13 -4 -21c-4 -2 -8 -6 -13 -11c-5 3 -10 5 -14 8c-2 8 -4 15 -4 22c-1 16 -9 25 -23 30l-39 9c-28 7 -53 20 -76 38l-5 5s-4 5 -5 8c-4 22 3 43 7 64c2 15 6 30 8 44c2 8 4 14 14 19c5 -4 12 -8 17 -13
c15 -16 33 -29 52 -39c5 -4 11 -6 17 -8c15 -5 30 3 32 18c2 10 1 20 2 30v8c-1 27 -2 55 -1 82c0 19 -8 33 -22 44c-16 14 -34 26 -50 40c-27 23 -50 50 -63 83c-5 13 -6 26 -11 39c-8 22 -7 45 -2 67c4 21 9 43 18 63c18 38 46 65 86 79c7 2 15 4 21 7c11 4 19 10 20 23
c0 5 2 10 5 19c3 3 9 8 14 12c13 -3 18 -9 19 -21c1 -5 2 -10 4 -15c2 -7 6 -14 14 -17c7 -2 15 -5 22 -8c13 -6 26 -11 40 -16c29 -13 39 -42 35 -70c0 -7 -1 -14 -2 -21c-1 -16 -2 -33 -3 -50zM239 150c18 -4 30 2 38 18c6 13 7 26 7 39c-1 25 -14 44 -38 51
c-15 -6 -17 -8 -17 -24v-56c0 -10 3 -19 10 -28zM181 558c-10 2 -16 -3 -19 -12c-7 -17 -5 -33 3 -49c3 -7 10 -10 17 -9s11 6 11 15c1 11 2 22 0 33c-1 8 -2 17 -12 22z" />
    <glyph glyph-name="yen" unicode="&#xa5;" 
d="M72 222c1 8 2 19 4 29c3 14 11 20 24 21c7 0 14 -1 21 0l36 3c3 5 5 9 7 12c-4 13 -12 17 -24 17h-51c-3 3 -8 7 -13 12c0 12 -1 24 0 36c0 11 7 18 18 20c4 1 9 3 14 3c11 1 20 5 27 18c-1 6 -1 14 -3 21c-16 51 -31 102 -49 151c-12 33 -20 66 -31 99c-2 6 -1 13 -2 18
l9 9c28 0 56 -1 84 0c22 2 39 -15 43 -35c9 -44 19 -88 30 -132c6 -21 10 -42 15 -63c2 -8 5 -14 12 -18c10 -1 15 3 17 11c4 13 6 25 9 37c8 35 16 70 24 104c5 23 10 46 16 68c4 18 10 24 28 25c30 1 60 3 88 4c6 -3 10 -5 14 -8c3 -8 2 -16 0 -24c-5 -18 -10 -36 -16 -53
c-5 -17 -11 -33 -17 -50c-9 -28 -17 -56 -27 -85c-6 -19 -13 -38 -19 -57c-2 -7 -3 -15 -4 -24c6 -6 12 -12 17 -16h28c4 -3 8 -7 13 -10c2 -14 4 -28 5 -42c-4 -6 -8 -11 -11 -15c-27 -3 -54 4 -76 -14v-13c4 -7 9 -9 16 -9c12 0 24 0 36 -1c6 0 13 -1 19 -3
c3 -1 8 -4 9 -8c6 -14 9 -29 4 -45c-3 -9 -8 -14 -18 -17h-56c-18 -1 -27 -10 -27 -28c0 -19 -1 -38 0 -57c1 -24 -3 -48 0 -72c1 -8 -1 -16 -7 -23c-8 -5 -18 -8 -28 -7c-14 1 -27 2 -40 2c-8 0 -16 -1 -24 -1c-7 0 -14 -1 -21 1c-10 3 -16 11 -15 22c0 39 1 79 2 119
c0 9 -1 18 -4 27c-3 10 -12 16 -24 17h-47c-15 0 -28 5 -35 24z" />
    <glyph glyph-name="cent" unicode="&#xa2;" horiz-adv-x="368" 
d="M223 204c10 -17 18 -20 35 -12c9 4 18 10 25 17c9 7 17 17 25 25c3 4 8 7 11 9c7 -3 10 -7 10 -13v-15c-1 -16 -3 -32 -3 -48s-7 -26 -20 -34c-16 -10 -33 -19 -52 -23c-9 -2 -17 -6 -24 -9c-9 -10 -8 -27 -24 -31c-9 1 -14 6 -17 15c-4 17 -17 26 -33 33
c-42 18 -69 50 -87 91c-13 31 -19 63 -26 95c-4 20 -3 40 -4 61c0 5 2 11 3 17c2 18 2 37 7 55c8 32 14 64 36 89c2 3 4 5 6 8c14 27 38 41 64 53c3 2 8 3 11 5c9 3 15 9 18 18c3 8 6 17 15 22h14c4 -5 9 -11 12 -17c5 -13 15 -19 28 -21c18 -3 35 -8 50 -20
c11 -9 12 -9 19 -25v-69l-8 -8c-3 2 -7 3 -9 5c-8 8 -15 16 -23 24c-10 9 -20 16 -34 16c-8 0 -14 -1 -19 -6c-5 -7 -7 -14 -7 -21c1 -21 2 -42 0 -63c-2 -20 1 -40 0 -59c-1 -23 -2 -45 -2 -68c0 -13 3 -27 2 -40c-2 -18 -1 -36 1 -56zM166 208c16 0 18 1 21 14
c2 8 3 15 3 23l-3 99v111c0 10 -1 18 -8 25c-17 2 -23 -2 -30 -17c-8 -18 -13 -37 -17 -57c-2 -11 -5 -23 -6 -34c-2 -40 1 -79 13 -117c5 -17 12 -35 27 -47z" />
    <glyph glyph-name="divide" unicode="&#xf7;" horiz-adv-x="354" 
d="M10 390c9 12 20 15 32 15h154c6 0 12 -1 18 -2h17c28 0 55 2 82 2c21 0 32 -12 33 -33c0 -14 -1 -28 -1 -42v-3c-3 -22 -6 -25 -28 -28c-16 -2 -32 0 -48 0c-29 1 -59 4 -88 2c-49 -4 -97 -1 -145 -2c-20 -1 -28 8 -29 28v43c1 7 2 14 3 20zM116 512c0 21 2 36 14 50
c17 20 45 22 67 11c23 -11 35 -40 31 -65c-5 -27 -22 -42 -46 -50c-6 -1 -12 -2 -17 -1c-30 6 -49 30 -49 55zM171 240c1 -1 4 -2 7 -2c33 -2 51 -37 49 -64c-1 -18 -6 -33 -20 -45c-8 -7 -17 -11 -28 -11c-8 0 -16 -1 -24 1c-26 8 -48 38 -40 67c4 15 7 29 20 39
c10 7 22 13 36 15z" />
    <glyph glyph-name="ellipsis" unicode="&#x2026;" horiz-adv-x="501" 
d="M419 129c21 -10 35 -25 40 -48c4 -17 1 -34 -11 -47c-4 -5 -8 -9 -13 -13c-27 -22 -64 -10 -77 15c-6 10 -10 21 -13 32c-1 7 1 16 3 23c7 22 28 37 51 38h20zM262 129c21 -10 35 -25 40 -48c4 -17 1 -34 -11 -47c-4 -5 -8 -9 -13 -13c-27 -22 -64 -10 -77 15
c-6 10 -10 21 -13 32c-1 7 1 16 3 23c7 22 28 37 51 38h20zM115 129c21 -10 35 -25 40 -48c4 -17 1 -34 -11 -47c-4 -5 -8 -9 -13 -13c-27 -22 -64 -10 -77 15c-6 10 -10 21 -13 32c-1 7 1 16 3 23c7 22 28 37 51 38h20z" />
    <glyph glyph-name="exclamdown" unicode="&#xa1;" horiz-adv-x="190" 
d="M55 524c7 12 18 16 31 15c13 -2 25 -2 37 -4c10 -1 16 -8 17 -18c4 -27 6 -54 2 -82c-1 -4 -1 -8 -1 -13c1 -24 2 -49 3 -73c0 -10 -1 -19 -1 -29c1 -24 1 -48 3 -72c3 -23 1 -47 1 -71c0 -3 -1 -6 -1 -9c0 -9 -1 -37 -1 -46c0 -20 1 -39 1 -59c0 -8 -1 -16 0 -24
c1 -12 3 -24 -6 -34c-2 -2 -4 -4 -7 -5c-20 -1 -40 -1 -59 -2c-4 0 -8 1 -12 2c-9 1 -16 7 -18 15c-2 9 -2 17 -2 26c0 10 1 20 2 30c1 46 -2 112 2 159c2 22 1 45 1 67c-1 54 0 107 4 161c0 4 1 8 1 12c1 8 2 16 0 23c-2 11 -1 21 3 31zM77 693c9 0 17 1 24 0
c21 -3 38 -12 45 -33c3 -8 5 -16 6 -25c0 -26 -13 -47 -37 -56c-8 -3 -18 -2 -26 -2c-23 2 -40 13 -48 35s-4 52 16 68c7 5 14 9 20 13z" />
    <glyph glyph-name="quotedblbase" unicode="&#x201e;" horiz-adv-x="325" 
d="M164 79c4 6 10 12 14 18c18 28 60 33 82 15c4 -3 7 -7 10 -11c12 -19 14 -39 11 -62c-5 -31 -18 -56 -37 -79c-5 -6 -11 -11 -17 -16h-20c-3 3 -7 6 -11 9v12c6 9 10 16 13 22c0 9 -5 15 -10 20c-7 8 -15 16 -22 25c-5 5 -6 6 -16 8c-8 -3 -10 -11 -13 -18
c-7 -14 -12 -28 -19 -41c-5 -9 -11 -16 -17 -24c-10 -10 -21 -16 -38 -13c-3 3 -6 8 -11 13c5 10 11 20 16 29c-1 12 -6 20 -15 25c-15 10 -22 26 -23 44v16c0 19 10 33 25 44c6 4 12 6 20 6h8c23 2 40 -8 51 -28c4 -6 8 -12 19 -14z" />
    <glyph glyph-name="quotedblright" unicode="&#x201d;" horiz-adv-x="325" 
d="M164 752c4 6 10 12 14 18c18 28 60 33 82 15c4 -3 7 -7 10 -11c12 -19 14 -39 11 -62c-5 -31 -18 -56 -37 -79c-5 -6 -11 -11 -17 -16h-20c-3 3 -7 6 -11 9v12c6 9 10 16 13 22c0 9 -5 15 -10 20c-7 8 -15 16 -22 25c-5 5 -6 6 -16 8c-8 -3 -10 -11 -13 -18
c-7 -14 -12 -28 -19 -41c-5 -9 -11 -16 -17 -24c-10 -10 -21 -16 -38 -13c-3 3 -6 8 -11 13c5 10 11 20 16 29c-1 12 -6 20 -15 25c-15 10 -22 26 -23 44v16c0 19 10 33 25 44c6 4 12 6 20 6h8c23 2 40 -8 51 -28c4 -6 8 -12 19 -14z" />
    <glyph glyph-name="quotedblleft" unicode="&#x201c;" horiz-adv-x="325" 
d="M119 792c3 -3 6 -8 10 -12c-3 -15 -20 -25 -10 -45c15 -12 26 -32 42 -46c9 5 11 13 13 20c2 4 2 9 4 13c7 27 23 48 45 64c14 10 18 10 33 0c4 -7 4 -13 -1 -19c-8 -9 -9 -19 -5 -31c5 -6 11 -11 18 -17c10 -10 17 -22 16 -37c-1 -9 1 -19 -1 -27
c-4 -15 -14 -27 -27 -34c-5 -3 -11 -4 -17 -5h-28c-16 5 -27 15 -34 29c-3 7 -8 13 -16 17c-5 -6 -10 -12 -13 -18c-19 -35 -62 -36 -88 -14c-8 5 -12 13 -15 22c-7 17 -5 35 -3 53c5 29 19 54 40 75c9 10 20 16 37 12z" />
    <glyph glyph-name="quoteright" unicode="&#x2019;" horiz-adv-x="190" 
d="M79 618c-4 3 -8 6 -10 8c-5 8 -2 14 1 21c10 18 9 25 -7 38c-35 27 -30 73 -5 96c24 22 48 21 72 3c14 -10 21 -25 21 -43c0 -39 -10 -74 -33 -106c-9 -12 -21 -19 -39 -17z" />
    <glyph glyph-name="quoteleft" unicode="&#x2018;" horiz-adv-x="190" 
d="M117 795l7 -7c2 -17 -12 -25 -12 -37c1 -10 8 -16 14 -22s13 -12 17 -20c16 -29 10 -78 -34 -91c-9 -2 -18 -2 -26 -3c-7 4 -12 7 -18 10c-11 5 -17 14 -21 25c-6 19 -8 37 -4 57c5 31 19 57 42 78c9 8 18 14 35 10z" />
    <glyph glyph-name="quotesinglbase" unicode="&#x201a;" horiz-adv-x="190" 
d="M94 128c26 0 40 -12 51 -31c2 -4 5 -9 5 -14c4 -24 2 -48 -6 -71c-8 -21 -18 -41 -36 -56c-1 -1 -3 -3 -5 -4c-14 -8 -25 -5 -33 12c2 4 4 9 6 14c7 15 4 25 -9 35c-6 6 -11 11 -16 17c-25 33 -11 67 16 86c4 4 10 7 15 9s10 2 12 3z" />
    <glyph glyph-name="Oslash" unicode="&#xd8;" horiz-adv-x="531" 
d="M200 -76c-15 2 -31 -4 -44 5c-9 12 -5 22 -3 33c4 16 8 31 9 47c0 15 -4 28 -14 36c-37 31 -55 73 -72 116c-14 32 -22 66 -24 101c-2 18 -6 35 -7 53c-2 21 -4 44 -2 65c2 34 6 67 12 100c10 45 23 89 47 130c17 28 41 49 68 67c19 13 42 20 65 24c10 2 20 3 30 3
c6 1 13 -1 19 -2c16 -2 30 -1 40 13c4 6 7 13 8 21c1 13 7 22 19 30c11 0 23 1 35 0s17 -6 17 -18c0 -6 -1 -12 -2 -18c-3 -18 -8 -36 -8 -55c0 -14 4 -27 14 -36c18 -19 29 -42 40 -65c17 -36 26 -74 33 -112c3 -18 3 -37 4 -55c1 -28 2 -55 3 -83c1 -24 -2 -48 -6 -72
c-6 -31 -12 -61 -20 -92c-8 -29 -22 -56 -40 -80c-11 -14 -23 -27 -36 -39c-19 -18 -43 -26 -67 -33c-17 -4 -33 -7 -51 -6c-21 1 -31 -6 -38 -27c-3 -8 -5 -16 -7 -24c-3 -12 -8 -22 -22 -27zM284 599c-16 11 -42 7 -54 -8c-16 -18 -27 -38 -33 -61c-5 -21 -8 -43 -11 -66
c-2 -21 -6 -43 -5 -65c0 -4 -1 -9 -2 -14c-4 -19 -3 -37 -1 -56c1 -7 3 -14 3 -22c-1 -20 0 -40 3 -60c1 -6 3 -12 5 -17c3 -8 9 -11 15 -9c14 9 15 23 18 35c12 50 22 101 34 151c11 48 23 95 33 142c4 17 7 34 -5 50zM282 112c12 2 20 9 26 19l21 42c6 14 6 31 11 45
c9 29 9 60 11 90s0 61 0 93c-3 4 -6 9 -10 13c-11 -3 -13 -11 -15 -18c-7 -25 -14 -49 -20 -74c-5 -25 -10 -50 -15 -74c-8 -34 -16 -67 -23 -101c-2 -10 -5 -21 3 -31c3 -1 7 -2 11 -4z" />
    <glyph glyph-name="thorn" unicode="&#xfe;" horiz-adv-x="442" 
d="M179 133c-6 -7 -7 -14 -7 -22c0 -13 -2 -26 -2 -39c0 -3 1 -7 1 -11c3 -23 -9 -38 -33 -39c-23 -1 -47 -1 -70 0c-6 0 -11 3 -16 5c-6 9 -9 18 -9 28c1 21 2 41 3 61v13c-4 23 -3 46 -1 69c1 9 -2 19 -2 29c2 48 -1 97 0 146c1 9 2 19 3 29c0 8 -1 16 -1 24
c-1 9 -2 19 -1 28c4 33 2 65 0 97c-1 21 0 42 1 62v15c-3 20 -2 40 2 60c2 12 11 19 26 20c9 1 18 0 27 0c14 -1 28 -3 42 -3c19 1 28 -6 27 -28v-55c1 -8 2 -17 3 -25c2 -10 9 -18 19 -20c9 -2 18 -4 27 -4c41 -3 80 -13 113 -39c29 -24 50 -54 58 -93c4 -20 6 -40 6 -60
c0 -9 2 -17 3 -26c1 -19 -1 -38 -6 -57c-1 -5 0 -10 -1 -16c-7 -33 -22 -63 -46 -88c-7 -8 -17 -14 -26 -20c-12 -6 -25 -11 -37 -17c-21 -10 -45 -11 -68 -13c-13 -1 -24 -5 -35 -11zM173 345h-1v-55c0 -10 6 -19 16 -22c20 -7 41 -6 59 7c17 13 24 31 25 51
c1 17 1 34 0 50c-1 14 -1 28 -4 42c-2 11 -7 22 -15 31c-14 15 -31 18 -51 18c-14 -1 -25 -9 -28 -22c-3 -11 -4 -23 -4 -34c0 -22 2 -44 3 -66z" />
    <glyph glyph-name="germandbls" unicode="&#xdf;" horiz-adv-x="459" 
d="M144 33c-6 -18 -19 -21 -34 -21c-20 0 -41 2 -61 3c-16 6 -18 21 -17 33c3 25 -2 50 -1 75s0 50 0 74c1 11 2 23 3 34v6c-4 28 0 56 0 84c0 19 -2 38 -2 58s4 41 2 62c-3 30 -4 59 -2 88c3 47 14 92 42 131c20 28 49 43 83 48c18 3 36 3 55 3c27 -1 53 -8 78 -20
c41 -20 65 -53 74 -96c3 -13 3 -27 2 -40c-2 -28 -9 -55 -21 -81c-5 -10 -9 -20 -13 -31c-11 -33 -7 -62 19 -86c19 -18 35 -37 48 -60c14 -23 21 -47 26 -73c4 -27 3 -53 0 -80c-3 -29 -13 -54 -30 -78c-10 -14 -23 -27 -39 -37c-31 -18 -65 -27 -100 -36
c-8 -3 -17 -3 -25 -4c-16 -2 -24 2 -36 16c-1 16 -2 33 -2 50c-1 22 11 37 33 43c9 3 18 5 27 7c20 5 35 17 47 32c13 17 16 37 14 58c-2 24 -15 44 -30 62c-19 23 -37 47 -52 73c-6 13 -11 27 -10 42c0 2 0 4 -1 6c-7 21 -1 41 7 61c7 20 14 40 20 60c7 24 9 48 2 72
c-6 20 -25 34 -45 34c-8 0 -15 -3 -20 -7c-18 -15 -32 -31 -34 -54c-1 -10 -3 -19 -4 -29c0 -36 1 -73 0 -109c-1 -39 1 -77 0 -116v-116c0 -8 -1 -15 -2 -22c0 -6 -1 -11 0 -16c6 -35 -3 -70 -1 -103z" />
    <glyph glyph-name="questiondown" unicode="&#xbf;" horiz-adv-x="392" 
d="M277 531l14 -14c8 -25 2 -48 -2 -70c-7 -41 -28 -74 -55 -104c-25 -27 -48 -55 -68 -86c-19 -29 -24 -60 -19 -95c3 -16 8 -30 19 -43c15 -17 43 -25 69 -11c26 16 46 36 61 62c3 6 6 13 9 19c3 4 6 8 8 12c8 0 11 -4 12 -9c7 -18 13 -37 19 -55c9 -24 6 -46 -11 -66
c-22 -25 -48 -44 -81 -52c-21 -4 -43 -6 -65 -4c-9 1 -18 1 -26 4c-49 15 -86 44 -104 95c-10 25 -14 51 -14 78c-1 16 3 33 7 49c8 32 24 61 44 88c13 17 28 33 43 49c21 24 44 45 62 72c9 14 15 30 17 47c1 14 4 19 14 29c15 1 30 3 47 5zM264 581h-24
c-22 1 -46 24 -47 46c0 13 -2 26 3 38c14 30 55 48 87 22c24 -19 29 -57 16 -77c-8 -13 -19 -23 -35 -29z" />
    <glyph glyph-name="underscore" unicode="_" horiz-adv-x="516" 
d="M458 2c5 -4 8 -7 13 -11c0 -7 -1 -14 0 -22c0 -12 1 -24 2 -36c1 -13 2 -25 -14 -35h-21c-14 -1 -29 -1 -43 -2c-4 0 -8 -1 -11 0c-38 4 -76 -3 -114 0c-11 0 -21 1 -32 2c-5 0 -10 1 -14 0c-35 -5 -70 -1 -105 -2c-10 0 -20 2 -30 2s-20 -2 -32 -3c-5 5 -11 10 -16 15
c1 28 3 54 4 80c9 12 22 12 35 11c15 -1 30 -1 45 -1c10 0 20 2 30 2c8 0 16 -1 24 -2h8c20 0 41 1 61 1c24 1 47 1 71 1h139z" />
    <glyph glyph-name="asciicircum" unicode="^" horiz-adv-x="512" 
d="M65 477c-2 2 -5 4 -9 8c1 5 1 11 4 16c2 5 6 9 9 13c17 24 35 48 52 72c16 22 31 44 47 66c8 11 16 22 25 33c7 9 17 14 29 14c13 0 26 2 39 2s27 0 41 -3c10 -1 17 -10 22 -17c39 -54 77 -108 115 -162c7 -8 12 -17 17 -25c-3 -14 -11 -17 -21 -17c-5 -1 -10 0 -15 0
c-8 0 -17 1 -25 0c-14 0 -27 3 -37 13c-9 9 -18 19 -25 29c-17 23 -34 46 -50 69c-7 10 -15 18 -28 20c-10 -2 -17 -7 -24 -16c-14 -21 -29 -41 -43 -61c-8 -11 -17 -22 -25 -34c-12 -16 -29 -19 -47 -20c-17 -1 -33 0 -51 0z" />
    <glyph glyph-name="OE" unicode="&#x152;" horiz-adv-x="742" 
d="M683 121c3 -3 7 -6 9 -9c0 -26 1 -50 0 -75c0 -16 -10 -25 -26 -25c-17 -1 -33 -1 -50 -1c-32 0 -65 0 -97 1c-8 0 -17 1 -25 2c-3 0 -7 1 -10 0c-29 -5 -58 -2 -87 -2c-30 0 -59 -3 -89 -8c-16 -3 -34 -3 -51 -1c-19 1 -38 3 -56 12c-28 12 -53 30 -72 54
c-23 28 -40 59 -50 94c-6 17 -12 35 -16 53c-5 22 -9 45 -12 67c-7 42 -3 85 -3 127c0 13 4 26 6 39c5 36 14 70 25 104c11 31 26 60 46 85c27 32 62 52 103 60c31 6 62 3 93 0c5 -1 10 -4 15 -5c14 -5 29 -8 44 -8c18 1 36 0 54 1c35 0 70 1 105 3c19 2 38 4 57 1
c9 -2 18 2 26 1c18 0 35 -1 53 -3c11 0 13 -2 21 -19c-1 -23 -2 -49 -3 -76c-4 -4 -7 -8 -9 -10c-6 0 -8 -1 -10 -1c-49 -1 -98 -3 -146 -3c-25 0 -33 -10 -35 -34c-2 -15 -3 -30 -1 -46c2 -17 1 -34 0 -51c-2 -32 17 -43 45 -42c22 0 44 0 66 2c18 2 34 -10 34 -33
c1 -19 0 -39 0 -60c-3 -5 -8 -10 -12 -16c-27 -4 -53 -5 -80 -2c-12 1 -24 -2 -36 -5c-11 -3 -17 -12 -17 -23c1 -37 -5 -74 -1 -111c3 -23 12 -31 38 -33c23 -2 45 -1 68 -1c14 0 28 1 42 0c13 0 27 -2 44 -3zM358 350c-2 34 -3 61 -4 89l-1 1c-5 29 -9 59 -16 88
c-5 21 -14 41 -27 59c-20 27 -68 23 -83 -3c-9 -16 -17 -32 -23 -49c-10 -31 -19 -62 -18 -95c0 -3 -1 -5 -1 -8c-1 -20 -3 -40 -4 -61c0 -16 1 -32 2 -48c0 -11 0 -21 1 -32c5 -31 9 -62 15 -93c5 -25 15 -49 28 -70c21 -33 57 -28 77 -7c4 4 7 9 10 14c14 20 21 43 27 66
c5 22 9 45 10 68c2 29 5 58 7 81z" />
    <glyph glyph-name="copyright" unicode="&#xa9;" horiz-adv-x="773" 
d="M392 686c47 -2 90 -9 131 -29c28 -14 55 -27 77 -48c15 -13 28 -28 42 -42c8 -10 17 -19 25 -30c22 -28 35 -61 45 -96c6 -22 11 -44 10 -67c0 -9 2 -18 3 -27c1 -28 -5 -55 -10 -83c-7 -42 -26 -78 -50 -112c-22 -31 -50 -57 -81 -80c-35 -25 -73 -43 -114 -54
c-13 -3 -25 -5 -38 -6c-18 -1 -35 -3 -53 -3c-16 0 -32 1 -48 4c-34 5 -66 17 -98 32c-30 15 -59 33 -82 57c-42 43 -75 91 -90 150c-6 21 -13 42 -13 64c0 6 1 12 2 19c0 4 1 8 1 11c-5 19 -3 38 0 57c6 36 18 69 35 101c18 31 38 61 64 88c6 6 13 12 20 18
c42 32 88 54 139 68c11 3 23 3 35 4c16 2 33 3 48 4zM647 344c2 23 0 45 -6 68c-6 25 -13 49 -28 70c-19 27 -38 53 -65 73c-23 17 -47 31 -74 40c-16 5 -33 9 -49 12c-12 2 -25 3 -37 3c-7 1 -15 -1 -22 -2c-15 -2 -30 -2 -44 -6c-57 -16 -105 -45 -143 -92
c-33 -42 -50 -90 -56 -142c-4 -29 -1 -60 8 -89c15 -54 43 -99 88 -134c27 -21 56 -39 89 -50c39 -13 79 -16 118 -9c41 7 79 21 113 46s63 55 81 93c18 37 32 76 27 119zM445 477h-13c-3 1 -8 4 -12 6c-10 7 -22 10 -34 10c-14 -1 -24 -6 -31 -17c-13 -19 -17 -40 -20 -62
c-6 -37 -4 -75 -3 -112c2 -29 9 -57 25 -82c10 -15 25 -21 43 -16c8 2 16 5 24 8c7 2 14 3 22 5c12 -18 27 -32 24 -54c-15 -17 -48 -32 -68 -32c-6 0 -12 1 -18 0c-32 -3 -57 13 -78 34c-17 17 -31 36 -36 61c-5 22 -14 44 -18 66c-3 18 -7 37 -2 56c0 1 1 3 0 5
c-4 14 -1 29 1 44c4 26 8 52 19 77c10 24 23 46 41 64c15 14 33 21 54 22c13 0 26 1 38 0c20 -1 39 -8 56 -19c12 -7 15 -21 8 -33c-6 -11 -9 -24 -22 -31z" />
    <glyph glyph-name="registered" unicode="&#xae;" horiz-adv-x="773" 
d="M390 690c31 0 61 -7 90 -15c18 -6 38 -11 55 -20c39 -21 74 -47 105 -80c35 -38 57 -83 74 -131c3 -10 4 -21 5 -32c3 -16 5 -32 6 -49c1 -8 1 -17 1 -26c-5 -68 -22 -131 -64 -187c-19 -25 -42 -46 -65 -67c-36 -33 -82 -49 -129 -63c-10 -3 -21 -3 -31 -5
c-13 -2 -25 -4 -38 -5c-9 -1 -17 -2 -26 -1c-35 5 -71 9 -105 22c-20 8 -39 17 -57 29c-1 2 -3 3 -5 4c-54 30 -92 75 -120 128c-14 28 -26 58 -33 89c-3 12 -3 24 -4 35c0 5 -2 10 -2 14v29c1 5 2 10 2 14c0 21 4 42 10 62c10 33 22 65 41 94c10 15 22 29 34 43
c10 12 21 23 32 33c27 27 59 44 94 58c30 13 61 20 94 23c12 1 24 3 36 4zM650 348c-1 12 -2 24 -4 37c-1 12 -3 24 -6 35c-14 52 -42 94 -81 128c-19 16 -38 30 -60 40l-15 6c-16 5 -31 12 -47 14c-27 3 -54 3 -80 4c-5 0 -9 0 -13 -2c-49 -13 -96 -29 -134 -66
c-27 -27 -48 -56 -64 -90c-12 -24 -19 -50 -22 -77c-2 -13 -3 -26 -2 -39c0 -10 3 -21 4 -31c7 -40 22 -77 45 -110c23 -31 51 -57 86 -76c38 -22 79 -35 124 -35c13 0 26 3 40 3c18 0 35 5 51 10c37 13 69 32 96 59c31 29 53 65 68 105c11 27 13 56 14 85zM487 163
c-2 -4 -4 -7 -6 -11c-18 -2 -35 -3 -53 -5c-10 4 -15 11 -19 21c-6 15 -14 30 -22 46c-4 8 -5 8 -17 13c-9 -5 -11 -13 -11 -23c-1 -13 0 -26 0 -39c-4 -12 -12 -16 -22 -17c-16 -1 -31 0 -47 0c-9 5 -12 14 -12 24v97v93c0 6 1 12 2 17c0 5 1 9 0 13c-4 31 -3 62 0 93
c1 4 0 9 -1 13c-1 13 -2 25 2 38c3 10 9 14 18 15c17 1 33 3 50 2c26 -1 52 -4 76 -15c27 -14 48 -33 56 -63c9 -33 13 -68 3 -102c-2 -6 -4 -12 -7 -18c-5 -12 -11 -23 -21 -31c-19 -16 -21 -35 -12 -56c13 -30 25 -60 37 -90zM364 476c-3 -7 -5 -11 -5 -16
c-1 -25 -1 -50 0 -75c0 -18 15 -26 31 -20c13 5 19 16 23 28c6 18 5 36 1 55c-3 15 -11 25 -27 32c-6 -1 -14 -2 -23 -4z" />
    <glyph glyph-name="fraction" unicode="&#x2044;" horiz-adv-x="348" 
d="M315 773c-1 -9 -2 -20 -4 -31c-4 -21 -9 -43 -14 -64c-8 -32 -49 -181 -57 -213c-10 -44 -17 -90 -28 -134c-10 -45 -21 -90 -32 -134s-21 -88 -31 -132c-5 -17 -8 -34 -14 -51c-4 -14 -14 -21 -29 -21c-16 -1 -32 -1 -47 0c-22 0 -29 17 -26 32c7 26 11 53 19 79
c5 18 7 37 12 56c5 22 12 44 17 66c11 45 21 91 32 136c8 36 17 72 26 108c6 25 40 167 46 191c4 19 9 37 14 56c4 15 8 31 11 46c2 10 7 17 18 24c6 1 16 3 25 2c11 -2 21 -2 32 0c12 2 22 0 30 -16z" />
    <glyph glyph-name="quotedbl" unicode="&#x22;" horiz-adv-x="307" 
d="M142 828c-3 -14 -10 -20 -20 -22c-12 -2 -25 -2 -36 5c-7 5 -9 13 -12 21c-4 15 -9 31 -12 47c-7 29 -13 58 -20 88c2 4 4 9 6 14c4 2 8 4 12 4c16 2 33 3 49 4c17 1 29 -6 37 -24c-7 -45 -5 -92 -4 -137zM264 967v-139c-3 -14 -14 -20 -30 -20c-22 0 -32 -3 -40 29
c-5 18 -8 37 -12 55c-6 25 -12 50 -19 78c3 4 7 10 11 15c20 2 38 3 55 4s29 -6 35 -22z" />
    <glyph glyph-name="quotesingle" unicode="'" horiz-adv-x="181" 
d="M40 976c5 6 10 11 15 16c17 0 32 1 48 0c27 -2 34 -12 37 -35c2 -11 0 -23 -1 -35c-1 -26 -7 -51 -2 -77c4 -18 1 -22 -12 -34h-29c-15 1 -22 7 -26 22c-2 8 -4 17 -6 26c-7 29 -14 59 -21 88c-2 9 -2 19 -3 29z" />
    <glyph glyph-name="multiply" unicode="&#xd7;" horiz-adv-x="341" 
d="M20 278l58 58c8 8 8 20 0 28l-57 57c-8 8 -8 20 0 28l50 50c4 4 9 6 14 6s10 -2 14 -6l57 -57c4 -4 9 -6 14 -6s10 2 14 6l57 57c4 4 9 6 14 6s10 -2 14 -6l50 -50c8 -8 8 -20 0 -28l-57 -57c-8 -8 -8 -20 0 -28l58 -58c8 -8 8 -20 0 -28l-50 -50c-4 -4 -9 -6 -14 -6
s-10 2 -14 6l-58 57c-4 4 -9 6 -14 6s-10 -2 -14 -6l-58 -57c-4 -4 -9 -6 -14 -6s-10 2 -14 6l-50 50c-8 8 -8 20 0 28z" />
    <glyph glyph-name="Lslash" unicode="&#x141;" horiz-adv-x="421" 
d="M421 114c6 -8 8 -17 7 -27v-39c0 -6 -2 -13 -3 -20c-2 -9 -9 -14 -19 -15c-13 -2 -27 -4 -41 -1c-5 1 -11 1 -16 0c-30 -5 -60 -2 -90 -2c-43 -1 -86 0 -129 0c-4 0 -8 -1 -11 0c-18 1 -29 12 -29 30c0 29 -3 58 2 87c1 9 1 18 0 27c-4 23 -3 45 0 68c2 17 0 34 -3 51
c-1 9 -6 16 -14 19c-24 6 -43 -7 -65 -12c-3 2 -7 4 -12 6c-1 5 -4 11 -4 16c-1 15 -1 29 -1 44c1 27 11 36 31 42c13 4 26 10 38 15c18 7 28 19 28 39v61c0 42 0 85 1 127c0 9 -1 17 -1 26c-2 13 3 23 16 30c29 6 60 3 91 3c3 1 5 -1 8 -2c13 -4 20 -13 20 -27
c0 -13 -3 -26 -2 -40c1 -19 -1 -39 0 -59c2 -24 0 -48 2 -72v-5c10 -16 18 -20 36 -15c10 3 19 6 29 9c4 2 9 4 13 5c6 1 11 0 16 0c10 -5 12 -14 12 -23c1 -16 1 -32 0 -49c0 -12 -6 -24 -19 -29c-12 -5 -25 -10 -38 -14c-7 -3 -13 -5 -20 -7c-20 -8 -29 -23 -29 -44
c0 -16 1 -33 0 -50c-1 -35 1 -71 0 -107v-7c3 -19 14 -30 34 -31c29 0 58 0 87 -1h29c5 -1 9 0 14 1c12 2 22 0 32 -8z" />
    <glyph glyph-name="lslash" unicode="&#x142;" horiz-adv-x="421" 
d="M226 703v-241l111 37v-111l-111 -37v-234h210v-117h-351v303l-100 -33v111l100 33v289h141z" />
    <glyph glyph-name="minus" unicode="&#x2212;" horiz-adv-x="422" 
d="M49 305c-6 8 -8 17 -8 27c1 15 0 30 0 45s6 22 21 26c2 1 5 1 7 1h74c10 0 20 1 29 0c25 0 50 -2 74 -2c19 0 39 2 58 2c16 1 33 -3 49 0c10 2 10 0 21 -6c9 -11 6 -24 5 -37c-1 -10 -3 -20 -1 -30c2 -12 -2 -22 -13 -29c-18 -3 -37 -3 -56 -2c-34 1 -68 -1 -102 -2
c-20 0 -40 -1 -60 1c-9 1 -18 -1 -27 -1h-47c-11 0 -11 0 -24 7z" />
    <glyph glyph-name="eth" unicode="&#xf0;" horiz-adv-x="474" 
d="M19 312c-13 18 -2 35 -3 51c4 8 11 12 20 13c23 1 33 9 34 32s4 47 2 70c-3 34 -1 68 -1 102c6 17 -2 34 -1 51c2 14 2 29 4 43c1 9 5 13 14 14c15 2 30 5 45 1h8c33 4 66 -2 100 0c55 4 98 -21 137 -57c13 -12 22 -27 31 -43c21 -39 34 -80 42 -124c2 -15 6 -29 9 -44
v-11c0 -35 1 -71 0 -106c0 -7 -2 -14 -3 -21c-5 -28 -7 -58 -16 -86c-12 -34 -24 -68 -45 -98c-18 -26 -42 -48 -70 -65c-22 -12 -45 -17 -70 -19c-23 -2 -46 -3 -69 -3c-32 -1 -64 0 -97 0l-12 6c-6 9 -8 19 -8 30c1 42 2 84 2 127c0 35 -1 70 -2 106c0 12 -8 21 -19 24
c-7 1 -13 2 -19 3c-5 1 -9 3 -13 4zM245 128c22 10 35 27 42 43c20 45 31 91 31 140c0 20 2 40 3 60c0 4 -1 8 -1 12c-2 17 -3 33 -5 50c-1 12 -2 24 -5 36c-5 21 -10 41 -18 61c-8 22 -21 40 -46 46c-23 5 -37 -6 -37 -29c0 -14 1 -28 0 -42c-3 -24 0 -49 0 -73v-25
c1 -13 6 -24 20 -29c1 -1 3 -2 4 -2c13 -6 19 -16 18 -30c-1 -10 -2 -21 -3 -27c-9 -16 -25 -15 -36 -25c-1 -4 -3 -11 -3 -17v-46c0 -12 -2 -24 -2 -35c0 -13 1 -26 2 -39c2 -11 3 -24 17 -29h19z" />
    <glyph glyph-name="currency" unicode="&#xa4;" horiz-adv-x="429" 
d="M375 240v-14c-10 -13 -21 -24 -36 -32h-14c-8 8 -16 16 -23 25c-9 10 -16 22 -32 27c-16 -1 -34 -1 -52 -5c-15 -2 -30 -2 -44 3c-15 4 -28 2 -38 -9l-27 -30c-9 -12 -17 -14 -30 -6c-6 3 -11 7 -16 11c-13 9 -14 12 -13 30c6 8 12 19 20 27c14 15 15 31 7 49
c-9 17 -15 36 -19 55c-2 9 -3 19 -1 29c3 23 8 47 19 68c10 19 6 35 -7 50c-6 8 -12 16 -17 25c-2 3 -2 7 -3 10c8 15 21 23 34 32c8 5 15 3 21 -2c6 -6 13 -12 17 -19c14 -24 36 -26 59 -21c23 6 45 4 68 0c10 -1 21 -1 32 0c8 0 14 5 18 11c6 8 11 15 17 22
c10 13 18 15 31 6c9 -5 17 -12 24 -18c10 -9 11 -17 3 -29c-7 -10 -15 -19 -23 -29c-9 -11 -9 -24 -5 -38c1 -4 3 -8 5 -13c11 -21 14 -43 15 -66c1 -21 -6 -40 -14 -59c-1 -3 -3 -6 -5 -8c-10 -18 -8 -35 5 -50c8 -11 16 -22 24 -32zM210 297c49 0 97 39 97 98
c0 49 -45 94 -95 93c-59 -2 -94 -46 -95 -88c-2 -68 46 -103 93 -103z" />
    <glyph glyph-name="guilsinglleft" unicode="&#x2039;" horiz-adv-x="303" 
d="M250 567c10 -5 14 -13 14 -23c-1 -19 -2 -39 -4 -58c-1 -12 -11 -21 -20 -28c-26 -18 -52 -35 -78 -53c-14 -10 -28 -19 -34 -36c3 -13 10 -21 21 -28c14 -9 26 -20 40 -29c13 -10 28 -18 41 -28c23 -16 35 -39 34 -68c-1 -11 -2 -23 -4 -34c0 -4 -3 -7 -4 -11h-14
c-28 19 -56 37 -83 56c-34 24 -67 49 -101 73c-14 9 -21 22 -20 39c1 23 2 45 4 67c0 7 4 14 8 19c4 6 10 11 16 15c19 14 39 27 58 40c24 18 48 36 72 53c15 11 30 21 45 31c2 1 6 2 9 3z" />
    <glyph glyph-name="guilsinglright" unicode="&#x203a;" horiz-adv-x="303" 
d="M47 166c-6 7 -8 13 -8 20c1 15 1 29 0 44c-1 17 6 30 19 39c18 13 36 26 54 38c16 12 33 24 49 36c14 12 15 24 2 36c-10 9 -22 17 -33 25c-24 17 -47 35 -71 52c-6 5 -11 11 -15 16c-2 27 -4 52 -5 77c3 3 5 6 7 8c9 4 14 -1 20 -5c23 -15 46 -31 69 -46
c32 -23 64 -44 95 -67c15 -11 30 -23 33 -42c2 -14 1 -28 1 -42c0 -5 -2 -10 -2 -16c3 -21 -9 -36 -24 -47l-102 -72c-22 -15 -43 -31 -65 -47c-7 -5 -14 -10 -24 -7z" />
    <glyph glyph-name="guillemotleft" unicode="&#xab;" horiz-adv-x="489" 
d="M438 166c-10 -3 -17 2 -24 7c-22 16 -43 32 -65 47l-102 72c-15 11 -27 26 -24 47c0 6 -2 11 -2 16c0 14 -1 28 1 42c3 19 18 31 33 42c31 23 63 44 95 67c23 15 46 31 69 46c6 4 11 9 20 5c2 -2 4 -5 7 -8c-1 -25 -3 -50 -5 -77c-4 -5 -9 -11 -15 -16
c-24 -17 -47 -35 -71 -52c-11 -8 -23 -16 -33 -25c-13 -12 -12 -24 2 -36c16 -12 33 -24 49 -36c18 -12 36 -25 54 -38c13 -9 20 -22 19 -39c-1 -15 -1 -29 0 -44c0 -7 -2 -13 -8 -20zM260 166c-10 -3 -17 2 -24 7c-22 16 -43 32 -65 47l-102 72c-15 11 -27 26 -24 47
c0 6 -2 11 -2 16c0 14 -1 28 1 42c3 19 18 31 33 42c31 23 63 44 95 67c23 15 46 31 69 46c6 4 11 9 20 5c2 -2 4 -5 7 -8c-1 -25 -3 -50 -5 -77c-4 -5 -9 -11 -15 -16c-24 -17 -47 -35 -71 -52c-11 -8 -23 -16 -33 -25c-13 -12 -12 -24 2 -36c16 -12 33 -24 49 -36
c18 -12 36 -25 54 -38c13 -9 20 -22 19 -39c-1 -15 -1 -29 0 -44c0 -7 -2 -13 -8 -20z" />
    <glyph glyph-name="guillemotright" unicode="&#xbb;" 
d="M52 166c-6 7 -8 13 -8 20c1 15 1 29 0 44c-1 17 6 30 19 39c18 13 36 26 54 38c16 12 33 24 49 36c14 12 15 24 2 36c-10 9 -22 17 -33 25c-24 17 -47 35 -71 52c-6 5 -11 11 -15 16c-2 27 -4 52 -5 77c3 3 5 6 7 8c9 4 14 -1 20 -5c23 -15 46 -31 69 -46
c32 -23 64 -44 95 -67c15 -11 30 -23 33 -42c2 -14 1 -28 1 -42c0 -5 -2 -10 -2 -16c3 -21 -9 -36 -24 -47l-102 -72c-22 -15 -43 -31 -65 -47c-7 -5 -14 -10 -24 -7zM230 166c-6 7 -8 13 -8 20c1 15 1 29 0 44c-1 17 6 30 19 39c18 13 36 26 54 38c16 12 33 24 49 36
c14 12 15 24 2 36c-10 9 -22 17 -33 25c-24 17 -47 35 -71 52c-6 5 -11 11 -15 16c-2 27 -4 52 -5 77c3 3 5 6 7 8c9 4 14 -1 20 -5c23 -15 46 -31 69 -46c32 -23 64 -44 95 -67c15 -11 30 -23 33 -42c2 -14 1 -28 1 -42c0 -5 -2 -10 -2 -16c3 -21 -9 -36 -24 -47l-102 -72
c-22 -15 -43 -31 -65 -47c-7 -5 -14 -10 -24 -7z" />
    <glyph glyph-name="A" unicode="A" horiz-adv-x="502" 
d="M453 14c-4 -5 -8 -9 -11 -13c-19 -3 -36 -5 -53 -2c-7 1 -16 -1 -23 -1c-6 0 -12 -1 -18 -1c-15 0 -29 11 -31 26c-1 9 -2 18 -3 26c-3 20 -17 33 -37 33c-16 1 -30 0 -45 0c-24 0 -38 -12 -42 -34c-2 -8 -3 -15 -4 -23c-2 -14 -7 -24 -25 -29c-30 1 -65 3 -99 4
c-9 3 -12 10 -14 16c4 26 8 49 13 74c4 26 10 54 15 81c5 29 10 58 15 88c2 13 5 28 7 42c4 25 8 52 12 78c2 13 6 26 8 38c4 15 6 30 9 45c2 9 3 18 5 27c6 31 12 62 15 93c0 9 4 17 5 25c4 16 8 33 10 50c2 13 7 22 21 29c8 1 17 1 27 1c21 1 41 3 62 3c14 0 28 -2 41 -4
s21 -11 24 -22c4 -14 7 -30 10 -45s6 -31 8 -48c2 -23 10 -47 12 -71c1 -20 6 -38 11 -56c4 -23 8 -45 12 -68c4 -28 7 -57 15 -84c4 -15 5 -29 7 -43c4 -21 7 -40 11 -59c5 -24 9 -46 13 -70c3 -19 8 -38 11 -58c3 -16 4 -32 6 -48zM250 384c-13 -7 -14 -20 -14 -31
c-2 -34 -10 -66 -15 -100c0 -5 -2 -11 -3 -16c-3 -37 16 -42 43 -40c12 1 21 9 24 21c2 15 0 28 -2 41c-4 23 -7 46 -12 68c-2 14 -4 27 -7 39c-2 7 -4 15 -14 18z" />
    <glyph glyph-name="G" unicode="G" horiz-adv-x="513" 
d="M433 630c4 -16 -1 -27 -6 -38l-12 -21c-7 -13 -13 -25 -20 -38c-4 -6 -8 -12 -11 -17c-10 -3 -15 0 -18 6c-2 4 -4 7 -5 10c-10 21 -26 37 -43 52c-22 20 -62 16 -80 -3c-16 -17 -28 -35 -35 -57s-16 -44 -18 -67c-1 -3 -1 -6 -2 -10l-3 -57l-3 -27c-4 -22 0 -44 1 -66
c1 -21 6 -42 8 -63c2 -19 6 -38 13 -56c7 -16 15 -33 23 -49c17 -36 68 -32 89 -5c14 16 19 36 23 56c3 11 4 23 5 34c2 17 -3 25 -18 33c-24 0 -24 0 -36 7c-8 9 -12 20 -12 33v51c4 16 16 21 30 20c16 -1 32 1 48 1c20 2 40 1 61 1c12 -1 24 -2 36 -4c11 -1 17 -8 19 -19
c6 -30 3 -60 2 -90c0 -16 -6 -32 -7 -48c-2 -22 -9 -43 -15 -64c-3 -11 -6 -21 -11 -31c-6 -12 -13 -24 -20 -35c-15 -24 -39 -38 -63 -51c-20 -11 -43 -15 -66 -16c-6 -1 -12 -3 -19 -3c-8 0 -18 1 -26 3c-28 5 -55 11 -77 29c-25 19 -48 41 -63 69c-6 13 -13 25 -19 37
s-11 23 -13 36c-4 16 -10 31 -13 47c-4 19 -6 38 -9 57c-2 14 -5 29 -6 43c-1 11 -1 22 -1 34c1 17 2 35 4 52c1 18 3 36 6 54c9 52 23 103 52 148c25 39 58 67 103 82c27 9 55 13 83 11c14 -1 29 -4 42 -9c19 -6 37 -13 55 -22c19 -9 34 -25 47 -40z" />
    <glyph glyph-name="M" unicode="M" horiz-adv-x="766" 
d="M714 18c-9 -16 -21 -17 -34 -17c-27 0 -53 1 -78 2c-6 3 -10 5 -14 8c-2 5 -6 10 -7 15c-3 14 -5 27 -7 41l-6 51c-3 19 -7 39 -10 58c-3 25 -6 50 -10 74c-2 12 -2 25 -16 31c-13 -3 -15 -13 -18 -23c-6 -20 -10 -41 -14 -62c-9 -43 -23 -86 -34 -129
c-3 -12 -5 -25 -8 -37c-1 -6 -4 -11 -6 -16c-4 -9 -11 -13 -21 -13c-31 0 -62 -1 -93 0c-15 0 -24 8 -28 23c-10 39 -19 79 -29 118s-19 78 -29 117c-1 4 -3 9 -6 13c-2 5 -7 8 -13 5c-7 -5 -8 -13 -10 -21c-4 -20 -8 -40 -11 -61c-3 -19 -5 -39 -8 -58l-12 -72
c-2 -11 -3 -23 -4 -34c-2 -18 -11 -28 -29 -30c-9 -1 -19 -1 -28 0c-16 3 -33 3 -49 0c-13 -2 -18 0 -29 11c-2 11 -1 23 2 36c4 21 7 43 10 64s7 41 9 62c1 28 9 55 13 83c2 13 3 26 4 38l3 21c2 13 4 27 7 41c2 14 4 28 7 42c3 19 6 37 9 55c4 26 6 52 12 77
c4 19 5 38 7 57l3 21c2 13 5 27 7 41c1 12 6 22 20 28c22 1 45 2 68 3c20 0 35 -4 47 -11c9 -14 14 -29 17 -47c2 -20 8 -40 13 -60c6 -30 12 -59 18 -89c6 -23 11 -45 16 -68c7 -31 13 -62 20 -93c4 -18 7 -22 18 -31c12 1 15 10 17 19c10 46 21 92 30 138
c6 33 15 64 23 96c6 28 12 57 18 85c3 12 6 23 10 34c6 21 15 27 36 27h73c19 0 30 -11 33 -30c2 -15 5 -31 7 -46c2 -11 4 -23 6 -34c2 -18 5 -36 7 -54c3 -19 6 -39 9 -58c2 -16 5 -32 7 -48c3 -19 6 -37 9 -56c4 -31 8 -63 12 -94c5 -30 9 -61 14 -91
c5 -37 11 -74 16 -111c2 -14 3 -28 4 -41z" />
    <glyph glyph-name="uni00A0" unicode="&#xa0;" horiz-adv-x="313" 
 />
    <glyph glyph-name="brokenbar" unicode="&#xa6;" horiz-adv-x="382" 
 />
    <glyph glyph-name="section" unicode="&#xa7;" horiz-adv-x="546" 
 />
    <glyph glyph-name="logicalnot" unicode="&#xac;" horiz-adv-x="728" 
 />
    <glyph glyph-name="uni00AD" unicode="&#xad;" horiz-adv-x="422" 
d="M49 305c-6 8 -8 17 -8 27c1 15 0 30 0 45s6 22 21 26c2 1 5 1 7 1h74c10 0 20 1 29 0c25 0 50 -2 74 -2c19 0 39 2 58 2c16 1 33 -3 49 0c10 2 10 0 21 -6c9 -11 6 -24 5 -37c-1 -10 -3 -20 -1 -30c2 -12 -2 -22 -13 -29c-18 -3 -37 -3 -56 -2c-34 1 -68 -1 -102 -2
c-20 0 -40 -1 -60 1c-9 1 -18 -1 -27 -1h-47c-11 0 -11 0 -24 7z" />
    <glyph glyph-name="Agrave" unicode="&#xc0;" 
d="M448 14c-4 -5 -8 -9 -11 -13c-19 -3 -36 -5 -53 -2c-7 1 -16 -1 -23 -1c-6 0 -12 -1 -18 -1c-15 0 -29 11 -31 26c-1 9 -2 18 -3 26c-3 20 -17 33 -37 33c-16 1 -30 0 -45 0c-24 0 -38 -12 -42 -34c-2 -8 -3 -15 -4 -23c-2 -14 -7 -24 -25 -29c-30 1 -65 3 -99 4
c-9 3 -12 10 -14 16c4 26 8 49 13 74c4 26 10 54 15 81c5 29 10 58 15 88c2 13 5 28 7 42c4 25 8 52 12 78c2 13 6 26 8 38c4 15 6 30 9 45c2 9 3 18 5 27c6 31 12 62 15 93c0 9 4 17 5 25c4 16 8 33 10 50c2 13 7 22 21 29c8 1 17 1 27 1c21 1 41 3 62 3c14 0 28 -2 41 -4
s21 -11 24 -22c4 -14 7 -30 10 -45s6 -31 8 -48c2 -23 10 -47 12 -71c1 -20 6 -38 11 -56c4 -23 8 -45 12 -68c4 -28 7 -57 15 -84c4 -15 5 -29 7 -43c4 -21 7 -40 11 -59c5 -24 9 -46 13 -70c3 -19 8 -38 11 -58c3 -16 4 -32 6 -48zM245 384c-13 -7 -14 -20 -14 -31
c-2 -34 -10 -66 -15 -100c0 -5 -2 -11 -3 -16c-3 -37 16 -42 43 -40c12 1 21 9 24 21c2 15 0 28 -2 41c-4 23 -7 46 -12 68c-2 14 -4 27 -7 39c-2 7 -4 15 -14 18zM117 924c4 5 7 8 10 11h71c11 0 18 -7 22 -16c4 -10 7 -20 10 -30c13 -41 26 -82 40 -124
c-3 -4 -7 -9 -10 -14h-21c-17 0 -30 7 -39 23c-17 31 -36 63 -53 94c-10 18 -20 37 -30 56z" />
    <glyph glyph-name="Aacute" unicode="&#xc1;" 
d="M448 14c-4 -5 -8 -9 -11 -13c-19 -3 -36 -5 -53 -2c-7 1 -16 -1 -23 -1c-6 0 -12 -1 -18 -1c-15 0 -29 11 -31 26c-1 9 -2 18 -3 26c-3 20 -17 33 -37 33c-16 1 -30 0 -45 0c-24 0 -38 -12 -42 -34c-2 -8 -3 -15 -4 -23c-2 -14 -7 -24 -25 -29c-30 1 -65 3 -99 4
c-9 3 -12 10 -14 16c4 26 8 49 13 74c4 26 10 54 15 81c5 29 10 58 15 88c2 13 5 28 7 42c4 25 8 52 12 78c2 13 6 26 8 38c4 15 6 30 9 45c2 9 3 18 5 27c6 31 12 62 15 93c0 9 4 17 5 25c4 16 8 33 10 50c2 13 7 22 21 29c8 1 17 1 27 1c21 1 41 3 62 3c14 0 28 -2 41 -4
s21 -11 24 -22c4 -14 7 -30 10 -45s6 -31 8 -48c2 -23 10 -47 12 -71c1 -20 6 -38 11 -56c4 -23 8 -45 12 -68c4 -28 7 -57 15 -84c4 -15 5 -29 7 -43c4 -21 7 -40 11 -59c5 -24 9 -46 13 -70c3 -19 8 -38 11 -58c3 -16 4 -32 6 -48zM245 384c-13 -7 -14 -20 -14 -31
c-2 -34 -10 -66 -15 -100c0 -5 -2 -11 -3 -16c-3 -37 16 -42 43 -40c12 1 21 9 24 21c2 15 0 28 -2 41c-4 23 -7 46 -12 68c-2 14 -4 27 -7 39c-2 7 -4 15 -14 18zM251 754h-32c-3 2 -5 4 -9 7c1 6 0 12 2 17c7 25 15 50 23 74c4 13 8 25 10 37c3 10 8 17 17 23h23
c10 0 20 1 30 2c9 1 17 1 23 -7c4 -10 -3 -16 -7 -23c-20 -37 -40 -73 -60 -109c-5 -8 -9 -16 -20 -21z" />
    <glyph glyph-name="Acircumflex" unicode="&#xc2;" 
d="M448 14c-4 -5 -8 -9 -11 -13c-19 -3 -36 -5 -53 -2c-7 1 -16 -1 -23 -1c-6 0 -12 -1 -18 -1c-15 0 -29 11 -31 26c-1 9 -2 18 -3 26c-3 20 -17 33 -37 33c-16 1 -30 0 -45 0c-24 0 -38 -12 -42 -34c-2 -8 -3 -15 -4 -23c-2 -14 -7 -24 -25 -29c-30 1 -65 3 -99 4
c-9 3 -12 10 -14 16c4 26 8 49 13 74c4 26 10 54 15 81c5 29 10 58 15 88c2 13 5 28 7 42c4 25 8 52 12 78c2 13 6 26 8 38c4 15 6 30 9 45c2 9 3 18 5 27c6 31 12 62 15 93c0 9 4 17 5 25c4 16 8 33 10 50c2 13 7 22 21 29c8 1 17 1 27 1c21 1 41 3 62 3c14 0 28 -2 41 -4
s21 -11 24 -22c4 -14 7 -30 10 -45s6 -31 8 -48c2 -23 10 -47 12 -71c1 -20 6 -38 11 -56c4 -23 8 -45 12 -68c4 -28 7 -57 15 -84c4 -15 5 -29 7 -43c4 -21 7 -40 11 -59c5 -24 9 -46 13 -70c3 -19 8 -38 11 -58c3 -16 4 -32 6 -48zM245 384c-13 -7 -14 -20 -14 -31
c-2 -34 -10 -66 -15 -100c0 -5 -2 -11 -3 -16c-3 -37 16 -42 43 -40c12 1 21 9 24 21c2 15 0 28 -2 41c-4 23 -7 46 -12 68c-2 14 -4 27 -7 39c-2 7 -4 15 -14 18zM373 753c-10 -15 -22 -10 -33 -10c-6 0 -12 1 -17 3c-6 2 -13 5 -18 10c-13 15 -26 30 -39 46
c-3 3 -4 6 -7 9c-4 3 -8 5 -12 8h-19c-10 -4 -17 -13 -24 -22c-6 -8 -13 -18 -19 -27c-17 -23 -46 -29 -70 -24c-2 0 -3 0 -4 1c-2 2 -4 4 -6 5c-3 9 0 17 4 24c20 36 41 72 61 108c5 9 12 17 23 23h77c16 0 27 -7 34 -21c7 -12 15 -24 22 -36c14 -25 27 -51 41 -77
c3 -7 4 -14 6 -20z" />
    <glyph glyph-name="Atilde" unicode="&#xc3;" 
d="M448 14c-4 -5 -8 -9 -11 -13c-19 -3 -36 -5 -53 -2c-7 1 -16 -1 -23 -1c-6 0 -12 -1 -18 -1c-15 0 -29 11 -31 26c-1 9 -2 18 -3 26c-3 20 -17 33 -37 33c-16 1 -30 0 -45 0c-24 0 -38 -12 -42 -34c-2 -8 -3 -15 -4 -23c-2 -14 -7 -24 -25 -29c-30 1 -65 3 -99 4
c-9 3 -12 10 -14 16c4 26 8 49 13 74c4 26 10 54 15 81c5 29 10 58 15 88c2 13 5 28 7 42c4 25 8 52 12 78c2 13 6 26 8 38c4 15 6 30 9 45c2 9 3 18 5 27c6 31 12 62 15 93c0 9 4 17 5 25c4 16 8 33 10 50c2 13 7 22 21 29c8 1 17 1 27 1c21 1 41 3 62 3c14 0 28 -2 41 -4
s21 -11 24 -22c4 -14 7 -30 10 -45s6 -31 8 -48c2 -23 10 -47 12 -71c1 -20 6 -38 11 -56c4 -23 8 -45 12 -68c4 -28 7 -57 15 -84c4 -15 5 -29 7 -43c4 -21 7 -40 11 -59c5 -24 9 -46 13 -70c3 -19 8 -38 11 -58c3 -16 4 -32 6 -48zM245 384c-13 -7 -14 -20 -14 -31
c-2 -34 -10 -66 -15 -100c0 -5 -2 -11 -3 -16c-3 -37 16 -42 43 -40c12 1 21 9 24 21c2 15 0 28 -2 41c-4 23 -7 46 -12 68c-2 14 -4 27 -7 39c-2 7 -4 15 -14 18zM344 870c4 0 8 1 12 0c10 -1 16 -7 16 -18c0 -4 0 -9 -1 -14c-7 -17 -13 -35 -23 -51
c-17 -28 -38 -31 -64 -24c-18 4 -36 11 -55 16c-13 4 -26 8 -40 4c-11 -2 -20 -6 -26 -16c-2 -3 -5 -5 -6 -8c-7 -10 -16 -14 -29 -11c-3 4 -7 8 -11 12c0 17 5 32 12 46c5 10 11 20 18 28c20 25 46 31 76 23c16 -4 32 -9 48 -13c9 -2 19 -3 28 -3c11 -1 21 3 28 12
c5 6 11 12 17 17z" />
    <glyph glyph-name="Adieresis" unicode="&#xc4;" 
d="M448 14c-4 -5 -8 -9 -11 -13c-19 -3 -36 -5 -53 -2c-7 1 -16 -1 -23 -1c-6 0 -12 -1 -18 -1c-15 0 -29 11 -31 26c-1 9 -2 18 -3 26c-3 20 -17 33 -37 33c-16 1 -30 0 -45 0c-24 0 -38 -12 -42 -34c-2 -8 -3 -15 -4 -23c-2 -14 -7 -24 -25 -29c-30 1 -65 3 -99 4
c-9 3 -12 10 -14 16c4 26 8 49 13 74c4 26 10 54 15 81c5 29 10 58 15 88c2 13 5 28 7 42c4 25 8 52 12 78c2 13 6 26 8 38c4 15 6 30 9 45c2 9 3 18 5 27c6 31 12 62 15 93c0 9 4 17 5 25c4 16 8 33 10 50c2 13 7 22 21 29c8 1 17 1 27 1c21 1 41 3 62 3c14 0 28 -2 41 -4
s21 -11 24 -22c4 -14 7 -30 10 -45s6 -31 8 -48c2 -23 10 -47 12 -71c1 -20 6 -38 11 -56c4 -23 8 -45 12 -68c4 -28 7 -57 15 -84c4 -15 5 -29 7 -43c4 -21 7 -40 11 -59c5 -24 9 -46 13 -70c3 -19 8 -38 11 -58c3 -16 4 -32 6 -48zM245 384c-13 -7 -14 -20 -14 -31
c-2 -34 -10 -66 -15 -100c0 -5 -2 -11 -3 -16c-3 -37 16 -42 43 -40c12 1 21 9 24 21c2 15 0 28 -2 41c-4 23 -7 46 -12 68c-2 14 -4 27 -7 39c-2 7 -4 15 -14 18zM330 872c21 -10 35 -25 40 -48c4 -17 1 -34 -11 -47c-4 -5 -8 -9 -13 -13c-27 -22 -64 -10 -77 15
c-6 10 -10 21 -13 32c-1 7 1 16 3 23c7 22 28 37 51 38h20zM183 872c21 -10 35 -25 40 -48c4 -17 1 -34 -11 -47c-4 -5 -8 -9 -13 -13c-27 -22 -64 -10 -77 15c-6 10 -10 21 -13 32c-1 7 1 16 3 23c7 22 28 37 51 38h20z" />
    <glyph glyph-name="Aring" unicode="&#xc5;" 
d="M448 14c-4 -5 -8 -9 -11 -13c-19 -3 -36 -5 -53 -2c-7 1 -16 -1 -23 -1c-6 0 -12 -1 -18 -1c-15 0 -29 11 -31 26c-1 9 -2 18 -3 26c-3 20 -17 33 -37 33c-16 1 -30 0 -45 0c-24 0 -38 -12 -42 -34c-2 -8 -3 -15 -4 -23c-2 -14 -7 -24 -25 -29c-30 1 -65 3 -99 4
c-9 3 -12 10 -14 16c4 26 8 49 13 74c4 26 10 54 15 81c5 29 10 58 15 88c2 13 5 28 7 42c4 25 8 52 12 78c2 13 6 26 8 38c4 15 6 30 9 45c2 9 3 18 5 27c6 31 12 62 15 93c0 9 4 17 5 25c4 16 8 33 10 50c2 13 7 22 21 29c8 1 17 1 27 1c21 1 41 3 62 3c14 0 28 -2 41 -4
s21 -11 24 -22c4 -14 7 -30 10 -45s6 -31 8 -48c2 -23 10 -47 12 -71c1 -20 6 -38 11 -56c4 -23 8 -45 12 -68c4 -28 7 -57 15 -84c4 -15 5 -29 7 -43c4 -21 7 -40 11 -59c5 -24 9 -46 13 -70c3 -19 8 -38 11 -58c3 -16 4 -32 6 -48zM245 384c-13 -7 -14 -20 -14 -31
c-2 -34 -10 -66 -15 -100c0 -5 -2 -11 -3 -16c-3 -37 16 -42 43 -40c12 1 21 9 24 21c2 15 0 28 -2 41c-4 23 -7 46 -12 68c-2 14 -4 27 -7 39c-2 7 -4 15 -14 18zM242 634c-34 -1 -63 12 -86 37c-21 22 -28 50 -22 81c6 41 53 77 91 80c6 0 13 2 19 3c23 1 44 -7 63 -19
c25 -17 40 -40 46 -69c4 -18 -1 -36 -8 -52c-14 -31 -38 -50 -71 -57c-11 -2 -21 -3 -32 -4zM291 743c-15 34 -44 40 -70 29c-23 -10 -32 -36 -21 -58c7 -16 22 -22 37 -23c23 -1 43 5 51 28c2 8 2 17 3 24z" />
    <glyph glyph-name="Ccedilla" unicode="&#xc7;" horiz-adv-x="460" 
d="M414 638c-10 -26 -24 -50 -39 -73c-5 -8 -12 -14 -25 -11c-5 4 -11 10 -18 15c-20 16 -43 24 -68 23c-17 -1 -31 -10 -41 -23c-6 -9 -11 -18 -15 -28c-10 -23 -15 -47 -20 -72c-6 -28 -6 -57 -6 -86v-50c0 -54 9 -107 26 -158c5 -16 13 -31 25 -42c7 -6 15 -11 23 -15
c38 -6 70 12 105 26c5 -4 12 -8 16 -13c13 -20 24 -41 36 -62c1 -1 1 -3 1 -4c-3 -12 -11 -19 -19 -27c-22 -19 -48 -27 -74 -32c-27 -5 -55 -6 -83 -2c-24 4 -46 11 -65 24c-34 24 -62 54 -79 93c-15 37 -28 73 -36 112c-2 13 -4 25 -5 38c-2 26 -5 52 -6 78
c-1 17 1 34 1 50c1 4 2 8 2 11c0 26 4 51 10 76c7 33 18 65 32 96c15 33 35 62 64 83c22 15 46 28 72 33c51 8 100 2 147 -20c9 -5 17 -11 25 -17c8 -5 11 -14 14 -23zM234 1l55 -1c10 -2 24 -13 42 -33c19 -20 37 -45 37 -69c0 -33 -12 -43 -27 -64s-36 -26 -57 -29
c-57 -1 -85 5 -84 18v64c3 21 9 26 19 15s20 -17 30 -19c20 -4 37 -1 37 23c7 29 -12 45 -25 64c-23 19 -32 30 -27 31z" />
    <glyph glyph-name="Egrave" unicode="&#xc8;" horiz-adv-x="421" 
d="M46 664c7 12 18 16 31 14c10 0 21 1 31 1h146c14 0 27 -2 40 -3c6 0 12 -1 18 0c18 4 35 3 54 0c4 -4 8 -7 11 -10v-36c0 -9 2 -17 2 -26c0 -7 -1 -15 -2 -22c-2 -10 -9 -15 -19 -16c-32 -3 -64 -4 -97 -2c-21 2 -43 -2 -65 -5c-11 -1 -18 -12 -19 -26
c-2 -22 -5 -44 -1 -66c3 -12 1 -26 0 -38c0 -10 1 -19 8 -26c9 -9 21 -9 33 -9c22 0 44 0 66 1c28 1 37 -10 39 -39v-57c-5 -5 -10 -11 -16 -18c-28 1 -55 3 -81 3c-11 0 -21 -3 -31 -5c-8 -2 -13 -9 -15 -16c-2 -9 -6 -19 -4 -28c3 -25 1 -50 2 -74c0 -7 -1 -14 0 -21
c0 -13 7 -23 19 -25c22 -4 43 -8 66 -5c24 2 47 1 71 1c11 0 21 -2 30 -2c13 -9 17 -19 17 -33c-1 -19 0 -37 0 -56c-7 -14 -7 -14 -22 -21h-136c-25 0 -50 -1 -75 0c-10 0 -19 2 -28 2s-19 0 -28 -1c-9 0 -18 -1 -26 -1c-13 0 -23 10 -23 23c-1 14 0 27 1 40v15v58v11
c-2 25 -2 51 0 77c2 14 0 29 -1 43c0 5 -1 10 -1 14v163c0 8 2 16 2 24c1 3 1 6 1 8c-4 33 -4 66 0 100c0 8 1 16 0 24c-4 21 -3 42 2 65zM91 925c4 5 7 8 10 11h71c11 0 18 -7 22 -16c4 -10 7 -20 10 -30c13 -41 26 -82 40 -124c-3 -4 -7 -9 -10 -14h-21
c-17 0 -30 7 -39 23c-17 31 -36 63 -53 94c-10 18 -20 37 -30 56z" />
    <glyph glyph-name="Eacute" unicode="&#xc9;" horiz-adv-x="421" 
d="M46 664c7 12 18 16 31 14c10 0 21 1 31 1h146c14 0 27 -2 40 -3c6 0 12 -1 18 0c18 4 35 3 54 0c4 -4 8 -7 11 -10v-36c0 -9 2 -17 2 -26c0 -7 -1 -15 -2 -22c-2 -10 -9 -15 -19 -16c-32 -3 -64 -4 -97 -2c-21 2 -43 -2 -65 -5c-11 -1 -18 -12 -19 -26
c-2 -22 -5 -44 -1 -66c3 -12 1 -26 0 -38c0 -10 1 -19 8 -26c9 -9 21 -9 33 -9c22 0 44 0 66 1c28 1 37 -10 39 -39v-57c-5 -5 -10 -11 -16 -18c-28 1 -55 3 -81 3c-11 0 -21 -3 -31 -5c-8 -2 -13 -9 -15 -16c-2 -9 -6 -19 -4 -28c3 -25 1 -50 2 -74c0 -7 -1 -14 0 -21
c0 -13 7 -23 19 -25c22 -4 43 -8 66 -5c24 2 47 1 71 1c11 0 21 -2 30 -2c13 -9 17 -19 17 -33c-1 -19 0 -37 0 -56c-7 -14 -7 -14 -22 -21h-136c-25 0 -50 -1 -75 0c-10 0 -19 2 -28 2s-19 0 -28 -1c-9 0 -18 -1 -26 -1c-13 0 -23 10 -23 23c-1 14 0 27 1 40v15v58v11
c-2 25 -2 51 0 77c2 14 0 29 -1 43c0 5 -1 10 -1 14v163c0 8 2 16 2 24c1 3 1 6 1 8c-4 33 -4 66 0 100c0 8 1 16 0 24c-4 21 -3 42 2 65zM207 752h-32c-3 2 -5 4 -9 7c1 6 0 12 2 17c7 25 15 50 23 74c4 13 8 25 10 37c3 10 8 17 17 23h23c10 0 20 1 30 2c9 1 17 1 23 -7
c4 -10 -3 -16 -7 -23c-20 -37 -40 -73 -60 -109c-5 -8 -9 -16 -20 -21z" />
    <glyph glyph-name="Ecircumflex" unicode="&#xca;" horiz-adv-x="421" 
d="M46 664c7 12 18 16 31 14c10 0 21 1 31 1h146c14 0 27 -2 40 -3c6 0 12 -1 18 0c18 4 35 3 54 0c4 -4 8 -7 11 -10v-36c0 -9 2 -17 2 -26c0 -7 -1 -15 -2 -22c-2 -10 -9 -15 -19 -16c-32 -3 -64 -4 -97 -2c-21 2 -43 -2 -65 -5c-11 -1 -18 -12 -19 -26
c-2 -22 -5 -44 -1 -66c3 -12 1 -26 0 -38c0 -10 1 -19 8 -26c9 -9 21 -9 33 -9c22 0 44 0 66 1c28 1 37 -10 39 -39v-57c-5 -5 -10 -11 -16 -18c-28 1 -55 3 -81 3c-11 0 -21 -3 -31 -5c-8 -2 -13 -9 -15 -16c-2 -9 -6 -19 -4 -28c3 -25 1 -50 2 -74c0 -7 -1 -14 0 -21
c0 -13 7 -23 19 -25c22 -4 43 -8 66 -5c24 2 47 1 71 1c11 0 21 -2 30 -2c13 -9 17 -19 17 -33c-1 -19 0 -37 0 -56c-7 -14 -7 -14 -22 -21h-136c-25 0 -50 -1 -75 0c-10 0 -19 2 -28 2s-19 0 -28 -1c-9 0 -18 -1 -26 -1c-13 0 -23 10 -23 23c-1 14 0 27 1 40v15v58v11
c-2 25 -2 51 0 77c2 14 0 29 -1 43c0 5 -1 10 -1 14v163c0 8 2 16 2 24c1 3 1 6 1 8c-4 33 -4 66 0 100c0 8 1 16 0 24c-4 21 -3 42 2 65zM339 758c-10 -15 -22 -10 -33 -10c-6 0 -12 1 -17 3c-6 2 -13 5 -18 10c-13 15 -26 30 -39 46c-3 3 -4 6 -7 9c-4 3 -8 5 -12 8h-19
c-10 -4 -17 -13 -24 -22c-6 -8 -13 -18 -19 -27c-17 -23 -46 -29 -70 -24c-2 0 -3 0 -4 1c-2 2 -4 4 -6 5c-3 9 0 17 4 24c20 36 41 72 61 108c5 9 12 17 23 23h77c16 0 27 -7 34 -21c7 -12 15 -24 22 -36c14 -25 27 -51 41 -77c3 -7 4 -14 6 -20z" />
    <glyph glyph-name="Edieresis" unicode="&#xcb;" horiz-adv-x="421" 
d="M46 664c7 12 18 16 31 14c10 0 21 1 31 1h146c14 0 27 -2 40 -3c6 0 12 -1 18 0c18 4 35 3 54 0c4 -4 8 -7 11 -10v-36c0 -9 2 -17 2 -26c0 -7 -1 -15 -2 -22c-2 -10 -9 -15 -19 -16c-32 -3 -64 -4 -97 -2c-21 2 -43 -2 -65 -5c-11 -1 -18 -12 -19 -26
c-2 -22 -5 -44 -1 -66c3 -12 1 -26 0 -38c0 -10 1 -19 8 -26c9 -9 21 -9 33 -9c22 0 44 0 66 1c28 1 37 -10 39 -39v-57c-5 -5 -10 -11 -16 -18c-28 1 -55 3 -81 3c-11 0 -21 -3 -31 -5c-8 -2 -13 -9 -15 -16c-2 -9 -6 -19 -4 -28c3 -25 1 -50 2 -74c0 -7 -1 -14 0 -21
c0 -13 7 -23 19 -25c22 -4 43 -8 66 -5c24 2 47 1 71 1c11 0 21 -2 30 -2c13 -9 17 -19 17 -33c-1 -19 0 -37 0 -56c-7 -14 -7 -14 -22 -21h-136c-25 0 -50 -1 -75 0c-10 0 -19 2 -28 2s-19 0 -28 -1c-9 0 -18 -1 -26 -1c-13 0 -23 10 -23 23c-1 14 0 27 1 40v15v58v11
c-2 25 -2 51 0 77c2 14 0 29 -1 43c0 5 -1 10 -1 14v163c0 8 2 16 2 24c1 3 1 6 1 8c-4 33 -4 66 0 100c0 8 1 16 0 24c-4 21 -3 42 2 65zM293 870c21 -10 35 -25 40 -48c4 -17 1 -34 -11 -47c-4 -5 -8 -9 -13 -13c-27 -22 -64 -10 -77 15c-6 10 -10 21 -13 32
c-1 7 1 16 3 23c7 22 28 37 51 38h20zM146 870c21 -10 35 -25 40 -48c4 -17 1 -34 -11 -47c-4 -5 -8 -9 -13 -13c-27 -22 -64 -10 -77 15c-6 10 -10 21 -13 32c-1 7 1 16 3 23c7 22 28 37 51 38h20z" />
    <glyph glyph-name="Igrave" unicode="&#xcc;" horiz-adv-x="211" 
d="M80 680h80c7 0 14 -2 21 -3c7 -2 12 -7 14 -15c1 -7 3 -15 3 -23c1 -30 0 -59 0 -89c0 -6 -1 -13 -2 -19v-13c0 -19 2 -37 2 -56c1 -18 1 -36 0 -55c0 -8 -1 -17 -2 -25c0 -7 -1 -14 0 -21c3 -22 4 -44 0 -66c-1 -6 -1 -13 0 -19c4 -36 2 -72 2 -108c1 -16 1 -33 0 -50
c0 -21 -1 -42 -2 -63c0 -4 2 -8 1 -12c0 -7 0 -15 -1 -23c-1 -10 -7 -17 -20 -21c-12 1 -28 2 -43 3c-3 1 -7 0 -10 0c-14 -1 -29 -2 -42 -3c-6 3 -10 6 -13 8c-7 8 -9 16 -8 26c1 14 1 27 2 41c0 5 -1 10 -1 15v38v37s-2 23 0 35c3 33 3 66 -1 99c-1 10 -1 20 0 29
c3 32 2 64 1 97c-2 32 -3 64 1 96c1 9 1 18 0 27c-3 22 -3 44 0 66c1 9 -1 19 -1 29c-2 16 2 30 19 38zM11 922c4 5 7 8 10 11h71c11 0 18 -7 22 -16c4 -10 7 -20 10 -30c13 -41 26 -82 40 -124c-3 -4 -7 -9 -10 -14h-21c-17 0 -30 7 -39 23c-17 31 -36 63 -53 94
c-10 18 -20 37 -30 56z" />
    <glyph glyph-name="Iacute" unicode="&#xcd;" horiz-adv-x="211" 
d="M53 680h80c7 0 14 -2 21 -3c7 -2 12 -7 14 -15c1 -7 3 -15 3 -23c1 -30 0 -59 0 -89c0 -6 -1 -13 -2 -19v-13c0 -19 2 -37 2 -56c1 -18 1 -36 0 -55c0 -8 -1 -17 -2 -25c0 -7 -1 -14 0 -21c3 -22 4 -44 0 -66c-1 -6 -1 -13 0 -19c4 -36 2 -72 2 -108c1 -16 1 -33 0 -50
c0 -21 -1 -42 -2 -63c0 -4 2 -8 1 -12c0 -7 0 -15 -1 -23c-1 -10 -7 -17 -20 -21c-12 1 -28 2 -43 3c-3 1 -7 0 -10 0c-14 -1 -29 -2 -42 -3c-6 3 -10 6 -13 8c-7 8 -9 16 -8 26c1 14 1 27 2 41c0 5 -1 10 -1 15v38v37s-2 23 0 35c3 33 3 66 -1 99c-1 10 -1 20 0 29
c3 32 2 64 1 97c-2 32 -3 64 1 96c1 9 1 18 0 27c-3 22 -3 44 0 66c1 9 -1 19 -1 29c-2 16 2 30 19 38zM90 750h-32c-3 2 -5 4 -9 7c1 6 0 12 2 17c7 25 15 50 23 74c4 13 8 25 10 37c3 10 8 17 17 23h23c10 0 20 1 30 2c9 1 17 1 23 -7c4 -10 -3 -16 -7 -23
c-20 -37 -40 -73 -60 -109c-5 -8 -9 -16 -20 -21z" />
    <glyph glyph-name="Icircumflex" unicode="&#xce;" horiz-adv-x="211" 
d="M61 680h80c7 0 14 -2 21 -3c7 -2 12 -7 14 -15c1 -7 3 -15 3 -23c1 -30 0 -59 0 -89c0 -6 -1 -13 -2 -19v-13c0 -19 2 -37 2 -56c1 -18 1 -36 0 -55c0 -8 -1 -17 -2 -25c0 -7 -1 -14 0 -21c3 -22 4 -44 0 -66c-1 -6 -1 -13 0 -19c4 -36 2 -72 2 -108c1 -16 1 -33 0 -50
c0 -21 -1 -42 -2 -63c0 -4 2 -8 1 -12c0 -7 0 -15 -1 -23c-1 -10 -7 -17 -20 -21c-12 1 -28 2 -43 3c-3 1 -7 0 -10 0c-14 -1 -29 -2 -42 -3c-6 3 -10 6 -13 8c-7 8 -9 16 -8 26c1 14 1 27 2 41c0 5 -1 10 -1 15v38v37s-2 23 0 35c3 33 3 66 -1 99c-1 10 -1 20 0 29
c3 32 2 64 1 97c-2 32 -3 64 1 96c1 9 1 18 0 27c-3 22 -3 44 0 66c1 9 -1 19 -1 29c-2 16 2 30 19 38zM241 758c-10 -15 -22 -10 -33 -10c-6 0 -12 1 -17 3c-6 2 -13 5 -18 10c-13 15 -26 30 -39 46c-3 3 -4 6 -7 9c-4 3 -8 5 -12 8h-19c-10 -4 -17 -13 -24 -22
c-6 -8 -13 -18 -19 -27c-17 -23 -46 -29 -70 -24c-2 0 -3 0 -4 1c-2 2 -4 4 -6 5c-3 9 0 17 4 24c20 36 41 72 61 108c5 9 12 17 23 23h77c16 0 27 -7 34 -21c7 -12 15 -24 22 -36c14 -25 27 -51 41 -77c3 -7 4 -14 6 -20z" />
    <glyph glyph-name="Idieresis" unicode="&#xcf;" horiz-adv-x="211" 
d="M60 680h80c7 0 14 -2 21 -3c7 -2 12 -7 14 -15c1 -7 3 -15 3 -23c1 -30 0 -59 0 -89c0 -6 -1 -13 -2 -19v-13c0 -19 2 -37 2 -56c1 -18 1 -36 0 -55c0 -8 -1 -17 -2 -25c0 -7 -1 -14 0 -21c3 -22 4 -44 0 -66c-1 -6 -1 -13 0 -19c4 -36 2 -72 2 -108c1 -16 1 -33 0 -50
c0 -21 -1 -42 -2 -63c0 -4 2 -8 1 -12c0 -7 0 -15 -1 -23c-1 -10 -7 -17 -20 -21c-12 1 -28 2 -43 3c-3 1 -7 0 -10 0c-14 -1 -29 -2 -42 -3c-6 3 -10 6 -13 8c-7 8 -9 16 -8 26c1 14 1 27 2 41c0 5 -1 10 -1 15v38v37s-2 23 0 35c3 33 3 66 -1 99c-1 10 -1 20 0 29
c3 32 2 64 1 97c-2 32 -3 64 1 96c1 9 1 18 0 27c-3 22 -3 44 0 66c1 9 -1 19 -1 29c-2 16 2 30 19 38zM196 869c21 -10 35 -25 40 -48c4 -17 1 -34 -11 -47c-4 -5 -8 -9 -13 -13c-27 -22 -64 -10 -77 15c-6 10 -10 21 -13 32c-1 7 1 16 3 23c7 22 28 37 51 38h20zM49 869
c21 -10 35 -25 40 -48c4 -17 1 -34 -11 -47c-4 -5 -8 -9 -13 -13c-27 -22 -64 -10 -77 15c-6 10 -10 21 -13 32c-1 7 1 16 3 23c7 22 28 37 51 38h20z" />
    <glyph glyph-name="Eth" unicode="&#xd0;" horiz-adv-x="474" 
d="M19 312c-13 18 -2 35 -3 51c4 8 11 12 20 13c23 1 33 9 34 32s4 47 2 70c-3 34 -1 68 -1 102c6 17 -2 34 -1 51c2 14 2 29 4 43c1 9 5 13 14 14c15 2 30 5 45 1h8c33 4 66 -2 100 0c55 4 98 -21 137 -57c13 -12 22 -27 31 -43c21 -39 34 -80 42 -124c2 -15 6 -29 9 -44
v-11c0 -35 1 -71 0 -106c0 -7 -2 -14 -3 -21c-5 -28 -7 -58 -16 -86c-12 -34 -24 -68 -45 -98c-18 -26 -42 -48 -70 -65c-22 -12 -45 -17 -70 -19c-23 -2 -46 -3 -69 -3c-32 -1 -64 0 -97 0l-12 6c-6 9 -8 19 -8 30c1 42 2 84 2 127c0 35 -1 70 -2 106c0 12 -8 21 -19 24
c-7 1 -13 2 -19 3c-5 1 -9 3 -13 4zM245 128c22 10 35 27 42 43c20 45 31 91 31 140c0 20 2 40 3 60c0 4 -1 8 -1 12c-2 17 -3 33 -5 50c-1 12 -2 24 -5 36c-5 21 -10 41 -18 61c-8 22 -21 40 -46 46c-23 5 -37 -6 -37 -29c0 -14 1 -28 0 -42c-3 -24 0 -49 0 -73v-25
c1 -13 6 -24 20 -29c1 -1 3 -2 4 -2c13 -6 19 -16 18 -30c-1 -10 -2 -21 -3 -27c-9 -16 -25 -15 -36 -25c-1 -4 -3 -11 -3 -17v-46c0 -12 -2 -24 -2 -35c0 -13 1 -26 2 -39c2 -11 3 -24 17 -29h19z" />
    <glyph glyph-name="trademark" unicode="&#x2122;" horiz-adv-x="590" 
d="M93 635c-2 2 -5 3 -8 4h-32c-4 0 -8 1 -13 2c-4 1 -7 4 -8 8c-2 11 -2 23 -2 34c0 4 3 8 6 9c5 2 9 4 13 4h48c1 0 3 0 6 -1h7c22 2 44 1 67 1h33c3 0 5 -1 8 -1c9 -3 11 -6 11 -15v-16v-7c1 -8 0 -10 -8 -17h-11c-11 0 -23 0 -34 -1c-8 0 -12 -5 -13 -13v-17
c0 -12 1 -25 0 -37c-1 -11 0 -22 0 -32c0 -8 -1 -16 -1 -23c0 -8 1 -16 1 -23c0 -8 -1 -16 -1 -24s1 -15 1 -23c0 -6 -1 -12 -1 -18v-7c2 -14 1 -27 1 -41c0 -3 -1 -7 -2 -10c-3 -6 -8 -9 -15 -8s-14 1 -22 1c-3 0 -6 0 -9 -1c-11 -1 -19 6 -18 16s0 20 0 30v31v8
c1 3 1 5 1 8c-2 25 -1 50 -1 75c0 16 0 32 1 48c0 5 -1 10 -1 15v15c1 9 1 19 -4 26zM559 371c-4 -8 -10 -9 -16 -9c-14 0 -26 1 -39 1c-3 2 -5 3 -6 4c-1 3 -3 5 -4 8c-1 7 -2 13 -3 20c-1 8 -2 16 -3 25c-2 9 -4 19 -5 28c-2 12 -3 25 -5 36c-1 6 -1 12 -8 15
c-6 -1 -7 -6 -9 -11c-3 -10 -5 -20 -7 -30c-4 -21 -11 -42 -16 -63c-2 -6 -3 -12 -4 -18c-1 -3 -2 -6 -3 -8c-2 -5 -5 -7 -10 -7h-46c-7 0 -11 4 -13 12l-15 57c-4 20 -9 39 -14 58c0 2 -1 4 -3 6c-1 2 -3 4 -6 2c-4 -2 -4 -6 -5 -10c-2 -10 -4 -19 -5 -30
c-2 -9 -3 -19 -4 -28c-2 -12 -4 -23 -6 -35c-1 -6 -2 -11 -2 -17c-1 -9 -5 -14 -14 -15h-14c-8 2 -16 2 -24 0c-6 0 -9 0 -14 6c-1 5 -1 11 1 17c2 11 3 22 5 32c1 10 3 20 4 30c1 14 5 27 7 41c0 6 1 12 1 18c1 4 1 7 2 11c1 6 2 13 3 20c1 6 2 13 4 20c1 9 3 18 4 27
c2 13 3 25 6 38c2 9 3 18 3 28c1 3 1 6 2 10c1 6 2 13 3 20c1 6 3 11 10 14c11 0 22 1 33 1c10 0 18 -2 23 -5c5 -7 7 -15 9 -23c1 -10 4 -20 6 -30c3 -14 6 -29 9 -43c3 -11 5 -22 8 -33c3 -16 6 -31 9 -46c2 -9 4 -11 9 -15c6 0 8 5 9 9c4 23 10 45 14 68c3 16 8 31 12 47
c2 13 5 28 8 41c2 6 3 11 5 17c3 10 8 13 18 13h36c9 0 14 -5 16 -15c1 -7 2 -15 3 -22c1 -6 2 -11 3 -17c1 -9 2 -17 3 -26c2 -9 3 -19 5 -29c1 -7 2 -15 3 -23c2 -9 3 -18 5 -27c2 -16 4 -31 6 -46l6 -45c3 -18 6 -36 8 -54c1 -7 2 -14 2 -20z" />
    <glyph glyph-name="ccedilla" unicode="&#xe7;" horiz-adv-x="460" 
d="M414 638c-10 -26 -24 -50 -39 -73c-5 -8 -12 -14 -25 -11c-5 4 -11 10 -18 15c-20 16 -43 24 -68 23c-17 -1 -31 -10 -41 -23c-6 -9 -11 -18 -15 -28c-10 -23 -15 -47 -20 -72c-6 -28 -6 -57 -6 -86v-50c0 -54 9 -107 26 -158c5 -16 13 -31 25 -42c7 -6 15 -11 23 -15
c38 -6 70 12 105 26c5 -4 12 -8 16 -13c13 -20 24 -41 36 -62c1 -1 1 -3 1 -4c-3 -12 -11 -19 -19 -27c-22 -19 -48 -27 -74 -32c-27 -5 -55 -6 -83 -2c-24 4 -46 11 -65 24c-34 24 -62 54 -79 93c-15 37 -28 73 -36 112c-2 13 -4 25 -5 38c-2 26 -5 52 -6 78
c-1 17 1 34 1 50c1 4 2 8 2 11c0 26 4 51 10 76c7 33 18 65 32 96c15 33 35 62 64 83c22 15 46 28 72 33c51 8 100 2 147 -20c9 -5 17 -11 25 -17c8 -5 11 -14 14 -23zM234 1l55 -1c10 -2 24 -13 42 -33c19 -20 37 -45 37 -69c0 -33 -12 -43 -27 -64s-36 -26 -57 -29
c-57 -1 -85 5 -84 18v64c3 21 9 26 19 15s20 -17 30 -19c20 -4 37 -1 37 23c7 29 -12 45 -25 64c-23 19 -32 30 -27 31z" />
    <glyph glyph-name="egrave" unicode="&#xe8;" horiz-adv-x="421" 
d="M46 664c7 12 18 16 31 14c10 0 21 1 31 1h146c14 0 27 -2 40 -3c6 0 12 -1 18 0c18 4 35 3 54 0c4 -4 8 -7 11 -10v-36c0 -9 2 -17 2 -26c0 -7 -1 -15 -2 -22c-2 -10 -9 -15 -19 -16c-32 -3 -64 -4 -97 -2c-21 2 -43 -2 -65 -5c-11 -1 -18 -12 -19 -26
c-2 -22 -5 -44 -1 -66c3 -12 1 -26 0 -38c0 -10 1 -19 8 -26c9 -9 21 -9 33 -9c22 0 44 0 66 1c28 1 37 -10 39 -39v-57c-5 -5 -10 -11 -16 -18c-28 1 -55 3 -81 3c-11 0 -21 -3 -31 -5c-8 -2 -13 -9 -15 -16c-2 -9 -6 -19 -4 -28c3 -25 1 -50 2 -74c0 -7 -1 -14 0 -21
c0 -13 7 -23 19 -25c22 -4 43 -8 66 -5c24 2 47 1 71 1c11 0 21 -2 30 -2c13 -9 17 -19 17 -33c-1 -19 0 -37 0 -56c-7 -14 -7 -14 -22 -21h-136c-25 0 -50 -1 -75 0c-10 0 -19 2 -28 2s-19 0 -28 -1c-9 0 -18 -1 -26 -1c-13 0 -23 10 -23 23c-1 14 0 27 1 40v15v58v11
c-2 25 -2 51 0 77c2 14 0 29 -1 43c0 5 -1 10 -1 14v163c0 8 2 16 2 24c1 3 1 6 1 8c-4 33 -4 66 0 100c0 8 1 16 0 24c-4 21 -3 42 2 65zM91 925c4 5 7 8 10 11h71c11 0 18 -7 22 -16c4 -10 7 -20 10 -30c13 -41 26 -82 40 -124c-3 -4 -7 -9 -10 -14h-21
c-17 0 -30 7 -39 23c-17 31 -36 63 -53 94c-10 18 -20 37 -30 56z" />
    <glyph glyph-name="eacute" unicode="&#xe9;" horiz-adv-x="421" 
d="M46 664c7 12 18 16 31 14c10 0 21 1 31 1h146c14 0 27 -2 40 -3c6 0 12 -1 18 0c18 4 35 3 54 0c4 -4 8 -7 11 -10v-36c0 -9 2 -17 2 -26c0 -7 -1 -15 -2 -22c-2 -10 -9 -15 -19 -16c-32 -3 -64 -4 -97 -2c-21 2 -43 -2 -65 -5c-11 -1 -18 -12 -19 -26
c-2 -22 -5 -44 -1 -66c3 -12 1 -26 0 -38c0 -10 1 -19 8 -26c9 -9 21 -9 33 -9c22 0 44 0 66 1c28 1 37 -10 39 -39v-57c-5 -5 -10 -11 -16 -18c-28 1 -55 3 -81 3c-11 0 -21 -3 -31 -5c-8 -2 -13 -9 -15 -16c-2 -9 -6 -19 -4 -28c3 -25 1 -50 2 -74c0 -7 -1 -14 0 -21
c0 -13 7 -23 19 -25c22 -4 43 -8 66 -5c24 2 47 1 71 1c11 0 21 -2 30 -2c13 -9 17 -19 17 -33c-1 -19 0 -37 0 -56c-7 -14 -7 -14 -22 -21h-136c-25 0 -50 -1 -75 0c-10 0 -19 2 -28 2s-19 0 -28 -1c-9 0 -18 -1 -26 -1c-13 0 -23 10 -23 23c-1 14 0 27 1 40v15v58v11
c-2 25 -2 51 0 77c2 14 0 29 -1 43c0 5 -1 10 -1 14v163c0 8 2 16 2 24c1 3 1 6 1 8c-4 33 -4 66 0 100c0 8 1 16 0 24c-4 21 -3 42 2 65zM207 752h-32c-3 2 -5 4 -9 7c1 6 0 12 2 17c7 25 15 50 23 74c4 13 8 25 10 37c3 10 8 17 17 23h23c10 0 20 1 30 2c9 1 17 1 23 -7
c4 -10 -3 -16 -7 -23c-20 -37 -40 -73 -60 -109c-5 -8 -9 -16 -20 -21z" />
    <glyph glyph-name="ecircumflex" unicode="&#xea;" horiz-adv-x="421" 
d="M46 664c7 12 18 16 31 14c10 0 21 1 31 1h146c14 0 27 -2 40 -3c6 0 12 -1 18 0c18 4 35 3 54 0c4 -4 8 -7 11 -10v-36c0 -9 2 -17 2 -26c0 -7 -1 -15 -2 -22c-2 -10 -9 -15 -19 -16c-32 -3 -64 -4 -97 -2c-21 2 -43 -2 -65 -5c-11 -1 -18 -12 -19 -26
c-2 -22 -5 -44 -1 -66c3 -12 1 -26 0 -38c0 -10 1 -19 8 -26c9 -9 21 -9 33 -9c22 0 44 0 66 1c28 1 37 -10 39 -39v-57c-5 -5 -10 -11 -16 -18c-28 1 -55 3 -81 3c-11 0 -21 -3 -31 -5c-8 -2 -13 -9 -15 -16c-2 -9 -6 -19 -4 -28c3 -25 1 -50 2 -74c0 -7 -1 -14 0 -21
c0 -13 7 -23 19 -25c22 -4 43 -8 66 -5c24 2 47 1 71 1c11 0 21 -2 30 -2c13 -9 17 -19 17 -33c-1 -19 0 -37 0 -56c-7 -14 -7 -14 -22 -21h-136c-25 0 -50 -1 -75 0c-10 0 -19 2 -28 2s-19 0 -28 -1c-9 0 -18 -1 -26 -1c-13 0 -23 10 -23 23c-1 14 0 27 1 40v15v58v11
c-2 25 -2 51 0 77c2 14 0 29 -1 43c0 5 -1 10 -1 14v163c0 8 2 16 2 24c1 3 1 6 1 8c-4 33 -4 66 0 100c0 8 1 16 0 24c-4 21 -3 42 2 65zM339 758c-10 -15 -22 -10 -33 -10c-6 0 -12 1 -17 3c-6 2 -13 5 -18 10c-13 15 -26 30 -39 46c-3 3 -4 6 -7 9c-4 3 -8 5 -12 8h-19
c-10 -4 -17 -13 -24 -22c-6 -8 -13 -18 -19 -27c-17 -23 -46 -29 -70 -24c-2 0 -3 0 -4 1c-2 2 -4 4 -6 5c-3 9 0 17 4 24c20 36 41 72 61 108c5 9 12 17 23 23h77c16 0 27 -7 34 -21c7 -12 15 -24 22 -36c14 -25 27 -51 41 -77c3 -7 4 -14 6 -20z" />
    <glyph glyph-name="edieresis" unicode="&#xeb;" horiz-adv-x="421" 
d="M46 664c7 12 18 16 31 14c10 0 21 1 31 1h146c14 0 27 -2 40 -3c6 0 12 -1 18 0c18 4 35 3 54 0c4 -4 8 -7 11 -10v-36c0 -9 2 -17 2 -26c0 -7 -1 -15 -2 -22c-2 -10 -9 -15 -19 -16c-32 -3 -64 -4 -97 -2c-21 2 -43 -2 -65 -5c-11 -1 -18 -12 -19 -26
c-2 -22 -5 -44 -1 -66c3 -12 1 -26 0 -38c0 -10 1 -19 8 -26c9 -9 21 -9 33 -9c22 0 44 0 66 1c28 1 37 -10 39 -39v-57c-5 -5 -10 -11 -16 -18c-28 1 -55 3 -81 3c-11 0 -21 -3 -31 -5c-8 -2 -13 -9 -15 -16c-2 -9 -6 -19 -4 -28c3 -25 1 -50 2 -74c0 -7 -1 -14 0 -21
c0 -13 7 -23 19 -25c22 -4 43 -8 66 -5c24 2 47 1 71 1c11 0 21 -2 30 -2c13 -9 17 -19 17 -33c-1 -19 0 -37 0 -56c-7 -14 -7 -14 -22 -21h-136c-25 0 -50 -1 -75 0c-10 0 -19 2 -28 2s-19 0 -28 -1c-9 0 -18 -1 -26 -1c-13 0 -23 10 -23 23c-1 14 0 27 1 40v15v58v11
c-2 25 -2 51 0 77c2 14 0 29 -1 43c0 5 -1 10 -1 14v163c0 8 2 16 2 24c1 3 1 6 1 8c-4 33 -4 66 0 100c0 8 1 16 0 24c-4 21 -3 42 2 65zM293 870c21 -10 35 -25 40 -48c4 -17 1 -34 -11 -47c-4 -5 -8 -9 -13 -13c-27 -22 -64 -10 -77 15c-6 10 -10 21 -13 32
c-1 7 1 16 3 23c7 22 28 37 51 38h20zM146 870c21 -10 35 -25 40 -48c4 -17 1 -34 -11 -47c-4 -5 -8 -9 -13 -13c-27 -22 -64 -10 -77 15c-6 10 -10 21 -13 32c-1 7 1 16 3 23c7 22 28 37 51 38h20z" />
    <glyph glyph-name="igrave" unicode="&#xec;" horiz-adv-x="211" 
d="M80 680h80c7 0 14 -2 21 -3c7 -2 12 -7 14 -15c1 -7 3 -15 3 -23c1 -30 0 -59 0 -89c0 -6 -1 -13 -2 -19v-13c0 -19 2 -37 2 -56c1 -18 1 -36 0 -55c0 -8 -1 -17 -2 -25c0 -7 -1 -14 0 -21c3 -22 4 -44 0 -66c-1 -6 -1 -13 0 -19c4 -36 2 -72 2 -108c1 -16 1 -33 0 -50
c0 -21 -1 -42 -2 -63c0 -4 2 -8 1 -12c0 -7 0 -15 -1 -23c-1 -10 -7 -17 -20 -21c-12 1 -28 2 -43 3c-3 1 -7 0 -10 0c-14 -1 -29 -2 -42 -3c-6 3 -10 6 -13 8c-7 8 -9 16 -8 26c1 14 1 27 2 41c0 5 -1 10 -1 15v38v37s-2 23 0 35c3 33 3 66 -1 99c-1 10 -1 20 0 29
c3 32 2 64 1 97c-2 32 -3 64 1 96c1 9 1 18 0 27c-3 22 -3 44 0 66c1 9 -1 19 -1 29c-2 16 2 30 19 38zM11 922c4 5 7 8 10 11h71c11 0 18 -7 22 -16c4 -10 7 -20 10 -30c13 -41 26 -82 40 -124c-3 -4 -7 -9 -10 -14h-21c-17 0 -30 7 -39 23c-17 31 -36 63 -53 94
c-10 18 -20 37 -30 56z" />
    <glyph glyph-name="iacute" unicode="&#xed;" horiz-adv-x="211" 
d="M53 680h80c7 0 14 -2 21 -3c7 -2 12 -7 14 -15c1 -7 3 -15 3 -23c1 -30 0 -59 0 -89c0 -6 -1 -13 -2 -19v-13c0 -19 2 -37 2 -56c1 -18 1 -36 0 -55c0 -8 -1 -17 -2 -25c0 -7 -1 -14 0 -21c3 -22 4 -44 0 -66c-1 -6 -1 -13 0 -19c4 -36 2 -72 2 -108c1 -16 1 -33 0 -50
c0 -21 -1 -42 -2 -63c0 -4 2 -8 1 -12c0 -7 0 -15 -1 -23c-1 -10 -7 -17 -20 -21c-12 1 -28 2 -43 3c-3 1 -7 0 -10 0c-14 -1 -29 -2 -42 -3c-6 3 -10 6 -13 8c-7 8 -9 16 -8 26c1 14 1 27 2 41c0 5 -1 10 -1 15v38v37s-2 23 0 35c3 33 3 66 -1 99c-1 10 -1 20 0 29
c3 32 2 64 1 97c-2 32 -3 64 1 96c1 9 1 18 0 27c-3 22 -3 44 0 66c1 9 -1 19 -1 29c-2 16 2 30 19 38zM90 750h-32c-3 2 -5 4 -9 7c1 6 0 12 2 17c7 25 15 50 23 74c4 13 8 25 10 37c3 10 8 17 17 23h23c10 0 20 1 30 2c9 1 17 1 23 -7c4 -10 -3 -16 -7 -23
c-20 -37 -40 -73 -60 -109c-5 -8 -9 -16 -20 -21z" />
    <glyph glyph-name="icircumflex" unicode="&#xee;" horiz-adv-x="211" 
d="M61 680h80c7 0 14 -2 21 -3c7 -2 12 -7 14 -15c1 -7 3 -15 3 -23c1 -30 0 -59 0 -89c0 -6 -1 -13 -2 -19v-13c0 -19 2 -37 2 -56c1 -18 1 -36 0 -55c0 -8 -1 -17 -2 -25c0 -7 -1 -14 0 -21c3 -22 4 -44 0 -66c-1 -6 -1 -13 0 -19c4 -36 2 -72 2 -108c1 -16 1 -33 0 -50
c0 -21 -1 -42 -2 -63c0 -4 2 -8 1 -12c0 -7 0 -15 -1 -23c-1 -10 -7 -17 -20 -21c-12 1 -28 2 -43 3c-3 1 -7 0 -10 0c-14 -1 -29 -2 -42 -3c-6 3 -10 6 -13 8c-7 8 -9 16 -8 26c1 14 1 27 2 41c0 5 -1 10 -1 15v38v37s-2 23 0 35c3 33 3 66 -1 99c-1 10 -1 20 0 29
c3 32 2 64 1 97c-2 32 -3 64 1 96c1 9 1 18 0 27c-3 22 -3 44 0 66c1 9 -1 19 -1 29c-2 16 2 30 19 38zM241 758c-10 -15 -22 -10 -33 -10c-6 0 -12 1 -17 3c-6 2 -13 5 -18 10c-13 15 -26 30 -39 46c-3 3 -4 6 -7 9c-4 3 -8 5 -12 8h-19c-10 -4 -17 -13 -24 -22
c-6 -8 -13 -18 -19 -27c-17 -23 -46 -29 -70 -24c-2 0 -3 0 -4 1c-2 2 -4 4 -6 5c-3 9 0 17 4 24c20 36 41 72 61 108c5 9 12 17 23 23h77c16 0 27 -7 34 -21c7 -12 15 -24 22 -36c14 -25 27 -51 41 -77c3 -7 4 -14 6 -20z" />
    <glyph glyph-name="idieresis" unicode="&#xef;" horiz-adv-x="211" 
d="M60 680h80c7 0 14 -2 21 -3c7 -2 12 -7 14 -15c1 -7 3 -15 3 -23c1 -30 0 -59 0 -89c0 -6 -1 -13 -2 -19v-13c0 -19 2 -37 2 -56c1 -18 1 -36 0 -55c0 -8 -1 -17 -2 -25c0 -7 -1 -14 0 -21c3 -22 4 -44 0 -66c-1 -6 -1 -13 0 -19c4 -36 2 -72 2 -108c1 -16 1 -33 0 -50
c0 -21 -1 -42 -2 -63c0 -4 2 -8 1 -12c0 -7 0 -15 -1 -23c-1 -10 -7 -17 -20 -21c-12 1 -28 2 -43 3c-3 1 -7 0 -10 0c-14 -1 -29 -2 -42 -3c-6 3 -10 6 -13 8c-7 8 -9 16 -8 26c1 14 1 27 2 41c0 5 -1 10 -1 15v38v37s-2 23 0 35c3 33 3 66 -1 99c-1 10 -1 20 0 29
c3 32 2 64 1 97c-2 32 -3 64 1 96c1 9 1 18 0 27c-3 22 -3 44 0 66c1 9 -1 19 -1 29c-2 16 2 30 19 38zM196 869c21 -10 35 -25 40 -48c4 -17 1 -34 -11 -47c-4 -5 -8 -9 -13 -13c-27 -22 -64 -10 -77 15c-6 10 -10 21 -13 32c-1 7 1 16 3 23c7 22 28 37 51 38h20zM49 869
c21 -10 35 -25 40 -48c4 -17 1 -34 -11 -47c-4 -5 -8 -9 -13 -13c-27 -22 -64 -10 -77 15c-6 10 -10 21 -13 32c-1 7 1 16 3 23c7 22 28 37 51 38h20z" />
    <glyph glyph-name="oslash" unicode="&#xf8;" horiz-adv-x="531" 
d="M200 -76c-15 2 -31 -4 -44 5c-9 12 -5 22 -3 33c4 16 8 31 9 47c0 15 -4 28 -14 36c-37 31 -55 73 -72 116c-14 32 -22 66 -24 101c-2 18 -6 35 -7 53c-2 21 -4 44 -2 65c2 34 6 67 12 100c10 45 23 89 47 130c17 28 41 49 68 67c19 13 42 20 65 24c10 2 20 3 30 3
c6 1 13 -1 19 -2c16 -2 30 -1 40 13c4 6 7 13 8 21c1 13 7 22 19 30c11 0 23 1 35 0s17 -6 17 -18c0 -6 -1 -12 -2 -18c-3 -18 -8 -36 -8 -55c0 -14 4 -27 14 -36c18 -19 29 -42 40 -65c17 -36 26 -74 33 -112c3 -18 3 -37 4 -55c1 -28 2 -55 3 -83c1 -24 -2 -48 -6 -72
c-6 -31 -12 -61 -20 -92c-8 -29 -22 -56 -40 -80c-11 -14 -23 -27 -36 -39c-19 -18 -43 -26 -67 -33c-17 -4 -33 -7 -51 -6c-21 1 -31 -6 -38 -27c-3 -8 -5 -16 -7 -24c-3 -12 -8 -22 -22 -27zM284 599c-16 11 -42 7 -54 -8c-16 -18 -27 -38 -33 -61c-5 -21 -8 -43 -11 -66
c-2 -21 -6 -43 -5 -65c0 -4 -1 -9 -2 -14c-4 -19 -3 -37 -1 -56c1 -7 3 -14 3 -22c-1 -20 0 -40 3 -60c1 -6 3 -12 5 -17c3 -8 9 -11 15 -9c14 9 15 23 18 35c12 50 22 101 34 151c11 48 23 95 33 142c4 17 7 34 -5 50zM282 112c12 2 20 9 26 19l21 42c6 14 6 31 11 45
c9 29 9 60 11 90s0 61 0 93c-3 4 -6 9 -10 13c-11 -3 -13 -11 -15 -18c-7 -25 -14 -49 -20 -74c-5 -25 -10 -50 -15 -74c-8 -34 -16 -67 -23 -101c-2 -10 -5 -21 3 -31c3 -1 7 -2 11 -4z" />
    <glyph glyph-name="Thorn" unicode="&#xde;" horiz-adv-x="442" 
d="M179 133c-6 -7 -7 -14 -7 -22c0 -13 -2 -26 -2 -39c0 -3 1 -7 1 -11c3 -23 -9 -38 -33 -39c-23 -1 -47 -1 -70 0c-6 0 -11 3 -16 5c-6 9 -9 18 -9 28c1 21 2 41 3 61v13c-4 23 -3 46 -1 69c1 9 -2 19 -2 29c2 48 -1 97 0 146c1 9 2 19 3 29c0 8 -1 16 -1 24
c-1 9 -2 19 -1 28c4 33 2 65 0 97c-1 21 0 42 1 62v15c-3 20 -2 40 2 60c2 12 11 19 26 20c9 1 18 0 27 0c14 -1 28 -3 42 -3c19 1 28 -6 27 -28v-55c1 -8 2 -17 3 -25c2 -10 9 -18 19 -20c9 -2 18 -4 27 -4c41 -3 80 -13 113 -39c29 -24 50 -54 58 -93c4 -20 6 -40 6 -60
c0 -9 2 -17 3 -26c1 -19 -1 -38 -6 -57c-1 -5 0 -10 -1 -16c-7 -33 -22 -63 -46 -88c-7 -8 -17 -14 -26 -20c-12 -6 -25 -11 -37 -17c-21 -10 -45 -11 -68 -13c-13 -1 -24 -5 -35 -11zM173 345h-1v-55c0 -10 6 -19 16 -22c20 -7 41 -6 59 7c17 13 24 31 25 51
c1 17 1 34 0 50c-1 14 -1 28 -4 42c-2 11 -7 22 -15 31c-14 15 -31 18 -51 18c-14 -1 -25 -9 -28 -22c-3 -11 -4 -23 -4 -34c0 -22 2 -44 3 -66z" />
    <glyph glyph-name="Ugrave" unicode="&#xd9;" 
d="M336 681c25 1 50 3 76 3c5 1 11 -1 17 -2c16 -5 24 -16 22 -32c-4 -27 -1 -53 0 -79c1 -47 1 -93 0 -140c-1 -28 2 -57 0 -85c-1 -23 -2 -47 -2 -71c-1 -21 -1 -41 0 -62c0 -20 -3 -38 -6 -57c-6 -34 -22 -62 -42 -88c-10 -13 -24 -23 -37 -33c-26 -19 -55 -32 -86 -36
c-54 -7 -105 3 -150 37c-39 30 -66 68 -76 118c-6 30 -11 61 -9 93c1 42 -1 85 -1 127c0 7 1 14 2 21c0 5 1 10 0 14c-5 32 -3 64 -1 95c2 40 1 80 2 121c0 9 1 19 0 29c-1 12 5 20 16 27c14 1 29 1 45 1c13 1 26 1 38 2c14 2 24 -2 32 -13c6 -16 4 -32 4 -48
c1 -37 1 -74 1 -111c-1 -12 -2 -23 -3 -34v-18c1 -23 3 -47 2 -70c0 -23 1 -45 0 -68c0 -19 -2 -38 -2 -57c0 -28 1 -56 3 -84c3 -34 18 -53 51 -62c21 -6 42 0 59 14c19 15 27 36 26 60c-1 40 -2 80 -1 120c1 31 -1 61 0 92v90v153c0 14 4 26 20 33zM119 926c4 5 7 8 10 11
h71c11 0 18 -7 22 -16c4 -10 7 -20 10 -30c13 -41 26 -82 40 -124c-3 -4 -7 -9 -10 -14h-21c-17 0 -30 7 -39 23c-17 31 -36 63 -53 94c-10 18 -20 37 -30 56z" />
    <glyph glyph-name="Uacute" unicode="&#xda;" 
d="M336 681c25 1 50 3 76 3c5 1 11 -1 17 -2c16 -5 24 -16 22 -32c-4 -27 -1 -53 0 -79c1 -47 1 -93 0 -140c-1 -28 2 -57 0 -85c-1 -23 -2 -47 -2 -71c-1 -21 -1 -41 0 -62c0 -20 -3 -38 -6 -57c-6 -34 -22 -62 -42 -88c-10 -13 -24 -23 -37 -33c-26 -19 -55 -32 -86 -36
c-54 -7 -105 3 -150 37c-39 30 -66 68 -76 118c-6 30 -11 61 -9 93c1 42 -1 85 -1 127c0 7 1 14 2 21c0 5 1 10 0 14c-5 32 -3 64 -1 95c2 40 1 80 2 121c0 9 1 19 0 29c-1 12 5 20 16 27c14 1 29 1 45 1c13 1 26 1 38 2c14 2 24 -2 32 -13c6 -16 4 -32 4 -48
c1 -37 1 -74 1 -111c-1 -12 -2 -23 -3 -34v-18c1 -23 3 -47 2 -70c0 -23 1 -45 0 -68c0 -19 -2 -38 -2 -57c0 -28 1 -56 3 -84c3 -34 18 -53 51 -62c21 -6 42 0 59 14c19 15 27 36 26 60c-1 40 -2 80 -1 120c1 31 -1 61 0 92v90v153c0 14 4 26 20 33zM248 748h-32
c-3 2 -5 4 -9 7c1 6 0 12 2 17c7 25 15 50 23 74c4 13 8 25 10 37c3 10 8 17 17 23h23c10 0 20 1 30 2c9 1 17 1 23 -7c4 -10 -3 -16 -7 -23c-20 -37 -40 -73 -60 -109c-5 -8 -9 -16 -20 -21z" />
    <glyph glyph-name="Ucircumflex" unicode="&#xdb;" 
d="M336 681c25 1 50 3 76 3c5 1 11 -1 17 -2c16 -5 24 -16 22 -32c-4 -27 -1 -53 0 -79c1 -47 1 -93 0 -140c-1 -28 2 -57 0 -85c-1 -23 -2 -47 -2 -71c-1 -21 -1 -41 0 -62c0 -20 -3 -38 -6 -57c-6 -34 -22 -62 -42 -88c-10 -13 -24 -23 -37 -33c-26 -19 -55 -32 -86 -36
c-54 -7 -105 3 -150 37c-39 30 -66 68 -76 118c-6 30 -11 61 -9 93c1 42 -1 85 -1 127c0 7 1 14 2 21c0 5 1 10 0 14c-5 32 -3 64 -1 95c2 40 1 80 2 121c0 9 1 19 0 29c-1 12 5 20 16 27c14 1 29 1 45 1c13 1 26 1 38 2c14 2 24 -2 32 -13c6 -16 4 -32 4 -48
c1 -37 1 -74 1 -111c-1 -12 -2 -23 -3 -34v-18c1 -23 3 -47 2 -70c0 -23 1 -45 0 -68c0 -19 -2 -38 -2 -57c0 -28 1 -56 3 -84c3 -34 18 -53 51 -62c21 -6 42 0 59 14c19 15 27 36 26 60c-1 40 -2 80 -1 120c1 31 -1 61 0 92v90v153c0 14 4 26 20 33zM383 757
c-10 -15 -22 -10 -33 -10c-6 0 -12 1 -17 3c-6 2 -13 5 -18 10c-13 15 -26 30 -39 46c-3 3 -4 6 -7 9c-4 3 -8 5 -12 8h-19c-10 -4 -17 -13 -24 -22c-6 -8 -13 -18 -19 -27c-17 -23 -46 -29 -70 -24c-2 0 -3 0 -4 1c-2 2 -4 4 -6 5c-3 9 0 17 4 24c20 36 41 72 61 108
c5 9 12 17 23 23h77c16 0 27 -7 34 -21c7 -12 15 -24 22 -36c14 -25 27 -51 41 -77c3 -7 4 -14 6 -20z" />
    <glyph glyph-name="Udieresis" unicode="&#xdc;" 
d="M336 681c25 1 50 3 76 3c5 1 11 -1 17 -2c16 -5 24 -16 22 -32c-4 -27 -1 -53 0 -79c1 -47 1 -93 0 -140c-1 -28 2 -57 0 -85c-1 -23 -2 -47 -2 -71c-1 -21 -1 -41 0 -62c0 -20 -3 -38 -6 -57c-6 -34 -22 -62 -42 -88c-10 -13 -24 -23 -37 -33c-26 -19 -55 -32 -86 -36
c-54 -7 -105 3 -150 37c-39 30 -66 68 -76 118c-6 30 -11 61 -9 93c1 42 -1 85 -1 127c0 7 1 14 2 21c0 5 1 10 0 14c-5 32 -3 64 -1 95c2 40 1 80 2 121c0 9 1 19 0 29c-1 12 5 20 16 27c14 1 29 1 45 1c13 1 26 1 38 2c14 2 24 -2 32 -13c6 -16 4 -32 4 -48
c1 -37 1 -74 1 -111c-1 -12 -2 -23 -3 -34v-18c1 -23 3 -47 2 -70c0 -23 1 -45 0 -68c0 -19 -2 -38 -2 -57c0 -28 1 -56 3 -84c3 -34 18 -53 51 -62c21 -6 42 0 59 14c19 15 27 36 26 60c-1 40 -2 80 -1 120c1 31 -1 61 0 92v90v153c0 14 4 26 20 33zM332 872
c21 -10 35 -25 40 -48c4 -17 1 -34 -11 -47c-4 -5 -8 -9 -13 -13c-27 -22 -64 -10 -77 15c-6 10 -10 21 -13 32c-1 7 1 16 3 23c7 22 28 37 51 38h20zM185 872c21 -10 35 -25 40 -48c4 -17 1 -34 -11 -47c-4 -5 -8 -9 -13 -13c-27 -22 -64 -10 -77 15c-6 10 -10 21 -13 32
c-1 7 1 16 3 23c7 22 28 37 51 38h20z" />
    <glyph glyph-name="Yacute" unicode="&#xdd;" 
d="M311 13c-4 -4 -9 -9 -15 -14l-45 3c-8 0 -16 -1 -24 -1c-6 0 -12 -1 -18 -1c-12 0 -18 3 -28 17c0 49 -1 99 -1 150c0 14 2 28 2 42c0 35 -7 69 -18 102c-13 39 -24 79 -38 117s-25 76 -38 113c-11 33 -22 64 -33 97c-3 9 -4 18 -5 24c5 15 15 17 23 16c18 -2 34 2 52 2
c8 0 16 -1 24 0c19 0 32 -11 37 -29c3 -11 5 -21 6 -31c6 -31 13 -61 21 -90c6 -23 10 -46 15 -68c1 -6 2 -11 4 -16c2 -7 6 -15 16 -17c10 4 13 12 15 22c7 29 13 59 20 88c8 37 18 72 25 109c4 20 21 33 43 32c25 -1 49 -2 74 -4c5 0 9 -3 13 -4c6 -10 4 -19 1 -28
c-10 -30 -21 -60 -30 -89c-12 -36 -23 -72 -34 -108c-15 -45 -30 -89 -45 -134c-6 -18 -12 -36 -14 -54c-2 -24 -7 -47 -2 -72c3 -12 2 -24 0 -37c-2 -15 -1 -29 0 -44c1 -23 0 -45 -1 -68c0 -7 -1 -15 -2 -25zM248 750h-32c-3 2 -5 4 -9 7c1 6 0 12 2 17c7 25 15 50 23 74
c4 13 8 25 10 37c3 10 8 17 17 23h23c10 0 20 1 30 2c9 1 17 1 23 -7c4 -10 -3 -16 -7 -23c-20 -37 -40 -73 -60 -109c-5 -8 -9 -16 -20 -21z" />
    <glyph glyph-name="ugrave" unicode="&#xf9;" 
d="M336 681c25 1 50 3 76 3c5 1 11 -1 17 -2c16 -5 24 -16 22 -32c-4 -27 -1 -53 0 -79c1 -47 1 -93 0 -140c-1 -28 2 -57 0 -85c-1 -23 -2 -47 -2 -71c-1 -21 -1 -41 0 -62c0 -20 -3 -38 -6 -57c-6 -34 -22 -62 -42 -88c-10 -13 -24 -23 -37 -33c-26 -19 -55 -32 -86 -36
c-54 -7 -105 3 -150 37c-39 30 -66 68 -76 118c-6 30 -11 61 -9 93c1 42 -1 85 -1 127c0 7 1 14 2 21c0 5 1 10 0 14c-5 32 -3 64 -1 95c2 40 1 80 2 121c0 9 1 19 0 29c-1 12 5 20 16 27c14 1 29 1 45 1c13 1 26 1 38 2c14 2 24 -2 32 -13c6 -16 4 -32 4 -48
c1 -37 1 -74 1 -111c-1 -12 -2 -23 -3 -34v-18c1 -23 3 -47 2 -70c0 -23 1 -45 0 -68c0 -19 -2 -38 -2 -57c0 -28 1 -56 3 -84c3 -34 18 -53 51 -62c21 -6 42 0 59 14c19 15 27 36 26 60c-1 40 -2 80 -1 120c1 31 -1 61 0 92v90v153c0 14 4 26 20 33zM119 926c4 5 7 8 10 11
h71c11 0 18 -7 22 -16c4 -10 7 -20 10 -30c13 -41 26 -82 40 -124c-3 -4 -7 -9 -10 -14h-21c-17 0 -30 7 -39 23c-17 31 -36 63 -53 94c-10 18 -20 37 -30 56z" />
    <glyph glyph-name="uacute" unicode="&#xfa;" 
d="M336 681c25 1 50 3 76 3c5 1 11 -1 17 -2c16 -5 24 -16 22 -32c-4 -27 -1 -53 0 -79c1 -47 1 -93 0 -140c-1 -28 2 -57 0 -85c-1 -23 -2 -47 -2 -71c-1 -21 -1 -41 0 -62c0 -20 -3 -38 -6 -57c-6 -34 -22 -62 -42 -88c-10 -13 -24 -23 -37 -33c-26 -19 -55 -32 -86 -36
c-54 -7 -105 3 -150 37c-39 30 -66 68 -76 118c-6 30 -11 61 -9 93c1 42 -1 85 -1 127c0 7 1 14 2 21c0 5 1 10 0 14c-5 32 -3 64 -1 95c2 40 1 80 2 121c0 9 1 19 0 29c-1 12 5 20 16 27c14 1 29 1 45 1c13 1 26 1 38 2c14 2 24 -2 32 -13c6 -16 4 -32 4 -48
c1 -37 1 -74 1 -111c-1 -12 -2 -23 -3 -34v-18c1 -23 3 -47 2 -70c0 -23 1 -45 0 -68c0 -19 -2 -38 -2 -57c0 -28 1 -56 3 -84c3 -34 18 -53 51 -62c21 -6 42 0 59 14c19 15 27 36 26 60c-1 40 -2 80 -1 120c1 31 -1 61 0 92v90v153c0 14 4 26 20 33zM248 748h-32
c-3 2 -5 4 -9 7c1 6 0 12 2 17c7 25 15 50 23 74c4 13 8 25 10 37c3 10 8 17 17 23h23c10 0 20 1 30 2c9 1 17 1 23 -7c4 -10 -3 -16 -7 -23c-20 -37 -40 -73 -60 -109c-5 -8 -9 -16 -20 -21z" />
    <glyph glyph-name="ucircumflex" unicode="&#xfb;" 
d="M336 681c25 1 50 3 76 3c5 1 11 -1 17 -2c16 -5 24 -16 22 -32c-4 -27 -1 -53 0 -79c1 -47 1 -93 0 -140c-1 -28 2 -57 0 -85c-1 -23 -2 -47 -2 -71c-1 -21 -1 -41 0 -62c0 -20 -3 -38 -6 -57c-6 -34 -22 -62 -42 -88c-10 -13 -24 -23 -37 -33c-26 -19 -55 -32 -86 -36
c-54 -7 -105 3 -150 37c-39 30 -66 68 -76 118c-6 30 -11 61 -9 93c1 42 -1 85 -1 127c0 7 1 14 2 21c0 5 1 10 0 14c-5 32 -3 64 -1 95c2 40 1 80 2 121c0 9 1 19 0 29c-1 12 5 20 16 27c14 1 29 1 45 1c13 1 26 1 38 2c14 2 24 -2 32 -13c6 -16 4 -32 4 -48
c1 -37 1 -74 1 -111c-1 -12 -2 -23 -3 -34v-18c1 -23 3 -47 2 -70c0 -23 1 -45 0 -68c0 -19 -2 -38 -2 -57c0 -28 1 -56 3 -84c3 -34 18 -53 51 -62c21 -6 42 0 59 14c19 15 27 36 26 60c-1 40 -2 80 -1 120c1 31 -1 61 0 92v90v153c0 14 4 26 20 33zM383 757
c-10 -15 -22 -10 -33 -10c-6 0 -12 1 -17 3c-6 2 -13 5 -18 10c-13 15 -26 30 -39 46c-3 3 -4 6 -7 9c-4 3 -8 5 -12 8h-19c-10 -4 -17 -13 -24 -22c-6 -8 -13 -18 -19 -27c-17 -23 -46 -29 -70 -24c-2 0 -3 0 -4 1c-2 2 -4 4 -6 5c-3 9 0 17 4 24c20 36 41 72 61 108
c5 9 12 17 23 23h77c16 0 27 -7 34 -21c7 -12 15 -24 22 -36c14 -25 27 -51 41 -77c3 -7 4 -14 6 -20z" />
    <glyph glyph-name="udieresis" unicode="&#xfc;" 
d="M336 681c25 1 50 3 76 3c5 1 11 -1 17 -2c16 -5 24 -16 22 -32c-4 -27 -1 -53 0 -79c1 -47 1 -93 0 -140c-1 -28 2 -57 0 -85c-1 -23 -2 -47 -2 -71c-1 -21 -1 -41 0 -62c0 -20 -3 -38 -6 -57c-6 -34 -22 -62 -42 -88c-10 -13 -24 -23 -37 -33c-26 -19 -55 -32 -86 -36
c-54 -7 -105 3 -150 37c-39 30 -66 68 -76 118c-6 30 -11 61 -9 93c1 42 -1 85 -1 127c0 7 1 14 2 21c0 5 1 10 0 14c-5 32 -3 64 -1 95c2 40 1 80 2 121c0 9 1 19 0 29c-1 12 5 20 16 27c14 1 29 1 45 1c13 1 26 1 38 2c14 2 24 -2 32 -13c6 -16 4 -32 4 -48
c1 -37 1 -74 1 -111c-1 -12 -2 -23 -3 -34v-18c1 -23 3 -47 2 -70c0 -23 1 -45 0 -68c0 -19 -2 -38 -2 -57c0 -28 1 -56 3 -84c3 -34 18 -53 51 -62c21 -6 42 0 59 14c19 15 27 36 26 60c-1 40 -2 80 -1 120c1 31 -1 61 0 92v90v153c0 14 4 26 20 33zM332 872
c21 -10 35 -25 40 -48c4 -17 1 -34 -11 -47c-4 -5 -8 -9 -13 -13c-27 -22 -64 -10 -77 15c-6 10 -10 21 -13 32c-1 7 1 16 3 23c7 22 28 37 51 38h20zM185 872c21 -10 35 -25 40 -48c4 -17 1 -34 -11 -47c-4 -5 -8 -9 -13 -13c-27 -22 -64 -10 -77 15c-6 10 -10 21 -13 32
c-1 7 1 16 3 23c7 22 28 37 51 38h20z" />
    <glyph glyph-name="yacute" unicode="&#xfd;" 
d="M311 13c-4 -4 -9 -9 -15 -14l-45 3c-8 0 -16 -1 -24 -1c-6 0 -12 -1 -18 -1c-12 0 -18 3 -28 17c0 49 -1 99 -1 150c0 14 2 28 2 42c0 35 -7 69 -18 102c-13 39 -24 79 -38 117s-25 76 -38 113c-11 33 -22 64 -33 97c-3 9 -4 18 -5 24c5 15 15 17 23 16c18 -2 34 2 52 2
c8 0 16 -1 24 0c19 0 32 -11 37 -29c3 -11 5 -21 6 -31c6 -31 13 -61 21 -90c6 -23 10 -46 15 -68c1 -6 2 -11 4 -16c2 -7 6 -15 16 -17c10 4 13 12 15 22c7 29 13 59 20 88c8 37 18 72 25 109c4 20 21 33 43 32c25 -1 49 -2 74 -4c5 0 9 -3 13 -4c6 -10 4 -19 1 -28
c-10 -30 -21 -60 -30 -89c-12 -36 -23 -72 -34 -108c-15 -45 -30 -89 -45 -134c-6 -18 -12 -36 -14 -54c-2 -24 -7 -47 -2 -72c3 -12 2 -24 0 -37c-2 -15 -1 -29 0 -44c1 -23 0 -45 -1 -68c0 -7 -1 -15 -2 -25zM248 750h-32c-3 2 -5 4 -9 7c1 6 0 12 2 17c7 25 15 50 23 74
c4 13 8 25 10 37c3 10 8 17 17 23h23c10 0 20 1 30 2c9 1 17 1 23 -7c4 -10 -3 -16 -7 -23c-20 -37 -40 -73 -60 -109c-5 -8 -9 -16 -20 -21z" />
    <glyph glyph-name="Ntilde" unicode="&#xd1;" 
d="M144 676c9 -3 17 -12 21 -24c14 -42 36 -80 53 -121c14 -36 29 -71 44 -106c7 -17 15 -33 22 -49c4 -9 9 -15 22 -16c2 1 4 5 7 9c0 12 0 23 1 34c0 9 1 19 1 28c1 2 1 4 1 6c-5 32 -2 64 -2 96c1 29 1 57 2 85c0 7 -1 14 -2 21c0 4 0 9 -1 13c-1 15 11 29 29 29
c24 -1 48 0 71 -1c7 0 14 -2 20 -4c10 -4 15 -12 16 -23v-4c-4 -57 3 -113 0 -169c-1 -18 0 -36 0 -54c0 -7 -1 -13 -2 -20c0 -3 -1 -7 -1 -11c4 -24 4 -48 0 -72c-1 -9 0 -18 0 -27c1 -43 2 -87 3 -130v-113c-1 -12 -2 -23 -4 -35c0 -4 -3 -8 -4 -11c-3 -2 -6 -3 -8 -3
c-25 -2 -49 -2 -74 -3c-7 5 -16 9 -22 15c-6 5 -9 13 -13 20c-13 28 -27 57 -40 85c-15 32 -29 64 -44 96c-11 24 -23 47 -34 70c-4 9 -10 16 -19 19c-9 -2 -12 -7 -12 -15v-23c1 -14 3 -28 3 -43c0 -37 -2 -74 -2 -111c0 -25 1 -50 2 -75c0 -6 -2 -12 -3 -18
c-3 -14 -14 -20 -27 -20c-26 -1 -52 -1 -79 0c-14 0 -21 6 -24 21c-2 10 -3 20 -2 30c3 31 3 62 0 93c-2 21 -1 42 0 63c0 13 1 25 2 38c0 8 -1 16 -1 24c0 30 0 59 1 89c0 2 1 5 0 8c-5 33 -1 66 -2 99v169c0 8 2 16 3 24c1 10 7 16 17 19c17 4 33 3 50 2c9 -1 18 -2 31 -4
zM323 862c4 0 8 1 12 0c10 -1 16 -7 16 -18c0 -4 0 -9 -1 -14c-7 -17 -13 -35 -23 -51c-17 -28 -38 -31 -64 -24c-18 4 -36 11 -55 16c-13 4 -26 8 -40 4c-11 -2 -20 -6 -26 -16c-2 -3 -5 -5 -6 -8c-7 -10 -16 -14 -29 -11c-3 4 -7 8 -11 12c0 17 5 32 12 46
c5 10 11 20 18 28c20 25 46 31 76 23c16 -4 32 -9 48 -13c9 -2 19 -3 28 -3c11 -1 21 3 28 12c5 6 11 12 17 17z" />
    <glyph glyph-name="ntilde" unicode="&#xf1;" 
d="M144 676c9 -3 17 -12 21 -24c14 -42 36 -80 53 -121c14 -36 29 -71 44 -106c7 -17 15 -33 22 -49c4 -9 9 -15 22 -16c2 1 4 5 7 9c0 12 0 23 1 34c0 9 1 19 1 28c1 2 1 4 1 6c-5 32 -2 64 -2 96c1 29 1 57 2 85c0 7 -1 14 -2 21c0 4 0 9 -1 13c-1 15 11 29 29 29
c24 -1 48 0 71 -1c7 0 14 -2 20 -4c10 -4 15 -12 16 -23v-4c-4 -57 3 -113 0 -169c-1 -18 0 -36 0 -54c0 -7 -1 -13 -2 -20c0 -3 -1 -7 -1 -11c4 -24 4 -48 0 -72c-1 -9 0 -18 0 -27c1 -43 2 -87 3 -130v-113c-1 -12 -2 -23 -4 -35c0 -4 -3 -8 -4 -11c-3 -2 -6 -3 -8 -3
c-25 -2 -49 -2 -74 -3c-7 5 -16 9 -22 15c-6 5 -9 13 -13 20c-13 28 -27 57 -40 85c-15 32 -29 64 -44 96c-11 24 -23 47 -34 70c-4 9 -10 16 -19 19c-9 -2 -12 -7 -12 -15v-23c1 -14 3 -28 3 -43c0 -37 -2 -74 -2 -111c0 -25 1 -50 2 -75c0 -6 -2 -12 -3 -18
c-3 -14 -14 -20 -27 -20c-26 -1 -52 -1 -79 0c-14 0 -21 6 -24 21c-2 10 -3 20 -2 30c3 31 3 62 0 93c-2 21 -1 42 0 63c0 13 1 25 2 38c0 8 -1 16 -1 24c0 30 0 59 1 89c0 2 1 5 0 8c-5 33 -1 66 -2 99v169c0 8 2 16 3 24c1 10 7 16 17 19c17 4 33 3 50 2c9 -1 18 -2 31 -4
zM323 862c4 0 8 1 12 0c10 -1 16 -7 16 -18c0 -4 0 -9 -1 -14c-7 -17 -13 -35 -23 -51c-17 -28 -38 -31 -64 -24c-18 4 -36 11 -55 16c-13 4 -26 8 -40 4c-11 -2 -20 -6 -26 -16c-2 -3 -5 -5 -6 -8c-7 -10 -16 -14 -29 -11c-3 4 -7 8 -11 12c0 17 5 32 12 46
c5 10 11 20 18 28c20 25 46 31 76 23c16 -4 32 -9 48 -13c9 -2 19 -3 28 -3c11 -1 21 3 28 12c5 6 11 12 17 17z" />
    <glyph glyph-name="Ograve" unicode="&#xd2;" horiz-adv-x="531" 
d="M43 348c2 28 2 53 5 77c4 44 14 87 29 129c13 35 33 67 61 93c17 16 36 29 58 39c8 3 17 5 26 7c24 5 50 5 75 4c3 0 7 -2 10 -3c22 -8 45 -15 65 -28s38 -29 50 -50c16 -26 30 -53 39 -82c8 -27 14 -55 19 -84c3 -17 2 -35 3 -52l3 -36c3 -26 0 -52 -1 -78
c0 -16 -3 -32 -6 -47c-3 -21 -7 -41 -12 -61c-7 -27 -17 -53 -29 -78c-2 -4 -5 -9 -8 -13c-18 -22 -36 -44 -60 -60c-19 -13 -40 -20 -62 -24c-9 -1 -18 -2 -27 -4c-12 -4 -25 -3 -38 -1c-11 3 -21 6 -32 8c-23 5 -41 18 -58 32c-31 25 -51 57 -68 92c-16 36 -23 73 -31 110
c-3 18 -5 36 -6 54c-2 20 -4 40 -5 56zM177 366c1 -36 2 -62 3 -89c1 -16 3 -32 6 -48c4 -17 9 -33 13 -51c4 -20 13 -39 24 -56c16 -23 44 -29 68 -15c15 9 24 24 30 39c10 24 15 48 21 73c5 26 9 52 11 78c4 41 -2 83 -2 125l-1 1c-3 20 -7 39 -9 59c-2 22 -8 44 -17 66
c-7 19 -18 36 -37 46c-14 9 -29 9 -44 0c-8 -5 -15 -11 -21 -19c-10 -15 -16 -32 -23 -49c-10 -24 -12 -49 -15 -74c-4 -32 -6 -63 -7 -86zM139 921c4 5 7 8 10 11h71c11 0 18 -7 22 -16c4 -10 7 -20 10 -30c13 -41 26 -82 40 -124c-3 -4 -7 -9 -10 -14h-21
c-17 0 -30 7 -39 23c-17 31 -36 63 -53 94c-10 18 -20 37 -30 56z" />
    <glyph glyph-name="Oacute" unicode="&#xd3;" horiz-adv-x="531" 
d="M43 348c2 28 2 53 5 77c4 44 14 87 29 129c13 35 33 67 61 93c17 16 36 29 58 39c8 3 17 5 26 7c24 5 50 5 75 4c3 0 7 -2 10 -3c22 -8 45 -15 65 -28s38 -29 50 -50c16 -26 30 -53 39 -82c8 -27 14 -55 19 -84c3 -17 2 -35 3 -52l3 -36c3 -26 0 -52 -1 -78
c0 -16 -3 -32 -6 -47c-3 -21 -7 -41 -12 -61c-7 -27 -17 -53 -29 -78c-2 -4 -5 -9 -8 -13c-18 -22 -36 -44 -60 -60c-19 -13 -40 -20 -62 -24c-9 -1 -18 -2 -27 -4c-12 -4 -25 -3 -38 -1c-11 3 -21 6 -32 8c-23 5 -41 18 -58 32c-31 25 -51 57 -68 92c-16 36 -23 73 -31 110
c-3 18 -5 36 -6 54c-2 20 -4 40 -5 56zM177 366c1 -36 2 -62 3 -89c1 -16 3 -32 6 -48c4 -17 9 -33 13 -51c4 -20 13 -39 24 -56c16 -23 44 -29 68 -15c15 9 24 24 30 39c10 24 15 48 21 73c5 26 9 52 11 78c4 41 -2 83 -2 125l-1 1c-3 20 -7 39 -9 59c-2 22 -8 44 -17 66
c-7 19 -18 36 -37 46c-14 9 -29 9 -44 0c-8 -5 -15 -11 -21 -19c-10 -15 -16 -32 -23 -49c-10 -24 -12 -49 -15 -74c-4 -32 -6 -63 -7 -86zM266 749h-32c-3 2 -5 4 -9 7c1 6 0 12 2 17c7 25 15 50 23 74c4 13 8 25 10 37c3 10 8 17 17 23h23c10 0 20 1 30 2c9 1 17 1 23 -7
c4 -10 -3 -16 -7 -23c-20 -37 -40 -73 -60 -109c-5 -8 -9 -16 -20 -21z" />
    <glyph glyph-name="Ocircumflex" unicode="&#xd4;" horiz-adv-x="531" 
d="M43 348c2 28 2 53 5 77c4 44 14 87 29 129c13 35 33 67 61 93c17 16 36 29 58 39c8 3 17 5 26 7c24 5 50 5 75 4c3 0 7 -2 10 -3c22 -8 45 -15 65 -28s38 -29 50 -50c16 -26 30 -53 39 -82c8 -27 14 -55 19 -84c3 -17 2 -35 3 -52l3 -36c3 -26 0 -52 -1 -78
c0 -16 -3 -32 -6 -47c-3 -21 -7 -41 -12 -61c-7 -27 -17 -53 -29 -78c-2 -4 -5 -9 -8 -13c-18 -22 -36 -44 -60 -60c-19 -13 -40 -20 -62 -24c-9 -1 -18 -2 -27 -4c-12 -4 -25 -3 -38 -1c-11 3 -21 6 -32 8c-23 5 -41 18 -58 32c-31 25 -51 57 -68 92c-16 36 -23 73 -31 110
c-3 18 -5 36 -6 54c-2 20 -4 40 -5 56zM177 366c1 -36 2 -62 3 -89c1 -16 3 -32 6 -48c4 -17 9 -33 13 -51c4 -20 13 -39 24 -56c16 -23 44 -29 68 -15c15 9 24 24 30 39c10 24 15 48 21 73c5 26 9 52 11 78c4 41 -2 83 -2 125l-1 1c-3 20 -7 39 -9 59c-2 22 -8 44 -17 66
c-7 19 -18 36 -37 46c-14 9 -29 9 -44 0c-8 -5 -15 -11 -21 -19c-10 -15 -16 -32 -23 -49c-10 -24 -12 -49 -15 -74c-4 -32 -6 -63 -7 -86zM405 761c-10 -15 -22 -10 -33 -10c-6 0 -12 1 -17 3c-6 2 -13 5 -18 10c-13 15 -26 30 -39 46c-3 3 -4 6 -7 9c-4 3 -8 5 -12 8h-19
c-10 -4 -17 -13 -24 -22c-6 -8 -13 -18 -19 -27c-17 -23 -46 -29 -70 -24c-2 0 -3 0 -4 1c-2 2 -4 4 -6 5c-3 9 0 17 4 24c20 36 41 72 61 108c5 9 12 17 23 23h77c16 0 27 -7 34 -21c7 -12 15 -24 22 -36c14 -25 27 -51 41 -77c3 -7 4 -14 6 -20z" />
    <glyph glyph-name="Otilde" unicode="&#xd5;" horiz-adv-x="531" 
d="M43 348c2 28 2 53 5 77c4 44 14 87 29 129c13 35 33 67 61 93c17 16 36 29 58 39c8 3 17 5 26 7c24 5 50 5 75 4c3 0 7 -2 10 -3c22 -8 45 -15 65 -28s38 -29 50 -50c16 -26 30 -53 39 -82c8 -27 14 -55 19 -84c3 -17 2 -35 3 -52l3 -36c3 -26 0 -52 -1 -78
c0 -16 -3 -32 -6 -47c-3 -21 -7 -41 -12 -61c-7 -27 -17 -53 -29 -78c-2 -4 -5 -9 -8 -13c-18 -22 -36 -44 -60 -60c-19 -13 -40 -20 -62 -24c-9 -1 -18 -2 -27 -4c-12 -4 -25 -3 -38 -1c-11 3 -21 6 -32 8c-23 5 -41 18 -58 32c-31 25 -51 57 -68 92c-16 36 -23 73 -31 110
c-3 18 -5 36 -6 54c-2 20 -4 40 -5 56zM177 366c1 -36 2 -62 3 -89c1 -16 3 -32 6 -48c4 -17 9 -33 13 -51c4 -20 13 -39 24 -56c16 -23 44 -29 68 -15c15 9 24 24 30 39c10 24 15 48 21 73c5 26 9 52 11 78c4 41 -2 83 -2 125l-1 1c-3 20 -7 39 -9 59c-2 22 -8 44 -17 66
c-7 19 -18 36 -37 46c-14 9 -29 9 -44 0c-8 -5 -15 -11 -21 -19c-10 -15 -16 -32 -23 -49c-10 -24 -12 -49 -15 -74c-4 -32 -6 -63 -7 -86zM358 875c4 0 8 1 12 0c10 -1 16 -7 16 -18c0 -4 0 -9 -1 -14c-7 -17 -13 -35 -23 -51c-17 -28 -38 -31 -64 -24c-18 4 -36 11 -55 16
c-13 4 -26 8 -40 4c-11 -2 -20 -6 -26 -16c-2 -3 -5 -5 -6 -8c-7 -10 -16 -14 -29 -11c-3 4 -7 8 -11 12c0 17 5 32 12 46c5 10 11 20 18 28c20 25 46 31 76 23c16 -4 32 -9 48 -13c9 -2 19 -3 28 -3c11 -1 21 3 28 12c5 6 11 12 17 17z" />
    <glyph glyph-name="Odieresis" unicode="&#xd6;" horiz-adv-x="531" 
d="M43 348c2 28 2 53 5 77c4 44 14 87 29 129c13 35 33 67 61 93c17 16 36 29 58 39c8 3 17 5 26 7c24 5 50 5 75 4c3 0 7 -2 10 -3c22 -8 45 -15 65 -28s38 -29 50 -50c16 -26 30 -53 39 -82c8 -27 14 -55 19 -84c3 -17 2 -35 3 -52l3 -36c3 -26 0 -52 -1 -78
c0 -16 -3 -32 -6 -47c-3 -21 -7 -41 -12 -61c-7 -27 -17 -53 -29 -78c-2 -4 -5 -9 -8 -13c-18 -22 -36 -44 -60 -60c-19 -13 -40 -20 -62 -24c-9 -1 -18 -2 -27 -4c-12 -4 -25 -3 -38 -1c-11 3 -21 6 -32 8c-23 5 -41 18 -58 32c-31 25 -51 57 -68 92c-16 36 -23 73 -31 110
c-3 18 -5 36 -6 54c-2 20 -4 40 -5 56zM177 366c1 -36 2 -62 3 -89c1 -16 3 -32 6 -48c4 -17 9 -33 13 -51c4 -20 13 -39 24 -56c16 -23 44 -29 68 -15c15 9 24 24 30 39c10 24 15 48 21 73c5 26 9 52 11 78c4 41 -2 83 -2 125l-1 1c-3 20 -7 39 -9 59c-2 22 -8 44 -17 66
c-7 19 -18 36 -37 46c-14 9 -29 9 -44 0c-8 -5 -15 -11 -21 -19c-10 -15 -16 -32 -23 -49c-10 -24 -12 -49 -15 -74c-4 -32 -6 -63 -7 -86zM347 880c21 -10 35 -25 40 -48c4 -17 1 -34 -11 -47c-4 -5 -8 -9 -13 -13c-27 -22 -64 -10 -77 15c-6 10 -10 21 -13 32
c-1 7 1 16 3 23c7 22 28 37 51 38h20zM200 880c21 -10 35 -25 40 -48c4 -17 1 -34 -11 -47c-4 -5 -8 -9 -13 -13c-27 -22 -64 -10 -77 15c-6 10 -10 21 -13 32c-1 7 1 16 3 23c7 22 28 37 51 38h20z" />
    <glyph glyph-name="ograve" unicode="&#xf2;" horiz-adv-x="531" 
d="M43 348c2 28 2 53 5 77c4 44 14 87 29 129c13 35 33 67 61 93c17 16 36 29 58 39c8 3 17 5 26 7c24 5 50 5 75 4c3 0 7 -2 10 -3c22 -8 45 -15 65 -28s38 -29 50 -50c16 -26 30 -53 39 -82c8 -27 14 -55 19 -84c3 -17 2 -35 3 -52l3 -36c3 -26 0 -52 -1 -78
c0 -16 -3 -32 -6 -47c-3 -21 -7 -41 -12 -61c-7 -27 -17 -53 -29 -78c-2 -4 -5 -9 -8 -13c-18 -22 -36 -44 -60 -60c-19 -13 -40 -20 -62 -24c-9 -1 -18 -2 -27 -4c-12 -4 -25 -3 -38 -1c-11 3 -21 6 -32 8c-23 5 -41 18 -58 32c-31 25 -51 57 -68 92c-16 36 -23 73 -31 110
c-3 18 -5 36 -6 54c-2 20 -4 40 -5 56zM177 366c1 -36 2 -62 3 -89c1 -16 3 -32 6 -48c4 -17 9 -33 13 -51c4 -20 13 -39 24 -56c16 -23 44 -29 68 -15c15 9 24 24 30 39c10 24 15 48 21 73c5 26 9 52 11 78c4 41 -2 83 -2 125l-1 1c-3 20 -7 39 -9 59c-2 22 -8 44 -17 66
c-7 19 -18 36 -37 46c-14 9 -29 9 -44 0c-8 -5 -15 -11 -21 -19c-10 -15 -16 -32 -23 -49c-10 -24 -12 -49 -15 -74c-4 -32 -6 -63 -7 -86zM139 921c4 5 7 8 10 11h71c11 0 18 -7 22 -16c4 -10 7 -20 10 -30c13 -41 26 -82 40 -124c-3 -4 -7 -9 -10 -14h-21
c-17 0 -30 7 -39 23c-17 31 -36 63 -53 94c-10 18 -20 37 -30 56z" />
    <glyph glyph-name="oacute" unicode="&#xf3;" horiz-adv-x="531" 
d="M43 348c2 28 2 53 5 77c4 44 14 87 29 129c13 35 33 67 61 93c17 16 36 29 58 39c8 3 17 5 26 7c24 5 50 5 75 4c3 0 7 -2 10 -3c22 -8 45 -15 65 -28s38 -29 50 -50c16 -26 30 -53 39 -82c8 -27 14 -55 19 -84c3 -17 2 -35 3 -52l3 -36c3 -26 0 -52 -1 -78
c0 -16 -3 -32 -6 -47c-3 -21 -7 -41 -12 -61c-7 -27 -17 -53 -29 -78c-2 -4 -5 -9 -8 -13c-18 -22 -36 -44 -60 -60c-19 -13 -40 -20 -62 -24c-9 -1 -18 -2 -27 -4c-12 -4 -25 -3 -38 -1c-11 3 -21 6 -32 8c-23 5 -41 18 -58 32c-31 25 -51 57 -68 92c-16 36 -23 73 -31 110
c-3 18 -5 36 -6 54c-2 20 -4 40 -5 56zM177 366c1 -36 2 -62 3 -89c1 -16 3 -32 6 -48c4 -17 9 -33 13 -51c4 -20 13 -39 24 -56c16 -23 44 -29 68 -15c15 9 24 24 30 39c10 24 15 48 21 73c5 26 9 52 11 78c4 41 -2 83 -2 125l-1 1c-3 20 -7 39 -9 59c-2 22 -8 44 -17 66
c-7 19 -18 36 -37 46c-14 9 -29 9 -44 0c-8 -5 -15 -11 -21 -19c-10 -15 -16 -32 -23 -49c-10 -24 -12 -49 -15 -74c-4 -32 -6 -63 -7 -86zM266 749h-32c-3 2 -5 4 -9 7c1 6 0 12 2 17c7 25 15 50 23 74c4 13 8 25 10 37c3 10 8 17 17 23h23c10 0 20 1 30 2c9 1 17 1 23 -7
c4 -10 -3 -16 -7 -23c-20 -37 -40 -73 -60 -109c-5 -8 -9 -16 -20 -21z" />
    <glyph glyph-name="ocircumflex" unicode="&#xf4;" horiz-adv-x="531" 
d="M43 348c2 28 2 53 5 77c4 44 14 87 29 129c13 35 33 67 61 93c17 16 36 29 58 39c8 3 17 5 26 7c24 5 50 5 75 4c3 0 7 -2 10 -3c22 -8 45 -15 65 -28s38 -29 50 -50c16 -26 30 -53 39 -82c8 -27 14 -55 19 -84c3 -17 2 -35 3 -52l3 -36c3 -26 0 -52 -1 -78
c0 -16 -3 -32 -6 -47c-3 -21 -7 -41 -12 -61c-7 -27 -17 -53 -29 -78c-2 -4 -5 -9 -8 -13c-18 -22 -36 -44 -60 -60c-19 -13 -40 -20 -62 -24c-9 -1 -18 -2 -27 -4c-12 -4 -25 -3 -38 -1c-11 3 -21 6 -32 8c-23 5 -41 18 -58 32c-31 25 -51 57 -68 92c-16 36 -23 73 -31 110
c-3 18 -5 36 -6 54c-2 20 -4 40 -5 56zM177 366c1 -36 2 -62 3 -89c1 -16 3 -32 6 -48c4 -17 9 -33 13 -51c4 -20 13 -39 24 -56c16 -23 44 -29 68 -15c15 9 24 24 30 39c10 24 15 48 21 73c5 26 9 52 11 78c4 41 -2 83 -2 125l-1 1c-3 20 -7 39 -9 59c-2 22 -8 44 -17 66
c-7 19 -18 36 -37 46c-14 9 -29 9 -44 0c-8 -5 -15 -11 -21 -19c-10 -15 -16 -32 -23 -49c-10 -24 -12 -49 -15 -74c-4 -32 -6 -63 -7 -86zM405 761c-10 -15 -22 -10 -33 -10c-6 0 -12 1 -17 3c-6 2 -13 5 -18 10c-13 15 -26 30 -39 46c-3 3 -4 6 -7 9c-4 3 -8 5 -12 8h-19
c-10 -4 -17 -13 -24 -22c-6 -8 -13 -18 -19 -27c-17 -23 -46 -29 -70 -24c-2 0 -3 0 -4 1c-2 2 -4 4 -6 5c-3 9 0 17 4 24c20 36 41 72 61 108c5 9 12 17 23 23h77c16 0 27 -7 34 -21c7 -12 15 -24 22 -36c14 -25 27 -51 41 -77c3 -7 4 -14 6 -20z" />
    <glyph glyph-name="otilde" unicode="&#xf5;" horiz-adv-x="531" 
d="M43 348c2 28 2 53 5 77c4 44 14 87 29 129c13 35 33 67 61 93c17 16 36 29 58 39c8 3 17 5 26 7c24 5 50 5 75 4c3 0 7 -2 10 -3c22 -8 45 -15 65 -28s38 -29 50 -50c16 -26 30 -53 39 -82c8 -27 14 -55 19 -84c3 -17 2 -35 3 -52l3 -36c3 -26 0 -52 -1 -78
c0 -16 -3 -32 -6 -47c-3 -21 -7 -41 -12 -61c-7 -27 -17 -53 -29 -78c-2 -4 -5 -9 -8 -13c-18 -22 -36 -44 -60 -60c-19 -13 -40 -20 -62 -24c-9 -1 -18 -2 -27 -4c-12 -4 -25 -3 -38 -1c-11 3 -21 6 -32 8c-23 5 -41 18 -58 32c-31 25 -51 57 -68 92c-16 36 -23 73 -31 110
c-3 18 -5 36 -6 54c-2 20 -4 40 -5 56zM177 366c1 -36 2 -62 3 -89c1 -16 3 -32 6 -48c4 -17 9 -33 13 -51c4 -20 13 -39 24 -56c16 -23 44 -29 68 -15c15 9 24 24 30 39c10 24 15 48 21 73c5 26 9 52 11 78c4 41 -2 83 -2 125l-1 1c-3 20 -7 39 -9 59c-2 22 -8 44 -17 66
c-7 19 -18 36 -37 46c-14 9 -29 9 -44 0c-8 -5 -15 -11 -21 -19c-10 -15 -16 -32 -23 -49c-10 -24 -12 -49 -15 -74c-4 -32 -6 -63 -7 -86zM358 875c4 0 8 1 12 0c10 -1 16 -7 16 -18c0 -4 0 -9 -1 -14c-7 -17 -13 -35 -23 -51c-17 -28 -38 -31 -64 -24c-18 4 -36 11 -55 16
c-13 4 -26 8 -40 4c-11 -2 -20 -6 -26 -16c-2 -3 -5 -5 -6 -8c-7 -10 -16 -14 -29 -11c-3 4 -7 8 -11 12c0 17 5 32 12 46c5 10 11 20 18 28c20 25 46 31 76 23c16 -4 32 -9 48 -13c9 -2 19 -3 28 -3c11 -1 21 3 28 12c5 6 11 12 17 17z" />
    <glyph glyph-name="odieresis" unicode="&#xf6;" horiz-adv-x="531" 
d="M43 348c2 28 2 53 5 77c4 44 14 87 29 129c13 35 33 67 61 93c17 16 36 29 58 39c8 3 17 5 26 7c24 5 50 5 75 4c3 0 7 -2 10 -3c22 -8 45 -15 65 -28s38 -29 50 -50c16 -26 30 -53 39 -82c8 -27 14 -55 19 -84c3 -17 2 -35 3 -52l3 -36c3 -26 0 -52 -1 -78
c0 -16 -3 -32 -6 -47c-3 -21 -7 -41 -12 -61c-7 -27 -17 -53 -29 -78c-2 -4 -5 -9 -8 -13c-18 -22 -36 -44 -60 -60c-19 -13 -40 -20 -62 -24c-9 -1 -18 -2 -27 -4c-12 -4 -25 -3 -38 -1c-11 3 -21 6 -32 8c-23 5 -41 18 -58 32c-31 25 -51 57 -68 92c-16 36 -23 73 -31 110
c-3 18 -5 36 -6 54c-2 20 -4 40 -5 56zM177 366c1 -36 2 -62 3 -89c1 -16 3 -32 6 -48c4 -17 9 -33 13 -51c4 -20 13 -39 24 -56c16 -23 44 -29 68 -15c15 9 24 24 30 39c10 24 15 48 21 73c5 26 9 52 11 78c4 41 -2 83 -2 125l-1 1c-3 20 -7 39 -9 59c-2 22 -8 44 -17 66
c-7 19 -18 36 -37 46c-14 9 -29 9 -44 0c-8 -5 -15 -11 -21 -19c-10 -15 -16 -32 -23 -49c-10 -24 -12 -49 -15 -74c-4 -32 -6 -63 -7 -86zM347 880c21 -10 35 -25 40 -48c4 -17 1 -34 -11 -47c-4 -5 -8 -9 -13 -13c-27 -22 -64 -10 -77 15c-6 10 -10 21 -13 32
c-1 7 1 16 3 23c7 22 28 37 51 38h20zM200 880c21 -10 35 -25 40 -48c4 -17 1 -34 -11 -47c-4 -5 -8 -9 -13 -13c-27 -22 -64 -10 -77 15c-6 10 -10 21 -13 32c-1 7 1 16 3 23c7 22 28 37 51 38h20z" />
    <glyph glyph-name="agrave" unicode="&#xe0;" 
d="M448 14c-4 -5 -8 -9 -11 -13c-19 -3 -36 -5 -53 -2c-7 1 -16 -1 -23 -1c-6 0 -12 -1 -18 -1c-15 0 -29 11 -31 26c-1 9 -2 18 -3 26c-3 20 -17 33 -37 33c-16 1 -30 0 -45 0c-24 0 -38 -12 -42 -34c-2 -8 -3 -15 -4 -23c-2 -14 -7 -24 -25 -29c-30 1 -65 3 -99 4
c-9 3 -12 10 -14 16c4 26 8 49 13 74c4 26 10 54 15 81c5 29 10 58 15 88c2 13 5 28 7 42c4 25 8 52 12 78c2 13 6 26 8 38c4 15 6 30 9 45c2 9 3 18 5 27c6 31 12 62 15 93c0 9 4 17 5 25c4 16 8 33 10 50c2 13 7 22 21 29c8 1 17 1 27 1c21 1 41 3 62 3c14 0 28 -2 41 -4
s21 -11 24 -22c4 -14 7 -30 10 -45s6 -31 8 -48c2 -23 10 -47 12 -71c1 -20 6 -38 11 -56c4 -23 8 -45 12 -68c4 -28 7 -57 15 -84c4 -15 5 -29 7 -43c4 -21 7 -40 11 -59c5 -24 9 -46 13 -70c3 -19 8 -38 11 -58c3 -16 4 -32 6 -48zM245 384c-13 -7 -14 -20 -14 -31
c-2 -34 -10 -66 -15 -100c0 -5 -2 -11 -3 -16c-3 -37 16 -42 43 -40c12 1 21 9 24 21c2 15 0 28 -2 41c-4 23 -7 46 -12 68c-2 14 -4 27 -7 39c-2 7 -4 15 -14 18zM117 924c4 5 7 8 10 11h71c11 0 18 -7 22 -16c4 -10 7 -20 10 -30c13 -41 26 -82 40 -124
c-3 -4 -7 -9 -10 -14h-21c-17 0 -30 7 -39 23c-17 31 -36 63 -53 94c-10 18 -20 37 -30 56z" />
    <glyph glyph-name="aacute" unicode="&#xe1;" 
d="M448 14c-4 -5 -8 -9 -11 -13c-19 -3 -36 -5 -53 -2c-7 1 -16 -1 -23 -1c-6 0 -12 -1 -18 -1c-15 0 -29 11 -31 26c-1 9 -2 18 -3 26c-3 20 -17 33 -37 33c-16 1 -30 0 -45 0c-24 0 -38 -12 -42 -34c-2 -8 -3 -15 -4 -23c-2 -14 -7 -24 -25 -29c-30 1 -65 3 -99 4
c-9 3 -12 10 -14 16c4 26 8 49 13 74c4 26 10 54 15 81c5 29 10 58 15 88c2 13 5 28 7 42c4 25 8 52 12 78c2 13 6 26 8 38c4 15 6 30 9 45c2 9 3 18 5 27c6 31 12 62 15 93c0 9 4 17 5 25c4 16 8 33 10 50c2 13 7 22 21 29c8 1 17 1 27 1c21 1 41 3 62 3c14 0 28 -2 41 -4
s21 -11 24 -22c4 -14 7 -30 10 -45s6 -31 8 -48c2 -23 10 -47 12 -71c1 -20 6 -38 11 -56c4 -23 8 -45 12 -68c4 -28 7 -57 15 -84c4 -15 5 -29 7 -43c4 -21 7 -40 11 -59c5 -24 9 -46 13 -70c3 -19 8 -38 11 -58c3 -16 4 -32 6 -48zM245 384c-13 -7 -14 -20 -14 -31
c-2 -34 -10 -66 -15 -100c0 -5 -2 -11 -3 -16c-3 -37 16 -42 43 -40c12 1 21 9 24 21c2 15 0 28 -2 41c-4 23 -7 46 -12 68c-2 14 -4 27 -7 39c-2 7 -4 15 -14 18zM251 754h-32c-3 2 -5 4 -9 7c1 6 0 12 2 17c7 25 15 50 23 74c4 13 8 25 10 37c3 10 8 17 17 23h23
c10 0 20 1 30 2c9 1 17 1 23 -7c4 -10 -3 -16 -7 -23c-20 -37 -40 -73 -60 -109c-5 -8 -9 -16 -20 -21z" />
    <glyph glyph-name="acircumflex" unicode="&#xe2;" 
d="M448 14c-4 -5 -8 -9 -11 -13c-19 -3 -36 -5 -53 -2c-7 1 -16 -1 -23 -1c-6 0 -12 -1 -18 -1c-15 0 -29 11 -31 26c-1 9 -2 18 -3 26c-3 20 -17 33 -37 33c-16 1 -30 0 -45 0c-24 0 -38 -12 -42 -34c-2 -8 -3 -15 -4 -23c-2 -14 -7 -24 -25 -29c-30 1 -65 3 -99 4
c-9 3 -12 10 -14 16c4 26 8 49 13 74c4 26 10 54 15 81c5 29 10 58 15 88c2 13 5 28 7 42c4 25 8 52 12 78c2 13 6 26 8 38c4 15 6 30 9 45c2 9 3 18 5 27c6 31 12 62 15 93c0 9 4 17 5 25c4 16 8 33 10 50c2 13 7 22 21 29c8 1 17 1 27 1c21 1 41 3 62 3c14 0 28 -2 41 -4
s21 -11 24 -22c4 -14 7 -30 10 -45s6 -31 8 -48c2 -23 10 -47 12 -71c1 -20 6 -38 11 -56c4 -23 8 -45 12 -68c4 -28 7 -57 15 -84c4 -15 5 -29 7 -43c4 -21 7 -40 11 -59c5 -24 9 -46 13 -70c3 -19 8 -38 11 -58c3 -16 4 -32 6 -48zM245 384c-13 -7 -14 -20 -14 -31
c-2 -34 -10 -66 -15 -100c0 -5 -2 -11 -3 -16c-3 -37 16 -42 43 -40c12 1 21 9 24 21c2 15 0 28 -2 41c-4 23 -7 46 -12 68c-2 14 -4 27 -7 39c-2 7 -4 15 -14 18zM373 753c-10 -15 -22 -10 -33 -10c-6 0 -12 1 -17 3c-6 2 -13 5 -18 10c-13 15 -26 30 -39 46
c-3 3 -4 6 -7 9c-4 3 -8 5 -12 8h-19c-10 -4 -17 -13 -24 -22c-6 -8 -13 -18 -19 -27c-17 -23 -46 -29 -70 -24c-2 0 -3 0 -4 1c-2 2 -4 4 -6 5c-3 9 0 17 4 24c20 36 41 72 61 108c5 9 12 17 23 23h77c16 0 27 -7 34 -21c7 -12 15 -24 22 -36c14 -25 27 -51 41 -77
c3 -7 4 -14 6 -20z" />
    <glyph glyph-name="atilde" unicode="&#xe3;" 
d="M448 14c-4 -5 -8 -9 -11 -13c-19 -3 -36 -5 -53 -2c-7 1 -16 -1 -23 -1c-6 0 -12 -1 -18 -1c-15 0 -29 11 -31 26c-1 9 -2 18 -3 26c-3 20 -17 33 -37 33c-16 1 -30 0 -45 0c-24 0 -38 -12 -42 -34c-2 -8 -3 -15 -4 -23c-2 -14 -7 -24 -25 -29c-30 1 -65 3 -99 4
c-9 3 -12 10 -14 16c4 26 8 49 13 74c4 26 10 54 15 81c5 29 10 58 15 88c2 13 5 28 7 42c4 25 8 52 12 78c2 13 6 26 8 38c4 15 6 30 9 45c2 9 3 18 5 27c6 31 12 62 15 93c0 9 4 17 5 25c4 16 8 33 10 50c2 13 7 22 21 29c8 1 17 1 27 1c21 1 41 3 62 3c14 0 28 -2 41 -4
s21 -11 24 -22c4 -14 7 -30 10 -45s6 -31 8 -48c2 -23 10 -47 12 -71c1 -20 6 -38 11 -56c4 -23 8 -45 12 -68c4 -28 7 -57 15 -84c4 -15 5 -29 7 -43c4 -21 7 -40 11 -59c5 -24 9 -46 13 -70c3 -19 8 -38 11 -58c3 -16 4 -32 6 -48zM245 384c-13 -7 -14 -20 -14 -31
c-2 -34 -10 -66 -15 -100c0 -5 -2 -11 -3 -16c-3 -37 16 -42 43 -40c12 1 21 9 24 21c2 15 0 28 -2 41c-4 23 -7 46 -12 68c-2 14 -4 27 -7 39c-2 7 -4 15 -14 18zM344 870c4 0 8 1 12 0c10 -1 16 -7 16 -18c0 -4 0 -9 -1 -14c-7 -17 -13 -35 -23 -51
c-17 -28 -38 -31 -64 -24c-18 4 -36 11 -55 16c-13 4 -26 8 -40 4c-11 -2 -20 -6 -26 -16c-2 -3 -5 -5 -6 -8c-7 -10 -16 -14 -29 -11c-3 4 -7 8 -11 12c0 17 5 32 12 46c5 10 11 20 18 28c20 25 46 31 76 23c16 -4 32 -9 48 -13c9 -2 19 -3 28 -3c11 -1 21 3 28 12
c5 6 11 12 17 17z" />
    <glyph glyph-name="adieresis" unicode="&#xe4;" 
d="M448 14c-4 -5 -8 -9 -11 -13c-19 -3 -36 -5 -53 -2c-7 1 -16 -1 -23 -1c-6 0 -12 -1 -18 -1c-15 0 -29 11 -31 26c-1 9 -2 18 -3 26c-3 20 -17 33 -37 33c-16 1 -30 0 -45 0c-24 0 -38 -12 -42 -34c-2 -8 -3 -15 -4 -23c-2 -14 -7 -24 -25 -29c-30 1 -65 3 -99 4
c-9 3 -12 10 -14 16c4 26 8 49 13 74c4 26 10 54 15 81c5 29 10 58 15 88c2 13 5 28 7 42c4 25 8 52 12 78c2 13 6 26 8 38c4 15 6 30 9 45c2 9 3 18 5 27c6 31 12 62 15 93c0 9 4 17 5 25c4 16 8 33 10 50c2 13 7 22 21 29c8 1 17 1 27 1c21 1 41 3 62 3c14 0 28 -2 41 -4
s21 -11 24 -22c4 -14 7 -30 10 -45s6 -31 8 -48c2 -23 10 -47 12 -71c1 -20 6 -38 11 -56c4 -23 8 -45 12 -68c4 -28 7 -57 15 -84c4 -15 5 -29 7 -43c4 -21 7 -40 11 -59c5 -24 9 -46 13 -70c3 -19 8 -38 11 -58c3 -16 4 -32 6 -48zM245 384c-13 -7 -14 -20 -14 -31
c-2 -34 -10 -66 -15 -100c0 -5 -2 -11 -3 -16c-3 -37 16 -42 43 -40c12 1 21 9 24 21c2 15 0 28 -2 41c-4 23 -7 46 -12 68c-2 14 -4 27 -7 39c-2 7 -4 15 -14 18zM330 872c21 -10 35 -25 40 -48c4 -17 1 -34 -11 -47c-4 -5 -8 -9 -13 -13c-27 -22 -64 -10 -77 15
c-6 10 -10 21 -13 32c-1 7 1 16 3 23c7 22 28 37 51 38h20zM183 872c21 -10 35 -25 40 -48c4 -17 1 -34 -11 -47c-4 -5 -8 -9 -13 -13c-27 -22 -64 -10 -77 15c-6 10 -10 21 -13 32c-1 7 1 16 3 23c7 22 28 37 51 38h20z" />
    <glyph glyph-name="aring" unicode="&#xe5;" 
d="M448 14c-4 -5 -8 -9 -11 -13c-19 -3 -36 -5 -53 -2c-7 1 -16 -1 -23 -1c-6 0 -12 -1 -18 -1c-15 0 -29 11 -31 26c-1 9 -2 18 -3 26c-3 20 -17 33 -37 33c-16 1 -30 0 -45 0c-24 0 -38 -12 -42 -34c-2 -8 -3 -15 -4 -23c-2 -14 -7 -24 -25 -29c-30 1 -65 3 -99 4
c-9 3 -12 10 -14 16c4 26 8 49 13 74c4 26 10 54 15 81c5 29 10 58 15 88c2 13 5 28 7 42c4 25 8 52 12 78c2 13 6 26 8 38c4 15 6 30 9 45c2 9 3 18 5 27c6 31 12 62 15 93c0 9 4 17 5 25c4 16 8 33 10 50c2 13 7 22 21 29c8 1 17 1 27 1c21 1 41 3 62 3c14 0 28 -2 41 -4
s21 -11 24 -22c4 -14 7 -30 10 -45s6 -31 8 -48c2 -23 10 -47 12 -71c1 -20 6 -38 11 -56c4 -23 8 -45 12 -68c4 -28 7 -57 15 -84c4 -15 5 -29 7 -43c4 -21 7 -40 11 -59c5 -24 9 -46 13 -70c3 -19 8 -38 11 -58c3 -16 4 -32 6 -48zM245 384c-13 -7 -14 -20 -14 -31
c-2 -34 -10 -66 -15 -100c0 -5 -2 -11 -3 -16c-3 -37 16 -42 43 -40c12 1 21 9 24 21c2 15 0 28 -2 41c-4 23 -7 46 -12 68c-2 14 -4 27 -7 39c-2 7 -4 15 -14 18zM242 634c-34 -1 -63 12 -86 37c-21 22 -28 50 -22 81c6 41 53 77 91 80c6 0 13 2 19 3c23 1 44 -7 63 -19
c25 -17 40 -40 46 -69c4 -18 -1 -36 -8 -52c-14 -31 -38 -50 -71 -57c-11 -2 -21 -3 -32 -4zM291 743c-15 34 -44 40 -70 29c-23 -10 -32 -36 -21 -58c7 -16 22 -22 37 -23c23 -1 43 5 51 28c2 8 2 17 3 24z" />
    <glyph glyph-name="ydieresis" unicode="&#xff;" 
d="M311 13c-4 -4 -9 -9 -15 -14l-45 3c-8 0 -16 -1 -24 -1c-6 0 -12 -1 -18 -1c-12 0 -18 3 -28 17c0 49 -1 99 -1 150c0 14 2 28 2 42c0 35 -7 69 -18 102c-13 39 -24 79 -38 117s-25 76 -38 113c-11 33 -22 64 -33 97c-3 9 -4 18 -5 24c5 15 15 17 23 16c18 -2 34 2 52 2
c8 0 16 -1 24 0c19 0 32 -11 37 -29c3 -11 5 -21 6 -31c6 -31 13 -61 21 -90c6 -23 10 -46 15 -68c1 -6 2 -11 4 -16c2 -7 6 -15 16 -17c10 4 13 12 15 22c7 29 13 59 20 88c8 37 18 72 25 109c4 20 21 33 43 32c25 -1 49 -2 74 -4c5 0 9 -3 13 -4c6 -10 4 -19 1 -28
c-10 -30 -21 -60 -30 -89c-12 -36 -23 -72 -34 -108c-15 -45 -30 -89 -45 -134c-6 -18 -12 -36 -14 -54c-2 -24 -7 -47 -2 -72c3 -12 2 -24 0 -37c-2 -15 -1 -29 0 -44c1 -23 0 -45 -1 -68c0 -7 -1 -15 -2 -25zM341 919c21 -10 35 -25 40 -48c4 -17 1 -34 -11 -47
c-4 -5 -8 -9 -13 -13c-27 -22 -64 -10 -77 15c-6 10 -10 21 -13 32c-1 7 1 16 3 23c7 22 28 37 51 38h20zM194 919c21 -10 35 -25 40 -48c4 -17 1 -34 -11 -47c-4 -5 -8 -9 -13 -13c-27 -22 -64 -10 -77 15c-6 10 -10 21 -13 32c-1 7 1 16 3 23c7 22 28 37 51 38h20z" />
    <glyph glyph-name="scaron" unicode="&#x161;" horiz-adv-x="475" 
d="M343 523c-4 3 -9 7 -13 12c-12 14 -25 28 -43 35c-21 8 -43 10 -65 7c-24 -2 -44 -27 -46 -52c-1 -23 7 -42 24 -59c23 -24 49 -44 77 -61c27 -17 51 -38 76 -57c14 -10 24 -24 35 -37c23 -26 33 -58 42 -90c2 -10 0 -20 0 -31c0 -5 -2 -10 -2 -15c0 -28 -7 -53 -22 -76
c-16 -23 -33 -45 -56 -61c-19 -14 -41 -21 -63 -27c-18 -4 -37 -8 -56 -9c-18 -1 -36 2 -53 4c-28 2 -52 14 -77 24c-18 8 -33 20 -47 33c-8 8 -11 18 -10 29c3 19 7 37 11 55c2 11 4 21 5 32c2 9 6 16 17 18c6 -4 13 -9 19 -15c30 -31 67 -47 107 -57c31 -8 72 1 91 34
c11 18 12 37 5 56c-7 23 -23 39 -41 52c-27 20 -54 38 -82 57c-10 7 -19 15 -28 23c-11 10 -22 21 -33 31c-25 26 -40 56 -48 90c-6 23 -4 45 -2 68c0 11 3 22 5 33c12 52 43 90 92 114c7 3 15 6 23 7c28 4 55 7 83 -1c17 -5 35 -6 51 -15c9 -5 18 -11 26 -18
c11 -10 16 -23 16 -39c-2 -23 -3 -47 -5 -70c0 -9 0 -19 -13 -24zM101 953c5 15 15 20 28 20c17 0 32 -6 43 -20c12 -14 24 -28 36 -43c17 -19 38 -20 55 0c8 10 16 21 24 32c17 24 35 33 66 25c3 -1 6 -1 10 -2l3 -3c1 -3 2 -5 4 -9c-4 -7 -9 -15 -13 -23
c-17 -31 -33 -62 -51 -92c-7 -14 -17 -26 -33 -30c-2 -1 -3 -2 -5 -2c-25 0 -50 -3 -75 3c-9 2 -16 8 -21 16c-7 10 -13 20 -19 31c-12 21 -25 42 -36 64c-6 11 -11 23 -16 33z" />
    <glyph glyph-name="a" unicode="a" 
d="M444 14c-4 -5 -8 -9 -11 -13c-18 -3 -35 -5 -52 -2c-7 1 -15 -1 -22 -1c-6 0 -12 -1 -18 -1c-15 0 -28 11 -30 26c-1 8 -2 17 -3 25c-3 20 -17 32 -37 32c-15 1 -29 0 -44 0c-23 0 -37 -11 -41 -33c-2 -8 -3 -15 -4 -22c-2 -14 -7 -24 -24 -29c-30 1 -64 3 -97 4
c-9 3 -12 10 -14 16c4 25 8 48 13 72c4 26 9 53 14 80c5 28 10 57 15 86c2 13 5 27 7 41c4 25 8 51 12 77c2 12 6 25 8 37c3 15 5 29 8 44c2 9 3 18 5 26c6 31 12 61 15 92c0 8 4 16 5 24c4 16 8 32 10 49c2 13 7 22 20 29c8 1 17 1 27 1c20 1 40 2 61 2c13 0 27 -1 40 -3
c12 -2 20 -11 23 -22c4 -14 7 -29 10 -44s6 -31 8 -47c2 -23 10 -46 12 -70c1 -19 6 -37 10 -55l12 -66c4 -28 7 -56 15 -83c4 -14 5 -28 7 -42c4 -20 7 -39 11 -58c4 -23 8 -45 12 -68c3 -19 8 -38 11 -57c3 -16 4 -32 6 -47zM245 376c-13 -6 -14 -19 -14 -30
c-2 -33 -10 -65 -14 -98c0 -5 -2 -11 -3 -16c-3 -36 15 -41 42 -39c12 1 20 9 23 21c2 14 0 27 -2 40c-4 22 -7 45 -11 67c-2 13 -4 26 -7 38c-2 7 -4 15 -14 17z" />
    <glyph glyph-name="b" unicode="b" horiz-adv-x="438" 
d="M65 1c-18 6 -22 20 -23 35c-1 5 -1 10 0 16c5 26 2 52 2 78c0 15 -2 29 -2 44c-1 9 1 18 2 27c0 5 1 11 0 16c-4 24 -4 48 0 72c0 5 -1 10 -1 16c0 13 -2 26 -1 38c3 38 3 75 0 113c-1 18 1 36 2 54c0 8 1 15 0 23c-4 42 -4 84 1 127c1 9 5 14 13 18c10 3 21 4 32 3
c12 -1 24 -2 37 -2c22 -1 44 1 66 -1c24 -1 49 -1 72 -10c32 -12 61 -29 82 -57c17 -21 25 -46 30 -73c5 -28 3 -57 2 -86c0 -20 -7 -39 -16 -56c-4 -7 -6 -14 -9 -21c-6 -12 -3 -22 3 -33c4 -6 8 -13 13 -19c10 -14 15 -31 19 -48c9 -35 8 -71 7 -107
c-1 -28 -8 -55 -20 -80c-11 -21 -28 -37 -48 -51c-23 -16 -48 -24 -75 -29c-28 -5 -57 -6 -86 -7h-102zM178 124c21 -11 29 -13 46 -6c24 9 42 25 46 51c4 25 5 50 0 75c-5 32 -35 63 -76 58c-10 -2 -17 -7 -20 -16c-2 -7 -3 -14 -4 -22c0 -23 1 -46 -1 -69
c-1 -17 2 -33 2 -49c0 -8 5 -15 7 -22zM187 408h10c23 0 47 15 54 42c4 20 7 41 3 61c-3 16 -9 30 -21 41c-14 12 -31 15 -48 9c-12 -7 -14 -18 -15 -29c0 -13 1 -25 0 -37c-3 -21 -2 -42 0 -63c1 -12 6 -20 17 -24z" />
    <glyph glyph-name="c" unicode="c" horiz-adv-x="460" 
d="M414 638c-10 -26 -24 -50 -39 -73c-5 -8 -12 -14 -25 -11c-5 4 -11 10 -18 15c-20 16 -43 24 -68 23c-17 -1 -31 -10 -41 -23c-6 -9 -11 -18 -15 -28c-10 -23 -15 -47 -20 -72c-6 -28 -6 -57 -6 -86v-50c0 -54 9 -107 26 -158c5 -16 13 -31 25 -42c7 -6 15 -11 23 -15
c38 -6 70 12 105 26c5 -4 12 -8 16 -13c13 -20 24 -41 36 -62c1 -1 1 -3 1 -4c-3 -12 -11 -19 -19 -27c-22 -19 -48 -27 -74 -32c-27 -5 -55 -6 -83 -2c-24 4 -46 11 -65 24c-34 24 -62 54 -79 93c-15 37 -28 73 -36 112c-2 13 -4 25 -5 38c-2 26 -5 52 -6 78
c-1 17 1 34 1 50c1 4 2 8 2 11c0 26 4 51 10 76c7 33 18 65 32 96c15 33 35 62 64 83c22 15 46 28 72 33c51 8 100 2 147 -20c9 -5 17 -11 25 -17c8 -5 11 -14 14 -23z" />
    <glyph glyph-name="d" unicode="d" horiz-adv-x="474" 
d="M52 1c-8 12 -11 22 -11 33c1 19 2 38 2 58c1 31 2 62 -2 93v9v227c0 28 0 56 1 84c0 15 1 30 1 45c0 30 -1 61 -2 92c0 5 1 10 2 15c4 13 13 21 26 21c29 -1 59 2 88 -3h5c20 6 39 1 59 -1c40 -3 77 -17 109 -44c34 -29 54 -65 70 -105c11 -29 16 -59 24 -89
c1 -3 0 -7 0 -11c1 -21 3 -43 6 -64c2 -18 3 -37 -2 -56c-2 -9 -3 -19 -3 -28c2 -30 -7 -57 -14 -85c-7 -27 -15 -54 -28 -79c-10 -18 -21 -36 -37 -50c-2 -2 -4 -4 -5 -6c-23 -31 -58 -43 -92 -55c-2 -1 -5 -1 -8 -1c-32 -1 -65 -3 -98 -3c-23 0 -47 -1 -70 0
c-7 0 -15 2 -21 3zM172 206c2 -20 3 -43 4 -66c1 -14 9 -24 20 -26c14 -2 28 -1 38 11c14 14 23 31 29 49c9 27 18 54 21 83c2 22 5 44 5 66l-3 48c-1 21 -1 42 -4 62c-4 29 -11 56 -22 83c-9 22 -24 37 -47 45c-13 4 -29 -3 -33 -14c-5 -17 -5 -35 -5 -52
c-1 -8 1 -15 1 -23v-122c0 -9 -1 -17 -2 -26v-12c1 -8 2 -15 2 -23c-1 -27 -2 -53 -4 -83z" />
    <glyph glyph-name="e" unicode="e" horiz-adv-x="421" 
d="M46 664c7 12 18 16 31 14c10 0 21 1 31 1h146c14 0 27 -2 40 -3c6 0 12 -1 18 0c18 4 35 3 54 0c4 -4 8 -7 11 -10v-36c0 -9 2 -17 2 -26c0 -7 -1 -15 -2 -22c-2 -10 -9 -15 -19 -16c-32 -3 -64 -4 -97 -2c-21 2 -43 -2 -65 -5c-11 -1 -18 -12 -19 -26
c-2 -22 -5 -44 -1 -66c3 -12 1 -26 0 -38c0 -10 1 -19 8 -26c9 -9 21 -9 33 -9c22 0 44 0 66 1c28 1 37 -10 39 -39v-57c-5 -5 -10 -11 -16 -18c-28 1 -55 3 -81 3c-11 0 -21 -3 -31 -5c-8 -2 -13 -9 -15 -16c-2 -9 -6 -19 -4 -28c3 -25 1 -50 2 -74c0 -7 -1 -14 0 -21
c0 -13 7 -23 19 -25c22 -4 43 -8 66 -5c24 2 47 1 71 1c11 0 21 -2 30 -2c13 -9 17 -19 17 -33c-1 -19 0 -37 0 -56c-7 -14 -7 -14 -22 -21h-136c-25 0 -50 -1 -75 0c-10 0 -19 2 -28 2s-19 0 -28 -1c-9 0 -18 -1 -26 -1c-13 0 -23 10 -23 23c-1 14 0 27 1 40v15v58v11
c-2 25 -2 51 0 77c2 14 0 29 -1 43c0 5 -1 10 -1 14v163c0 8 2 16 2 24c1 3 1 6 1 8c-4 33 -4 66 0 100c0 8 1 16 0 24c-4 21 -3 42 2 65z" />
    <glyph glyph-name="f" unicode="f" horiz-adv-x="421" 
d="M321 269c-4 -4 -9 -10 -14 -16c-25 -1 -50 -2 -76 -3c-10 0 -19 3 -30 0s-19 -9 -22 -20l-3 -24c-1 -15 -2 -31 -2 -46c0 -13 2 -26 2 -39c0 -16 -2 -33 -3 -49c0 -3 0 -6 1 -9c1 -15 2 -30 3 -43c-7 -17 -17 -22 -32 -21c-12 1 -25 2 -38 2c-7 0 -14 0 -21 -1
c-3 0 -6 -1 -9 -1c-20 -2 -28 3 -37 23c1 8 2 18 3 27v13c-4 23 -2 46 -1 69v15c1 26 -1 52 -1 78c0 16 4 31 2 47c-4 30 -2 61 -2 91c0 8 1 16 1 24c1 3 1 7 1 10c-4 20 -4 40 0 61c0 2 1 5 0 8c-4 23 -2 47 -1 70c0 11 -1 22 -1 32c-1 27 -1 53 0 79c0 21 12 33 33 33
c37 0 75 1 112 -1c27 -1 54 3 81 0c23 -2 46 -2 69 1c4 0 9 0 14 -1c9 -1 19 -2 25 -12c4 -23 4 -46 4 -69c1 -20 -9 -32 -33 -34c-11 -1 -23 0 -34 0c-32 0 -63 0 -95 1c-30 0 -41 -11 -41 -42c-1 -34 -2 -68 -3 -103c0 -10 1 -20 3 -30c4 -17 11 -22 27 -26
c7 -2 14 -2 21 -2c21 0 43 1 64 1c22 0 34 -9 33 -33v-29c-1 -9 0 -18 0 -31z" />
    <glyph glyph-name="g" unicode="g" horiz-adv-x="513" 
d="M433 630c4 -16 -1 -27 -6 -38l-12 -21c-7 -13 -13 -25 -20 -38c-4 -6 -8 -12 -11 -17c-10 -3 -15 0 -18 6c-2 4 -4 7 -5 10c-10 21 -26 37 -43 52c-22 20 -62 16 -80 -3c-16 -17 -28 -35 -35 -57s-16 -44 -18 -67c-1 -3 -1 -6 -2 -10l-3 -57l-3 -27c-4 -22 0 -44 1 -66
c1 -21 6 -42 8 -63c2 -19 6 -38 13 -56c7 -16 15 -33 23 -49c17 -36 68 -32 89 -5c14 16 19 36 23 56c3 11 4 23 5 34c2 17 -3 25 -18 33c-24 0 -24 0 -36 7c-8 9 -12 20 -12 33v51c4 16 16 21 30 20c16 -1 32 1 48 1c20 2 40 1 61 1c12 -1 24 -2 36 -4c11 -1 17 -8 19 -19
c6 -30 3 -60 2 -90c0 -16 -6 -32 -7 -48c-2 -22 -9 -43 -15 -64c-3 -11 -6 -21 -11 -31c-6 -12 -13 -24 -20 -35c-15 -24 -39 -38 -63 -51c-20 -11 -43 -15 -66 -16c-6 -1 -12 -3 -19 -3c-8 0 -18 1 -26 3c-28 5 -55 11 -77 29c-25 19 -48 41 -63 69c-6 13 -13 25 -19 37
s-11 23 -13 36c-4 16 -10 31 -13 47c-4 19 -6 38 -9 57c-2 14 -5 29 -6 43c-1 11 -1 22 -1 34c1 17 2 35 4 52c1 18 3 36 6 54c9 52 23 103 52 148c25 39 58 67 103 82c27 9 55 13 83 11c14 -1 29 -4 42 -9c19 -6 37 -13 55 -22c19 -9 34 -25 47 -40z" />
    <glyph glyph-name="h" unicode="h" 
d="M439 3c-8 -1 -15 -3 -22 -3c-24 -1 -48 -1 -71 -1c-15 0 -19 3 -30 16c0 10 0 23 -1 35c0 9 -1 18 -1 27c0 10 -1 20 0 29c3 24 3 47 0 70c-2 14 -1 27 -1 41c2 21 -12 32 -32 34c-24 2 -48 3 -72 0c-11 -2 -21 -4 -28 -17c-1 -9 -3 -20 -3 -31v-92c-1 -11 -2 -23 -3 -35
v-25c1 -12 2 -24 3 -34c-7 -14 -18 -19 -31 -18c-7 1 -13 1 -19 1c-12 1 -24 1 -36 0c-9 0 -19 -1 -28 -1c-10 1 -16 7 -18 16c-2 6 -3 12 -3 17c0 22 1 44 1 66c0 4 2 8 1 11c-5 26 -2 52 -3 77c0 30 1 59 1 89c0 48 -1 95 -1 143c1 20 2 41 2 61c0 39 -1 78 -2 117
c0 22 2 44 3 66c7 13 17 18 31 17h72c23 0 31 -13 30 -31c-1 -14 -2 -29 -2 -43c-1 -7 1 -13 1 -19c1 -36 1 -71 0 -107c0 -22 -2 -43 -2 -65c0 -9 1 -19 3 -27c2 -11 9 -18 19 -20c30 -5 61 -10 92 -4c16 4 21 9 24 25c1 9 2 19 2 28c0 51 -2 101 -2 152c0 32 3 64 4 97
c2 3 6 6 11 12c12 1 25 2 39 2c16 1 32 0 48 0c12 0 23 -3 29 -15c1 -1 1 -2 1 -3c1 -45 2 -89 3 -134v-124c0 -11 -1 -22 -2 -33c0 -4 -1 -7 0 -10c5 -25 -1 -49 0 -74c0 -22 2 -43 2 -65c0 -13 -2 -25 -2 -37c1 -23 2 -46 2 -69c1 -21 1 -41 0 -62c0 -12 -2 -25 -3 -38
c-1 -3 -3 -6 -6 -12z" />
    <glyph glyph-name="i" unicode="i" horiz-adv-x="211" 
d="M56 680h80c7 0 14 -2 21 -3c7 -2 12 -7 14 -15c1 -7 3 -15 3 -23c1 -30 0 -59 0 -89c0 -6 -1 -13 -2 -19v-13c0 -19 2 -37 2 -56c1 -18 1 -36 0 -55c0 -8 -1 -17 -2 -25c0 -7 -1 -14 0 -21c3 -22 4 -44 0 -66c-1 -6 -1 -13 0 -19c4 -36 2 -72 2 -108c1 -16 1 -33 0 -50
c0 -21 -1 -42 -2 -63c0 -4 2 -8 1 -12c0 -7 0 -15 -1 -23c-1 -10 -7 -17 -20 -21c-12 1 -28 2 -43 3c-3 1 -7 0 -10 0c-14 -1 -29 -2 -42 -3c-6 3 -10 6 -13 8c-7 8 -9 16 -8 26c1 14 1 27 2 41c0 5 -1 10 -1 15v38v37s-2 23 0 35c3 33 3 66 -1 99c-1 10 -1 20 0 29
c3 32 2 64 1 97c-2 32 -3 64 1 96c1 9 1 18 0 27c-3 22 -3 44 0 66c1 9 -1 19 -1 29c-2 16 2 30 19 38z" />
    <glyph glyph-name="j" unicode="j" horiz-adv-x="470" 
d="M37 89c9 16 16 32 25 46l39 66c3 4 7 8 10 11c11 0 14 -7 15 -14c3 -22 14 -41 27 -58c21 -30 65 -42 98 -21c17 10 30 24 36 44c7 23 12 47 10 72c-1 13 1 25 2 38c0 5 1 10 0 15c-5 28 -1 56 -2 85c-1 17 -1 34 0 51c0 13 2 25 2 37c0 10 -1 19 -1 29c0 11 1 21 1 32
c0 26 -1 53 -1 79c0 21 -2 43 -1 64c2 19 12 27 31 27c12 0 24 -1 35 -2c5 0 9 1 13 1c11 2 22 1 34 -2c11 -3 17 -9 19 -20c5 -30 4 -61 1 -91c-1 -7 0 -14 0 -21c0 -12 1 -24 0 -35c0 -9 -1 -17 0 -26c0 -11 2 -22 2 -33v-94c0 -8 -1 -16 -2 -24c0 -4 -1 -8 0 -13
c4 -22 2 -43 0 -65c-1 -22 -1 -43 -1 -65c0 -23 -7 -46 -13 -68c-8 -28 -18 -55 -36 -77c-9 -11 -19 -21 -30 -29c-27 -23 -60 -35 -94 -42c-14 -3 -28 -4 -43 -1c-4 1 -8 1 -12 1c-33 -3 -62 5 -90 22c-24 14 -44 33 -61 56c-5 7 -8 16 -13 25z" />
    <glyph glyph-name="k" unicode="k" horiz-adv-x="488" 
d="M178 664c7 -33 3 -65 4 -98c0 -13 -2 -26 -2 -40c0 -9 3 -18 2 -27c-3 -23 1 -46 0 -69c-1 -11 -2 -23 9 -32c12 -2 16 7 20 15c6 15 12 31 18 46c16 39 31 79 47 118c10 25 21 50 31 75c6 16 17 24 34 24c10 0 21 3 31 2c18 0 36 -1 54 -3c5 0 9 -4 15 -7
c-2 -9 -2 -17 -5 -24c-11 -30 -23 -59 -35 -89c-10 -27 -20 -54 -31 -80l-45 -111c-8 -19 -7 -39 1 -59c8 -21 18 -42 26 -63c7 -16 13 -32 19 -49c8 -21 15 -43 24 -64c12 -28 25 -56 37 -85c2 -5 4 -10 6 -16c3 -8 3 -17 -6 -25c-8 -1 -18 -4 -28 -4c-20 -1 -40 -1 -61 0
c-15 0 -28 6 -35 20c-5 10 -10 20 -14 31c-27 65 -53 130 -80 196c-2 5 -4 10 -7 15c-4 6 -9 10 -17 8c-7 -5 -8 -13 -8 -21v-112c0 -25 -2 -50 -3 -75c0 -8 2 -16 2 -24c0 -7 -1 -15 -2 -22c-2 -9 -9 -13 -18 -13c-31 -1 -63 -2 -94 -3c-16 4 -20 15 -20 29c0 26 3 53 2 79
c-1 38 3 76 -2 114c-2 22 0 44 0 66v129v184v48c0 19 11 31 30 31l81 -3c8 -1 15 -4 20 -12z" />
    <glyph glyph-name="l" unicode="l" horiz-adv-x="421" 
d="M363 2c-18 -1 -38 -2 -57 -2c-8 0 -17 1 -25 2h-4c-25 0 -51 -1 -76 -1c-4 0 -7 -1 -10 -1c-33 1 -65 1 -98 2c-10 0 -20 -3 -30 0c-11 3 -16 9 -19 19c-3 16 -3 31 -1 47c1 18 1 36 0 54c-2 40 -3 81 0 121c1 7 0 15 0 22c-2 21 -4 42 0 63c2 7 2 15 1 22
c-5 34 -2 68 -3 101v36c1 9 2 19 2 29c0 9 -1 18 -1 27c1 17 1 34 1 51c0 7 0 13 -1 19c-1 14 -1 28 2 42c3 18 10 23 28 24c22 2 44 0 66 -1c5 0 9 -1 14 -1c9 0 16 -4 20 -13c4 -20 7 -41 2 -63c-1 -3 0 -6 0 -9c1 -29 2 -57 2 -85c1 -13 -2 -25 -2 -37c0 -10 1 -20 2 -31
c0 -6 1 -14 0 -20c-3 -30 -2 -59 -1 -89c2 -29 0 -58 0 -86c0 -4 1 -8 1 -12c0 -12 1 -24 -1 -36c-2 -20 -1 -40 2 -60c2 -13 14 -23 30 -23c17 -1 34 0 50 -1c9 0 18 -1 27 -2h5c18 1 36 1 55 2c3 0 7 1 11 0c14 0 24 -10 24 -24c1 -20 1 -41 1 -61c0 -11 -6 -18 -17 -25z
" />
    <glyph glyph-name="m" unicode="m" horiz-adv-x="766" 
d="M714 18c-9 -16 -21 -17 -34 -17c-27 0 -53 1 -78 2c-6 3 -10 5 -14 8c-2 5 -6 10 -7 15c-3 14 -5 27 -7 41l-6 51c-3 19 -7 39 -10 58c-3 25 -6 50 -10 74c-2 12 -2 25 -16 31c-13 -3 -15 -13 -18 -23c-6 -20 -10 -41 -14 -62c-9 -43 -23 -86 -34 -129
c-3 -12 -5 -25 -8 -37c-1 -6 -4 -11 -6 -16c-4 -9 -11 -13 -21 -13c-31 0 -62 -1 -93 0c-15 0 -24 8 -28 23c-10 39 -19 79 -29 118s-19 78 -29 117c-1 4 -3 9 -6 13c-2 5 -7 8 -13 5c-7 -5 -8 -13 -10 -21c-4 -20 -8 -40 -11 -61c-3 -19 -5 -39 -8 -58l-12 -72
c-2 -11 -3 -23 -4 -34c-2 -18 -11 -28 -29 -30c-9 -1 -19 -1 -28 0c-16 3 -33 3 -49 0c-13 -2 -18 0 -29 11c-2 11 -1 23 2 36c4 21 7 43 10 64s7 41 9 62c1 28 9 55 13 83c2 13 3 26 4 38l3 21c2 13 4 27 7 41c2 14 4 28 7 42c3 19 6 37 9 55c4 26 6 52 12 77
c4 19 5 38 7 57l3 21c2 13 5 27 7 41c1 12 6 22 20 28c22 1 45 2 68 3c20 0 35 -4 47 -11c9 -14 14 -29 17 -47c2 -20 8 -40 13 -60c6 -30 12 -59 18 -89c6 -23 11 -45 16 -68c7 -31 13 -62 20 -93c4 -18 7 -22 18 -31c12 1 15 10 17 19c10 46 21 92 30 138
c6 33 15 64 23 96c6 28 12 57 18 85c3 12 6 23 10 34c6 21 15 27 36 27h73c19 0 30 -11 33 -30c2 -15 5 -31 7 -46c2 -11 4 -23 6 -34c2 -18 5 -36 7 -54c3 -19 6 -39 9 -58c2 -16 5 -32 7 -48c3 -19 6 -37 9 -56c4 -31 8 -63 12 -94c5 -30 9 -61 14 -91
c5 -37 11 -74 16 -111c2 -14 3 -28 4 -41z" />
    <glyph glyph-name="n" unicode="n" 
d="M144 676c9 -3 17 -12 21 -24c14 -42 36 -80 53 -121c14 -36 29 -71 44 -106c7 -17 15 -33 22 -49c4 -9 9 -15 22 -16c2 1 4 5 7 9c0 12 0 23 1 34c0 9 1 19 1 28c1 2 1 4 1 6c-5 32 -2 64 -2 96c1 29 1 57 2 85c0 7 -1 14 -2 21c0 4 0 9 -1 13c-1 15 11 29 29 29
c24 -1 48 0 71 -1c7 0 14 -2 20 -4c10 -4 15 -12 16 -23v-4c-4 -57 3 -113 0 -169c-1 -18 0 -36 0 -54c0 -7 -1 -13 -2 -20c0 -3 -1 -7 -1 -11c4 -24 4 -48 0 -72c-1 -9 0 -18 0 -27c1 -43 2 -87 3 -130v-113c-1 -12 -2 -23 -4 -35c0 -4 -3 -8 -4 -11c-3 -2 -6 -3 -8 -3
c-25 -2 -49 -2 -74 -3c-7 5 -16 9 -22 15c-6 5 -9 13 -13 20c-13 28 -27 57 -40 85c-15 32 -29 64 -44 96c-11 24 -23 47 -34 70c-4 9 -10 16 -19 19c-9 -2 -12 -7 -12 -15v-23c1 -14 3 -28 3 -43c0 -37 -2 -74 -2 -111c0 -25 1 -50 2 -75c0 -6 -2 -12 -3 -18
c-3 -14 -14 -20 -27 -20c-26 -1 -52 -1 -79 0c-14 0 -21 6 -24 21c-2 10 -3 20 -2 30c3 31 3 62 0 93c-2 21 -1 42 0 63c0 13 1 25 2 38c0 8 -1 16 -1 24c0 30 0 59 1 89c0 2 1 5 0 8c-5 33 -1 66 -2 99v169c0 8 2 16 3 24c1 10 7 16 17 19c17 4 33 3 50 2c9 -1 18 -2 31 -4
z" />
    <glyph glyph-name="o" unicode="o" horiz-adv-x="531" 
d="M43 348c2 28 2 53 5 77c4 44 14 87 29 129c13 35 33 67 61 93c17 16 36 29 58 39c8 3 17 5 26 7c24 5 50 5 75 4c3 0 7 -2 10 -3c22 -8 45 -15 65 -28s38 -29 50 -50c16 -26 30 -53 39 -82c8 -27 14 -55 19 -84c3 -17 2 -35 3 -52l3 -36c3 -26 0 -52 -1 -78
c0 -16 -3 -32 -6 -47c-3 -21 -7 -41 -12 -61c-7 -27 -17 -53 -29 -78c-2 -4 -5 -9 -8 -13c-18 -22 -36 -44 -60 -60c-19 -13 -40 -20 -62 -24c-9 -1 -18 -2 -27 -4c-12 -4 -25 -3 -38 -1c-11 3 -21 6 -32 8c-23 5 -41 18 -58 32c-31 25 -51 57 -68 92c-16 36 -23 73 -31 110
c-3 18 -5 36 -6 54c-2 20 -4 40 -5 56zM177 366c1 -36 2 -62 3 -89c1 -16 3 -32 6 -48c4 -17 9 -33 13 -51c4 -20 13 -39 24 -56c16 -23 44 -29 68 -15c15 9 24 24 30 39c10 24 15 48 21 73c5 26 9 52 11 78c4 41 -2 83 -2 125l-1 1c-3 20 -7 39 -9 59c-2 22 -8 44 -17 66
c-7 19 -18 36 -37 46c-14 9 -29 9 -44 0c-8 -5 -15 -11 -21 -19c-10 -15 -16 -32 -23 -49c-10 -24 -12 -49 -15 -74c-4 -32 -6 -63 -7 -86z" />
    <glyph glyph-name="p" unicode="p" horiz-adv-x="438" 
d="M51 675c7 1 15 3 23 3c38 1 77 2 116 0c47 -1 91 -12 131 -40c14 -10 23 -24 33 -38c1 -1 0 -3 1 -3c22 -28 30 -61 37 -94c3 -13 2 -27 2 -40c1 -11 1 -22 2 -32c2 -19 -2 -36 -6 -54c-6 -27 -16 -53 -30 -76c-16 -25 -38 -42 -65 -52c-16 -7 -33 -12 -50 -16
c-11 -3 -23 -4 -35 -6c-20 -2 -27 -7 -31 -27c0 -3 -1 -5 -1 -8c-1 -35 -2 -71 -3 -106c0 -9 2 -18 1 -27c0 -16 -1 -31 -2 -46c-1 -4 -5 -9 -9 -11c-5 -2 -10 -4 -15 -3c-32 3 -63 -3 -100 5c-4 2 -8 11 -8 20c0 18 2 37 2 55v37c-1 5 -2 10 -2 16c1 55 -1 111 0 167
c0 12 2 23 2 35c0 75 -1 150 -2 225c0 16 2 32 2 48c0 12 -1 23 -2 34c0 11 3 21 9 34zM183 554c-6 -11 -9 -22 -8 -34c0 -30 2 -60 2 -90c1 -16 -2 -32 -2 -48c0 -8 2 -16 5 -23c3 -10 11 -15 22 -16c13 -1 25 5 35 13c23 18 31 44 34 71c1 18 1 37 0 55
c-2 19 -5 39 -15 56c-6 10 -14 17 -24 20c-16 5 -33 6 -49 -4z" />
    <glyph glyph-name="q" unicode="q" horiz-adv-x="531" 
d="M436 -15c-4 -17 -17 -23 -26 -31c-9 -9 -20 -16 -30 -25c-8 -7 -17 -11 -31 -8c-5 6 -12 14 -19 23c-8 10 -17 21 -25 33c-11 17 -27 23 -46 24c-51 2 -94 23 -128 62c-24 27 -40 59 -53 93c-10 27 -16 54 -22 82c-5 26 -7 53 -10 79c-2 18 -4 35 -3 52c3 33 5 66 12 99
c7 34 16 66 27 98c18 50 50 89 96 116c19 11 40 17 62 18l21 3c51 2 95 -13 133 -48c21 -20 39 -43 51 -69c8 -19 14 -39 20 -59c4 -10 7 -20 9 -30c3 -16 6 -32 8 -47c2 -18 3 -35 5 -53c1 -5 1 -10 1 -14v-50c0 -26 -3 -51 -6 -77c-4 -35 -11 -69 -23 -102
c-11 -29 -23 -59 -46 -82c-3 -3 -5 -7 -7 -10c-7 -12 -7 -24 0 -35c6 -9 12 -17 18 -25c4 -6 8 -12 12 -17zM178 352v0c0 -7 0 -15 1 -22c1 -22 3 -45 6 -67c2 -18 4 -37 8 -55c5 -20 12 -39 18 -58c5 -12 13 -23 23 -32c20 -19 62 -14 74 10c18 32 29 65 35 101
c2 14 5 27 6 41c3 21 5 42 6 64c0 17 -1 34 -2 51c-1 16 0 32 -3 48c-5 24 -6 50 -10 74c-5 23 -12 45 -23 66c-10 17 -25 27 -44 32c-3 1 -7 2 -11 1c-17 -4 -34 -11 -42 -28c-7 -14 -14 -27 -18 -41c-9 -26 -15 -53 -18 -81c-2 -25 -2 -51 -5 -76c-2 -9 -1 -18 -1 -28z
" />
    <glyph glyph-name="r" unicode="r" horiz-adv-x="447" 
d="M275 11c-17 27 -27 58 -39 87c-7 19 -15 37 -23 54c-3 8 -7 15 -16 17c-10 -2 -12 -10 -12 -19v-68c-1 -20 -2 -41 -3 -61c-1 -10 -7 -16 -18 -18c-1 -1 -3 0 -4 -1c-19 -1 -38 -2 -56 -2c-15 0 -29 1 -44 2c-3 4 -6 8 -11 15c-1 17 -1 37 -1 57c0 4 1 8 1 11
c-5 51 -3 101 -1 152c1 16 -2 33 -1 49c0 19 2 37 2 55c0 12 -2 23 -2 35c-1 13 0 26 0 39c0 4 1 8 1 13c0 57 -1 115 -2 173c0 15 3 30 1 45c-1 14 6 25 22 31c27 1 56 3 85 2c23 0 46 -3 70 -5c12 -1 25 -1 36 -5c43 -12 79 -36 105 -72c15 -21 24 -46 29 -72
c4 -17 6 -35 7 -53c3 -33 -1 -64 -10 -95c-7 -24 -16 -49 -33 -68c-10 -13 -21 -24 -33 -35c-8 -6 -14 -13 -17 -22c-2 -10 1 -19 5 -28c20 -45 39 -91 59 -136l27 -63c6 -15 -1 -25 -18 -25c-25 -1 -51 0 -77 -1c-11 0 -19 5 -29 12zM208 564c-17 -8 -19 -8 -21 -25
c-2 -25 -3 -51 -5 -76c0 -2 1 -3 1 -5c0 -12 1 -25 0 -37c-2 -22 0 -44 9 -63c15 -13 41 -7 54 4s22 25 25 41c4 20 6 39 7 59c1 15 0 30 -3 44c-6 27 -17 50 -48 56c-6 1 -13 1 -19 2z" />
    <glyph glyph-name="s" unicode="s" horiz-adv-x="475" 
d="M343 518c-4 3 -9 7 -13 12c-12 14 -25 28 -43 35c-21 8 -43 10 -65 7c-24 -2 -44 -27 -46 -52c-1 -23 7 -42 24 -59c23 -24 49 -44 77 -61c27 -17 51 -38 76 -57c14 -10 24 -24 35 -37c23 -26 33 -58 42 -90c2 -10 0 -20 0 -31c0 -5 -2 -10 -2 -15c0 -28 -7 -53 -22 -76
c-16 -23 -33 -45 -56 -61c-19 -14 -41 -21 -63 -27c-18 -4 -37 -8 -56 -9c-18 -1 -36 2 -53 4c-28 2 -52 14 -77 24c-18 8 -33 20 -47 33c-8 8 -11 18 -10 29c3 19 7 37 11 55c2 11 4 21 5 32c2 9 6 16 17 18c6 -4 13 -9 19 -15c30 -31 67 -47 107 -57c31 -8 72 1 91 34
c11 18 12 37 5 56c-7 23 -23 39 -41 52c-27 20 -54 38 -82 57c-10 7 -19 15 -28 23c-11 10 -22 21 -33 31c-25 26 -40 56 -48 90c-6 23 -4 45 -2 68c0 11 3 22 5 33c12 52 43 90 92 114c7 3 15 6 23 7c28 4 55 7 83 -1c17 -5 35 -6 51 -15c9 -5 18 -11 26 -18
c11 -10 16 -23 16 -39c-2 -23 -3 -47 -5 -70c0 -9 0 -19 -13 -24z" />
    <glyph glyph-name="t" unicode="t" 
d="M171 555c-5 3 -10 5 -16 8h-65c-9 0 -18 1 -27 3s-15 8 -17 17c-4 23 -3 46 -3 69c0 9 5 16 12 19c9 4 18 7 26 7c32 1 65 1 97 1c4 -1 8 -1 13 -2c4 0 9 -1 14 -1c45 5 91 2 137 2c23 1 46 0 69 0c5 0 10 -1 16 -2c17 -5 22 -12 22 -30c0 -11 -1 -21 -1 -32
c0 -5 0 -10 1 -14c2 -17 0 -22 -17 -35h-21c-24 -1 -47 -1 -71 -3c-16 0 -25 -9 -26 -26c-1 -12 -1 -23 -1 -35c0 -25 2 -51 0 -76c-1 -22 0 -44 0 -66c1 -15 -2 -31 -2 -46c0 -16 3 -32 3 -48s-3 -32 -3 -48s2 -31 3 -47c0 -12 -2 -24 -2 -37c-1 -4 -1 -9 -1 -14
c5 -28 2 -56 3 -84c0 -7 -3 -14 -4 -21c-7 -12 -17 -17 -30 -16c-15 2 -30 2 -45 3c-7 0 -14 -1 -20 -2c-22 -3 -39 11 -36 32s-1 41 0 61c1 21 0 42 0 63c0 6 1 12 1 17c1 6 1 11 1 16c-5 51 -3 102 -2 153c0 33 1 65 2 98c1 11 -2 21 -2 32c0 10 0 20 1 30
c2 19 2 38 -9 54z" />
    <glyph glyph-name="u" unicode="u" 
d="M336 681c25 1 50 3 76 3c5 1 11 -1 17 -2c16 -5 24 -16 22 -32c-4 -27 -1 -53 0 -79c1 -47 1 -93 0 -140c-1 -28 2 -57 0 -85c-1 -23 -2 -47 -2 -71c-1 -21 -1 -41 0 -62c0 -20 -3 -38 -6 -57c-6 -34 -22 -62 -42 -88c-10 -13 -24 -23 -37 -33c-26 -19 -55 -32 -86 -36
c-54 -7 -105 3 -150 37c-39 30 -66 68 -76 118c-6 30 -11 61 -9 93c1 42 -1 85 -1 127c0 7 1 14 2 21c0 5 1 10 0 14c-5 32 -3 64 -1 95c2 40 1 80 2 121c0 9 1 19 0 29c-1 12 5 20 16 27c14 1 29 1 45 1c13 1 26 1 38 2c14 2 24 -2 32 -13c6 -16 4 -32 4 -48
c1 -37 1 -74 1 -111c-1 -12 -2 -23 -3 -34v-18c1 -23 3 -47 2 -70c0 -23 1 -45 0 -68c0 -19 -2 -38 -2 -57c0 -28 1 -56 3 -84c3 -34 18 -53 51 -62c21 -6 42 0 59 14c19 15 27 36 26 60c-1 40 -2 80 -1 120c1 31 -1 61 0 92v90v153c0 14 4 26 20 33z" />
    <glyph glyph-name="v" unicode="v" 
d="M433 674c4 -5 8 -8 12 -13c-1 -14 -1 -28 -5 -41c-6 -19 -7 -38 -11 -58c-4 -15 -6 -31 -8 -47c-6 -34 -12 -69 -19 -103c-1 -11 -4 -22 -6 -33c-5 -22 -9 -45 -13 -67c-7 -42 -15 -85 -22 -127c-5 -26 -7 -52 -14 -77c-7 -28 -10 -57 -15 -86c-3 -14 -11 -22 -25 -22
c-40 -2 -80 -3 -114 -4c-28 6 -32 23 -35 41c-6 28 -12 57 -16 86c-2 17 -6 34 -10 51c-3 18 -4 35 -7 53c-1 8 -4 16 -5 25c-4 20 -7 41 -11 62c-3 19 -7 38 -11 57c-2 15 -5 31 -8 46c-4 21 -7 41 -11 62l-15 84c-3 20 -7 40 -11 60c-2 12 -4 25 -6 37c4 5 8 9 11 12
c16 5 32 5 48 3c2 0 5 -1 7 0c17 3 35 1 53 -3c8 -5 13 -12 15 -22c3 -19 8 -37 9 -55c1 -17 6 -33 8 -49c2 -20 8 -40 9 -60c0 -17 4 -34 7 -51c3 -21 6 -43 8 -64c3 -20 6 -39 13 -58c2 -6 4 -12 12 -14c12 9 15 22 17 35c4 27 6 55 10 82c2 15 5 30 8 44c4 25 7 50 11 74
c4 27 8 53 12 79c1 11 2 22 4 33c3 19 15 31 39 30c28 0 55 -1 85 -2z" />
    <glyph glyph-name="w" unicode="w" horiz-adv-x="766" 
d="M386 351c-12 1 -17 -7 -20 -16c-3 -12 -6 -25 -9 -38l-18 -81c-10 -48 -20 -96 -31 -144c-3 -15 -7 -30 -10 -45c-3 -12 -5 -14 -18 -24c-40 -2 -80 -5 -121 1c-9 5 -15 13 -16 25c-1 16 -6 32 -8 47c-2 12 -2 24 -4 35c-4 25 -6 51 -12 76c-4 18 -5 38 -7 57
c-3 18 -5 36 -8 54s-5 36 -9 55c-6 29 -6 60 -14 89c-3 10 -3 21 -5 32c-3 23 -7 45 -9 68c-2 26 -7 50 -13 75c-2 11 -3 23 -3 34c-1 14 6 24 20 26c13 2 27 2 40 2c15 0 29 -2 44 -3c19 0 31 -11 31 -30c0 -20 2 -39 6 -58c2 -13 3 -26 3 -40c0 -26 6 -51 10 -77
c1 -10 3 -20 3 -31c0 -24 3 -49 6 -73c3 -17 3 -35 5 -53c1 -12 0 -25 10 -37h10c8 7 9 15 11 23c5 29 9 57 13 86c2 9 5 19 7 29c5 28 12 56 13 85c0 14 4 28 7 43c5 35 16 69 19 105c1 15 8 27 26 32h81c25 0 37 -11 40 -36c4 -31 10 -63 16 -94c5 -24 7 -48 11 -72
c2 -15 6 -29 9 -44c3 -13 4 -26 6 -39c2 -8 4 -16 5 -24c3 -17 5 -34 8 -52c2 -10 4 -22 7 -32c2 -6 6 -12 16 -10c7 5 8 15 9 23c2 10 3 19 4 29c2 23 4 46 6 68c3 23 6 45 9 67c1 4 1 7 1 11c-2 26 5 51 7 77c2 15 4 30 6 46c2 19 4 39 6 58c1 8 5 12 16 20
c35 3 70 8 105 0c2 -2 4 -3 5 -5l6 -6c0 -3 1 -6 0 -10l-9 -66c-4 -25 -6 -49 -10 -74c-3 -22 -8 -44 -12 -66c-2 -17 -5 -35 -7 -52c-3 -17 -5 -34 -8 -51c-2 -12 -3 -24 -5 -36c-1 -4 -1 -7 -2 -11c-4 -20 -7 -40 -8 -60c-1 -15 -5 -31 -7 -46c-3 -18 -6 -35 -9 -53
c-4 -27 -8 -55 -12 -82c-2 -8 -3 -17 -4 -25c-2 -10 -4 -19 -10 -26c-12 -9 -25 -9 -38 -7c-22 3 -44 4 -65 0c-5 0 -10 -1 -15 0c-14 0 -24 9 -27 23c-4 21 -8 43 -13 64c-10 49 -21 97 -32 146c-7 33 -15 66 -23 99c-1 7 -4 14 -12 19z" />
    <glyph glyph-name="x" unicode="x" horiz-adv-x="510" 
d="M51 660c2 5 3 9 5 13c9 6 18 8 28 5c3 -1 7 -1 11 -1c16 1 33 2 49 2c9 0 18 -1 26 -4c7 -2 14 -6 18 -15c5 -12 10 -24 14 -37c12 -35 24 -71 36 -107c3 -8 7 -17 18 -17c11 1 15 10 18 19l30 90c3 12 6 24 10 35c8 25 31 42 60 35c5 -1 11 -2 16 -1c17 3 33 1 50 0
c7 -1 12 -3 16 -9c4 -15 -4 -28 -9 -41c-11 -28 -24 -56 -35 -83c-16 -36 -31 -72 -46 -109c-9 -20 -17 -41 -25 -62c-2 -3 -2 -7 -4 -10c-9 -18 -7 -35 1 -52c30 -74 61 -148 91 -221c8 -18 15 -36 22 -55c3 -7 5 -15 7 -22c-1 -8 -3 -10 -10 -11c-30 -1 -61 -2 -91 -2
c-8 0 -15 2 -23 3c-4 6 -10 12 -12 19c-13 33 -25 67 -38 101c-4 12 -7 23 -11 35c-3 7 -8 14 -18 16c-9 -1 -14 -7 -17 -16c-7 -18 -13 -36 -20 -54c-8 -24 -17 -49 -25 -73c-2 -4 -3 -8 -5 -12c-5 -12 -15 -20 -29 -19c-19 0 -38 1 -57 2h-38c-4 3 -7 6 -11 9
c1 5 2 11 4 16c6 18 14 36 21 53c25 59 49 118 74 177c7 17 14 35 21 53c8 17 9 34 2 51c-17 40 -33 80 -49 121c-10 23 -20 47 -30 70c-11 28 -23 55 -34 82c-4 9 -7 18 -11 26z" />
    <glyph glyph-name="y" unicode="y" 
d="M311 13c-4 -4 -9 -9 -15 -14l-45 3c-8 0 -16 -1 -24 -1c-6 0 -12 -1 -18 -1c-12 0 -18 3 -28 17c0 49 -1 99 -1 150c0 14 2 28 2 42c0 35 -7 69 -18 102c-13 39 -24 79 -38 117s-25 76 -38 113c-11 33 -22 64 -33 97c-3 9 -4 18 -5 24c5 15 15 17 23 16c18 -2 34 2 52 2
c8 0 16 -1 24 0c19 0 32 -11 37 -29c3 -11 5 -21 6 -31c6 -31 13 -61 21 -90c6 -23 10 -46 15 -68c1 -6 2 -11 4 -16c2 -7 6 -15 16 -17c10 4 13 12 15 22c7 29 13 59 20 88c8 37 18 72 25 109c4 20 21 33 43 32c25 -1 49 -2 74 -4c5 0 9 -3 13 -4c6 -10 4 -19 1 -28
c-10 -30 -21 -60 -30 -89c-12 -36 -23 -72 -34 -108c-15 -45 -30 -89 -45 -134c-6 -18 -12 -36 -14 -54c-2 -24 -7 -47 -2 -72c3 -12 2 -24 0 -37c-2 -15 -1 -29 0 -44c1 -23 0 -45 -1 -68c0 -7 -1 -15 -2 -25z" />
    <glyph glyph-name="z" unicode="z" horiz-adv-x="458" 
d="M209 127c6 -11 15 -14 27 -16c32 -5 65 -2 98 -2c22 0 43 1 66 -2c14 -7 17 -20 14 -35c-2 -11 -2 -21 1 -32c1 -4 0 -9 0 -14c0 -20 -12 -27 -27 -27c-38 -1 -77 0 -116 0c-6 0 -13 1 -19 1h-27c-27 0 -55 -1 -82 0c-12 0 -24 1 -36 0c-16 -2 -31 -1 -47 1
c-15 1 -19 11 -19 26c0 16 1 31 3 47c0 6 2 12 4 18c6 15 12 30 19 44c14 30 29 59 43 89c6 13 11 27 16 40l51 108c22 47 44 94 66 142c4 8 7 18 10 25c-2 12 -7 19 -19 23c-6 0 -14 -1 -22 0c-15 0 -31 2 -46 2c-12 0 -23 0 -34 -1c-21 -2 -42 -4 -61 2
c-11 9 -16 19 -15 31c1 20 1 39 3 58c2 16 8 19 23 21c20 2 39 4 58 0c8 -1 17 2 26 2h229c4 -3 10 -8 16 -13l3 -48c1 -18 -4 -34 -11 -50c-18 -38 -36 -76 -53 -114c-21 -44 -41 -89 -62 -133c-15 -34 -30 -68 -46 -102c-9 -20 -18 -40 -28 -61c-5 -9 -8 -18 -6 -30z" />
    </font>
</defs>
</svg>
