<svg xmlns="http://www.w3.org/2000/svg" width="257" height="257" viewBox="0 0 257 257">
    <g fill="none" fill-rule="evenodd">
        <g fill="#D2BDB2">
            <g>
                <path d="M253.43 249.861c1.972 0 3.57 1.598 3.57 3.57 0 1.97-1.598 3.569-3.57 3.569-1.97 0-3.569-1.598-3.569-3.57 0-1.97 1.598-3.569 3.57-3.569zm-24.986 0c1.972 0 3.57 1.598 3.57 3.57 0 1.97-1.598 3.569-3.57 3.569-1.97 0-3.569-1.598-3.569-3.57 0-1.97 1.598-3.569 3.57-3.569zm-24.986 0c1.972 0 3.57 1.598 3.57 3.57 0 1.97-1.598 3.569-3.57 3.569-1.971 0-3.57-1.598-3.57-3.57 0-1.97 1.599-3.569 3.57-3.569zm-24.986 0c1.972 0 3.57 1.598 3.57 3.57 0 1.97-1.598 3.569-3.57 3.569-1.971 0-3.57-1.598-3.57-3.57 0-1.97 1.599-3.569 3.57-3.569zm-24.986 0c1.971 0 3.57 1.598 3.57 3.57 0 1.97-1.599 3.569-3.57 3.569-1.971 0-3.57-1.598-3.57-3.57 0-1.97 1.599-3.569 3.57-3.569zm-24.986 0c1.971 0 3.57 1.598 3.57 3.57 0 1.97-1.599 3.569-3.57 3.569-1.971 0-3.57-1.598-3.57-3.57 0-1.97 1.599-3.569 3.57-3.569zm-24.986 0c1.971 0 3.57 1.598 3.57 3.57 0 1.97-1.599 3.569-3.57 3.569-1.971 0-3.57-1.598-3.57-3.57 0-1.97 1.599-3.569 3.57-3.569zm-24.986 0c1.971 0 3.57 1.598 3.57 3.57 0 1.97-1.599 3.569-3.57 3.569-1.972 0-3.57-1.598-3.57-3.57 0-1.97 1.598-3.569 3.57-3.569zm-24.986 0c1.971 0 3.57 1.598 3.57 3.57 0 1.97-1.599 3.569-3.57 3.569-1.972 0-3.57-1.598-3.57-3.57 0-1.97 1.598-3.569 3.57-3.569zm-24.986 0c1.97 0 3.569 1.598 3.569 3.57 0 1.97-1.598 3.569-3.57 3.569-1.97 0-3.569-1.598-3.569-3.57 0-1.97 1.598-3.569 3.57-3.569zm-24.987 0c1.972 0 3.57 1.598 3.57 3.57 0 1.97-1.598 3.569-3.57 3.569C1.6 257 0 255.402 0 253.43c0-1.97 1.598-3.569 3.57-3.569zM128.5 224.875c1.971 0 3.57 1.598 3.57 3.57 0 1.97-1.599 3.569-3.57 3.569-1.971 0-3.57-1.598-3.57-3.57 0-1.97 1.599-3.569 3.57-3.569zm124.93 0c1.972 0 3.57 1.598 3.57 3.57 0 1.97-1.598 3.569-3.57 3.569-1.97 0-3.569-1.598-3.569-3.57 0-1.97 1.598-3.569 3.57-3.569zm-24.986 0c1.972 0 3.57 1.598 3.57 3.57 0 1.97-1.598 3.569-3.57 3.569-1.97 0-3.569-1.598-3.569-3.57 0-1.97 1.598-3.569 3.57-3.569zm-124.93 0c1.971 0 3.57 1.598 3.57 3.57 0 1.97-1.599 3.569-3.57 3.569-1.971 0-3.57-1.598-3.57-3.57 0-1.97 1.599-3.569 3.57-3.569zm-24.986 0c1.971 0 3.57 1.598 3.57 3.57 0 1.97-1.599 3.569-3.57 3.569-1.972 0-3.57-1.598-3.57-3.57 0-1.97 1.598-3.569 3.57-3.569zm99.944 0c1.972 0 3.57 1.598 3.57 3.57 0 1.97-1.598 3.569-3.57 3.569-1.971 0-3.57-1.598-3.57-3.57 0-1.97 1.599-3.569 3.57-3.569zm-124.93 0c1.971 0 3.57 1.598 3.57 3.57 0 1.97-1.599 3.569-3.57 3.569-1.972 0-3.57-1.598-3.57-3.57 0-1.97 1.598-3.569 3.57-3.569zm99.944 0c1.971 0 3.57 1.598 3.57 3.57 0 1.97-1.599 3.569-3.57 3.569-1.971 0-3.57-1.598-3.57-3.57 0-1.97 1.599-3.569 3.57-3.569zm49.972 0c1.972 0 3.57 1.598 3.57 3.57 0 1.97-1.598 3.569-3.57 3.569-1.971 0-3.57-1.598-3.57-3.57 0-1.97 1.599-3.569 3.57-3.569zm-174.902 0c1.97 0 3.569 1.598 3.569 3.57 0 1.97-1.598 3.569-3.57 3.569-1.97 0-3.569-1.598-3.569-3.57 0-1.97 1.598-3.569 3.57-3.569zm-24.987 0c1.972 0 3.57 1.598 3.57 3.57 0 1.97-1.598 3.569-3.57 3.569-1.97 0-3.569-1.598-3.569-3.57 0-1.97 1.598-3.569 3.57-3.569zm149.917-24.986c1.971 0 3.57 1.598 3.57 3.57 0 1.97-1.599 3.569-3.57 3.569-1.971 0-3.57-1.598-3.57-3.57 0-1.971 1.599-3.57 3.57-3.57zm-24.986 0c1.971 0 3.57 1.598 3.57 3.57 0 1.97-1.599 3.569-3.57 3.569-1.971 0-3.57-1.598-3.57-3.57 0-1.971 1.599-3.57 3.57-3.57zm-24.986 0c1.971 0 3.57 1.598 3.57 3.57 0 1.97-1.599 3.569-3.57 3.569-1.971 0-3.57-1.598-3.57-3.57 0-1.971 1.599-3.57 3.57-3.57zm-24.986 0c1.971 0 3.57 1.598 3.57 3.57 0 1.97-1.599 3.569-3.57 3.569-1.972 0-3.57-1.598-3.57-3.57 0-1.971 1.598-3.57 3.57-3.57zm174.903 0c1.97 0 3.569 1.598 3.569 3.57 0 1.97-1.598 3.569-3.57 3.569-1.97 0-3.569-1.598-3.569-3.57 0-1.971 1.598-3.57 3.57-3.57zm-24.987 0c1.972 0 3.57 1.598 3.57 3.57 0 1.97-1.598 3.569-3.57 3.569-1.97 0-3.569-1.598-3.569-3.57 0-1.971 1.598-3.57 3.57-3.57zm-174.902 0c1.971 0 3.57 1.598 3.57 3.57 0 1.97-1.599 3.569-3.57 3.569-1.972 0-3.57-1.598-3.57-3.57 0-1.971 1.598-3.57 3.57-3.57zm149.916 0c1.972 0 3.57 1.598 3.57 3.57 0 1.97-1.598 3.569-3.57 3.569-1.971 0-3.57-1.598-3.57-3.57 0-1.971 1.599-3.57 3.57-3.57zm-24.986 0c1.972 0 3.57 1.598 3.57 3.57 0 1.97-1.598 3.569-3.57 3.569-1.971 0-3.57-1.598-3.57-3.57 0-1.971 1.599-3.57 3.57-3.57zm-149.916 0c1.97 0 3.569 1.598 3.569 3.57 0 1.97-1.598 3.569-3.57 3.569-1.97 0-3.569-1.598-3.569-3.57 0-1.971 1.598-3.57 3.57-3.57zm-24.987 0c1.972 0 3.57 1.598 3.57 3.57 0 1.97-1.598 3.569-3.57 3.569-1.97 0-3.569-1.598-3.569-3.57 0-1.971 1.598-3.57 3.57-3.57zm249.862-24.986c1.97 0 3.569 1.598 3.569 3.57 0 1.97-1.598 3.569-3.57 3.569-1.97 0-3.569-1.598-3.569-3.57 0-1.971 1.598-3.57 3.57-3.57zm-174.903 0c1.971 0 3.57 1.598 3.57 3.57 0 1.97-1.599 3.569-3.57 3.569-1.972 0-3.57-1.598-3.57-3.57 0-1.971 1.598-3.57 3.57-3.57zm149.916 0c1.972 0 3.57 1.598 3.57 3.57 0 1.97-1.598 3.569-3.57 3.569-1.97 0-3.569-1.598-3.569-3.57 0-1.971 1.598-3.57 3.57-3.57zm-24.986 0c1.972 0 3.57 1.598 3.57 3.57 0 1.97-1.598 3.569-3.57 3.569-1.971 0-3.57-1.598-3.57-3.57 0-1.971 1.599-3.57 3.57-3.57zm-149.916 0c1.971 0 3.57 1.598 3.57 3.57 0 1.97-1.599 3.569-3.57 3.569-1.972 0-3.57-1.598-3.57-3.57 0-1.971 1.598-3.57 3.57-3.57zm124.93 0c1.972 0 3.57 1.598 3.57 3.57 0 1.97-1.598 3.569-3.57 3.569-1.971 0-3.57-1.598-3.57-3.57 0-1.971 1.599-3.57 3.57-3.57zm-24.986 0c1.971 0 3.57 1.598 3.57 3.57 0 1.97-1.599 3.569-3.57 3.569-1.971 0-3.57-1.598-3.57-3.57 0-1.971 1.599-3.57 3.57-3.57zm-49.972 0c1.971 0 3.57 1.598 3.57 3.57 0 1.97-1.599 3.569-3.57 3.569-1.971 0-3.57-1.598-3.57-3.57 0-1.971 1.599-3.57 3.57-3.57zm24.986 0c1.971 0 3.57 1.598 3.57 3.57 0 1.97-1.599 3.569-3.57 3.569-1.971 0-3.57-1.598-3.57-3.57 0-1.971 1.599-3.57 3.57-3.57zm-99.944 0c1.97 0 3.569 1.598 3.569 3.57 0 1.97-1.598 3.569-3.57 3.569-1.97 0-3.569-1.598-3.569-3.57 0-1.971 1.598-3.57 3.57-3.57zm-24.987 0c1.972 0 3.57 1.598 3.57 3.57 0 1.97-1.598 3.569-3.57 3.569-1.97 0-3.569-1.598-3.569-3.57 0-1.971 1.598-3.57 3.57-3.57zm249.862-24.986c1.97 0 3.569 1.598 3.569 3.57 0 1.97-1.598 3.569-3.57 3.569-1.97 0-3.569-1.599-3.569-3.57 0-1.971 1.598-3.57 3.57-3.57zm-24.987 0c1.972 0 3.57 1.598 3.57 3.57 0 1.97-1.598 3.569-3.57 3.569-1.97 0-3.569-1.599-3.569-3.57 0-1.971 1.598-3.57 3.57-3.57zm-24.986 0c1.972 0 3.57 1.598 3.57 3.57 0 1.97-1.598 3.569-3.57 3.569-1.971 0-3.57-1.599-3.57-3.57 0-1.971 1.599-3.57 3.57-3.57zm-24.986 0c1.972 0 3.57 1.598 3.57 3.57 0 1.97-1.598 3.569-3.57 3.569-1.971 0-3.57-1.599-3.57-3.57 0-1.971 1.599-3.57 3.57-3.57zm-24.986 0c1.971 0 3.57 1.598 3.57 3.57 0 1.97-1.599 3.569-3.57 3.569-1.971 0-3.57-1.599-3.57-3.57 0-1.971 1.599-3.57 3.57-3.57zm-24.986 0c1.971 0 3.57 1.598 3.57 3.57 0 1.97-1.599 3.569-3.57 3.569-1.971 0-3.57-1.599-3.57-3.57 0-1.971 1.599-3.57 3.57-3.57zm-24.986 0c1.971 0 3.57 1.598 3.57 3.57 0 1.97-1.599 3.569-3.57 3.569-1.971 0-3.57-1.599-3.57-3.57 0-1.971 1.599-3.57 3.57-3.57zm-24.986 0c1.971 0 3.57 1.598 3.57 3.57 0 1.97-1.599 3.569-3.57 3.569-1.972 0-3.57-1.599-3.57-3.57 0-1.971 1.598-3.57 3.57-3.57zm-24.986 0c1.971 0 3.57 1.598 3.57 3.57 0 1.97-1.599 3.569-3.57 3.569-1.972 0-3.57-1.599-3.57-3.57 0-1.971 1.598-3.57 3.57-3.57zm-24.986 0c1.97 0 3.569 1.598 3.569 3.57 0 1.97-1.598 3.569-3.57 3.569-1.97 0-3.569-1.599-3.569-3.57 0-1.971 1.598-3.57 3.57-3.57zm-24.987 0c1.972 0 3.57 1.598 3.57 3.57 0 1.97-1.598 3.569-3.57 3.569-1.97 0-3.569-1.599-3.569-3.57 0-1.971 1.598-3.57 3.57-3.57zm149.917-24.986c1.971 0 3.57 1.598 3.57 3.569 0 1.971-1.599 3.57-3.57 3.57-1.971 0-3.57-1.599-3.57-3.57 0-1.971 1.599-3.57 3.57-3.57zm-124.93 0c1.97 0 3.569 1.598 3.569 3.569 0 1.971-1.598 3.57-3.57 3.57-1.97 0-3.569-1.599-3.569-3.57 0-1.971 1.598-3.57 3.57-3.57zm-24.987 0c1.972 0 3.57 1.598 3.57 3.569 0 1.971-1.598 3.57-3.57 3.57C1.6 132.07 0 130.47 0 128.5c0-1.971 1.598-3.57 3.57-3.57zm224.875 0c1.972 0 3.57 1.598 3.57 3.569 0 1.971-1.598 3.57-3.57 3.57-1.97 0-3.569-1.599-3.569-3.57 0-1.971 1.598-3.57 3.57-3.57zm-49.972 0c1.972 0 3.57 1.598 3.57 3.569 0 1.971-1.598 3.57-3.57 3.57-1.971 0-3.57-1.599-3.57-3.57 0-1.971 1.599-3.57 3.57-3.57zm-99.944 0c1.971 0 3.57 1.598 3.57 3.569 0 1.971-1.599 3.57-3.57 3.57-1.972 0-3.57-1.599-3.57-3.57 0-1.971 1.598-3.57 3.57-3.57zm-24.986 0c1.971 0 3.57 1.598 3.57 3.569 0 1.971-1.599 3.57-3.57 3.57-1.972 0-3.57-1.599-3.57-3.57 0-1.971 1.598-3.57 3.57-3.57zm149.916 0c1.972 0 3.57 1.598 3.57 3.569 0 1.971-1.598 3.57-3.57 3.57-1.971 0-3.57-1.599-3.57-3.57 0-1.971 1.599-3.57 3.57-3.57zm49.973 0c1.97 0 3.569 1.598 3.569 3.569 0 1.971-1.598 3.57-3.57 3.57-1.97 0-3.569-1.599-3.569-3.57 0-1.971 1.598-3.57 3.57-3.57zm-149.917 0c1.971 0 3.57 1.598 3.57 3.569 0 1.971-1.599 3.57-3.57 3.57-1.971 0-3.57-1.599-3.57-3.57 0-1.971 1.599-3.57 3.57-3.57zm24.986 0c1.971 0 3.57 1.598 3.57 3.569 0 1.971-1.599 3.57-3.57 3.57-1.971 0-3.57-1.599-3.57-3.57 0-1.971 1.599-3.57 3.57-3.57zM78.528 99.944c1.971 0 3.57 1.599 3.57 3.57 0 1.971-1.599 3.57-3.57 3.57-1.972 0-3.57-1.599-3.57-3.57 0-1.971 1.598-3.57 3.57-3.57zm-49.972 0c1.97 0 3.569 1.599 3.569 3.57 0 1.971-1.598 3.57-3.57 3.57-1.97 0-3.569-1.599-3.569-3.57 0-1.971 1.598-3.57 3.57-3.57zm-24.987 0c1.972 0 3.57 1.599 3.57 3.57 0 1.971-1.598 3.57-3.57 3.57-1.97 0-3.569-1.599-3.569-3.57 0-1.971 1.598-3.57 3.57-3.57zm249.862 0c1.97 0 3.569 1.599 3.569 3.57 0 1.971-1.598 3.57-3.57 3.57-1.97 0-3.569-1.599-3.569-3.57 0-1.971 1.598-3.57 3.57-3.57zm-124.931 0c1.971 0 3.57 1.599 3.57 3.57 0 1.971-1.599 3.57-3.57 3.57-1.971 0-3.57-1.599-3.57-3.57 0-1.971 1.599-3.57 3.57-3.57zm-24.986 0c1.971 0 3.57 1.599 3.57 3.57 0 1.971-1.599 3.57-3.57 3.57-1.971 0-3.57-1.599-3.57-3.57 0-1.971 1.599-3.57 3.57-3.57zm74.958 0c1.972 0 3.57 1.599 3.57 3.57 0 1.971-1.598 3.57-3.57 3.57-1.971 0-3.57-1.599-3.57-3.57 0-1.971 1.599-3.57 3.57-3.57zm-24.986 0c1.971 0 3.57 1.599 3.57 3.57 0 1.971-1.599 3.57-3.57 3.57-1.971 0-3.57-1.599-3.57-3.57 0-1.971 1.599-3.57 3.57-3.57zm49.972 0c1.972 0 3.57 1.599 3.57 3.57 0 1.971-1.598 3.57-3.57 3.57-1.971 0-3.57-1.599-3.57-3.57 0-1.971 1.599-3.57 3.57-3.57zm24.986 0c1.972 0 3.57 1.599 3.57 3.57 0 1.971-1.598 3.57-3.57 3.57-1.97 0-3.569-1.599-3.569-3.57 0-1.971 1.598-3.57 3.57-3.57zm-174.902 0c1.971 0 3.57 1.599 3.57 3.57 0 1.971-1.599 3.57-3.57 3.57-1.972 0-3.57-1.599-3.57-3.57 0-1.971 1.598-3.57 3.57-3.57zm174.902-24.986c1.972 0 3.57 1.598 3.57 3.57 0 1.971-1.598 3.57-3.57 3.57-1.97 0-3.569-1.599-3.569-3.57 0-1.972 1.598-3.57 3.57-3.57zm-24.986 0c1.972 0 3.57 1.598 3.57 3.57 0 1.971-1.598 3.57-3.57 3.57-1.971 0-3.57-1.599-3.57-3.57 0-1.972 1.599-3.57 3.57-3.57zm-99.944 0c1.971 0 3.57 1.598 3.57 3.57 0 1.971-1.599 3.57-3.57 3.57-1.971 0-3.57-1.599-3.57-3.57 0-1.972 1.599-3.57 3.57-3.57zm24.986 0c1.971 0 3.57 1.598 3.57 3.57 0 1.971-1.599 3.57-3.57 3.57-1.971 0-3.57-1.599-3.57-3.57 0-1.972 1.599-3.57 3.57-3.57zm-49.972 0c1.971 0 3.57 1.598 3.57 3.57 0 1.971-1.599 3.57-3.57 3.57-1.972 0-3.57-1.599-3.57-3.57 0-1.972 1.598-3.57 3.57-3.57zm99.944 0c1.972 0 3.57 1.598 3.57 3.57 0 1.971-1.598 3.57-3.57 3.57-1.971 0-3.57-1.599-3.57-3.57 0-1.972 1.599-3.57 3.57-3.57zm-149.916 0c1.97 0 3.569 1.598 3.569 3.57 0 1.971-1.598 3.57-3.57 3.57-1.97 0-3.569-1.599-3.569-3.57 0-1.972 1.598-3.57 3.57-3.57zm-24.987 0c1.972 0 3.57 1.598 3.57 3.57 0 1.971-1.598 3.57-3.57 3.57C1.6 82.097 0 80.498 0 78.527c0-1.972 1.598-3.57 3.57-3.57zm49.973 0c1.971 0 3.57 1.598 3.57 3.57 0 1.971-1.599 3.57-3.57 3.57-1.972 0-3.57-1.599-3.57-3.57 0-1.972 1.598-3.57 3.57-3.57zm199.889 0c1.97 0 3.569 1.598 3.569 3.57 0 1.971-1.598 3.57-3.57 3.57-1.97 0-3.569-1.599-3.569-3.57 0-1.972 1.598-3.57 3.57-3.57zm-99.945 0c1.971 0 3.57 1.598 3.57 3.57 0 1.971-1.599 3.57-3.57 3.57-1.971 0-3.57-1.599-3.57-3.57 0-1.972 1.599-3.57 3.57-3.57zm49.972-24.986c1.972 0 3.57 1.598 3.57 3.57 0 1.971-1.598 3.57-3.57 3.57-1.971 0-3.57-1.599-3.57-3.57 0-1.972 1.599-3.57 3.57-3.57zm-49.972 0c1.971 0 3.57 1.598 3.57 3.57 0 1.971-1.599 3.57-3.57 3.57-1.971 0-3.57-1.599-3.57-3.57 0-1.972 1.599-3.57 3.57-3.57zm-49.972 0c1.971 0 3.57 1.598 3.57 3.57 0 1.971-1.599 3.57-3.57 3.57-1.971 0-3.57-1.599-3.57-3.57 0-1.972 1.599-3.57 3.57-3.57zm124.93 0c1.972 0 3.57 1.598 3.57 3.57 0 1.971-1.598 3.57-3.57 3.57-1.97 0-3.569-1.599-3.569-3.57 0-1.972 1.598-3.57 3.57-3.57zm24.987 0c1.97 0 3.569 1.598 3.569 3.57 0 1.971-1.598 3.57-3.57 3.57-1.97 0-3.569-1.599-3.569-3.57 0-1.972 1.598-3.57 3.57-3.57zm-124.931 0c1.971 0 3.57 1.598 3.57 3.57 0 1.971-1.599 3.57-3.57 3.57-1.971 0-3.57-1.599-3.57-3.57 0-1.972 1.599-3.57 3.57-3.57zm49.972 0c1.972 0 3.57 1.598 3.57 3.57 0 1.971-1.598 3.57-3.57 3.57-1.971 0-3.57-1.599-3.57-3.57 0-1.972 1.599-3.57 3.57-3.57zm-99.944 0c1.971 0 3.57 1.598 3.57 3.57 0 1.971-1.599 3.57-3.57 3.57-1.972 0-3.57-1.599-3.57-3.57 0-1.972 1.598-3.57 3.57-3.57zm-24.986 0c1.971 0 3.57 1.598 3.57 3.57 0 1.971-1.599 3.57-3.57 3.57-1.972 0-3.57-1.599-3.57-3.57 0-1.972 1.598-3.57 3.57-3.57zm-24.986 0c1.97 0 3.569 1.598 3.569 3.57 0 1.971-1.598 3.57-3.57 3.57-1.97 0-3.569-1.599-3.569-3.57 0-1.972 1.598-3.57 3.57-3.57zm-24.987 0c1.972 0 3.57 1.598 3.57 3.57 0 1.971-1.598 3.57-3.57 3.57C1.6 57.111 0 55.512 0 53.541c0-1.972 1.598-3.57 3.57-3.57zm174.903-24.986c1.972 0 3.57 1.598 3.57 3.57 0 1.97-1.598 3.569-3.57 3.569-1.971 0-3.57-1.598-3.57-3.57 0-1.97 1.599-3.569 3.57-3.569zm-24.986 0c1.971 0 3.57 1.598 3.57 3.57 0 1.97-1.599 3.569-3.57 3.569-1.971 0-3.57-1.598-3.57-3.57 0-1.97 1.599-3.569 3.57-3.569zm-24.986 0c1.971 0 3.57 1.598 3.57 3.57 0 1.97-1.599 3.569-3.57 3.569-1.971 0-3.57-1.598-3.57-3.57 0-1.97 1.599-3.569 3.57-3.569zm-24.986 0c1.971 0 3.57 1.598 3.57 3.57 0 1.97-1.599 3.569-3.57 3.569-1.971 0-3.57-1.598-3.57-3.57 0-1.97 1.599-3.569 3.57-3.569zm149.917 0c1.97 0 3.569 1.598 3.569 3.57 0 1.97-1.598 3.569-3.57 3.569-1.97 0-3.569-1.598-3.569-3.57 0-1.97 1.598-3.569 3.57-3.569zm-24.987 0c1.972 0 3.57 1.598 3.57 3.57 0 1.97-1.598 3.569-3.57 3.569-1.97 0-3.569-1.598-3.569-3.57 0-1.97 1.598-3.569 3.57-3.569zm-24.986 0c1.972 0 3.57 1.598 3.57 3.57 0 1.97-1.598 3.569-3.57 3.569-1.971 0-3.57-1.598-3.57-3.57 0-1.97 1.599-3.569 3.57-3.569zm-124.93 0c1.971 0 3.57 1.598 3.57 3.57 0 1.97-1.599 3.569-3.57 3.569-1.972 0-3.57-1.598-3.57-3.57 0-1.97 1.598-3.569 3.57-3.569zm-24.986 0c1.971 0 3.57 1.598 3.57 3.57 0 1.97-1.599 3.569-3.57 3.569-1.972 0-3.57-1.598-3.57-3.57 0-1.97 1.598-3.569 3.57-3.569zm-24.986 0c1.97 0 3.569 1.598 3.569 3.57 0 1.97-1.598 3.569-3.57 3.569-1.97 0-3.569-1.598-3.569-3.57 0-1.97 1.598-3.569 3.57-3.569zm-24.987 0c1.972 0 3.57 1.598 3.57 3.57 0 1.97-1.598 3.569-3.57 3.569C1.6 32.125 0 30.527 0 28.555c0-1.97 1.598-3.569 3.57-3.569zM178.472 0c1.972 0 3.57 1.598 3.57 3.57 0 1.97-1.598 3.569-3.57 3.569-1.971 0-3.57-1.598-3.57-3.57 0-1.97 1.599-3.569 3.57-3.569zm-24.986 0c1.971 0 3.57 1.598 3.57 3.57 0 1.97-1.599 3.569-3.57 3.569-1.971 0-3.57-1.598-3.57-3.57 0-1.97 1.599-3.569 3.57-3.569zM128.5 0c1.971 0 3.57 1.598 3.57 3.57 0 1.97-1.599 3.569-3.57 3.569-1.971 0-3.57-1.598-3.57-3.57C124.93 1.6 126.53 0 128.5 0zm-24.986 0c1.971 0 3.57 1.598 3.57 3.57 0 1.97-1.599 3.569-3.57 3.569-1.971 0-3.57-1.598-3.57-3.57 0-1.97 1.599-3.569 3.57-3.569zM253.43 0C255.4 0 257 1.598 257 3.57c0 1.97-1.598 3.569-3.57 3.569-1.97 0-3.569-1.598-3.569-3.57 0-1.97 1.598-3.569 3.57-3.569zm-24.987 0c1.972 0 3.57 1.598 3.57 3.57 0 1.97-1.598 3.569-3.57 3.569-1.97 0-3.569-1.598-3.569-3.57 0-1.97 1.598-3.569 3.57-3.569zm-24.986 0c1.972 0 3.57 1.598 3.57 3.57 0 1.97-1.598 3.569-3.57 3.569-1.971 0-3.57-1.598-3.57-3.57 0-1.97 1.599-3.569 3.57-3.569zM78.528 0c1.971 0 3.57 1.598 3.57 3.57 0 1.97-1.599 3.569-3.57 3.569-1.972 0-3.57-1.598-3.57-3.57C74.958 1.6 76.556 0 78.528 0zM53.542 0c1.971 0 3.57 1.598 3.57 3.57 0 1.97-1.599 3.569-3.57 3.569-1.972 0-3.57-1.598-3.57-3.57C49.972 1.6 51.57 0 53.542 0zM28.556 0c1.97 0 3.569 1.598 3.569 3.57 0 1.97-1.598 3.569-3.57 3.569-1.97 0-3.569-1.598-3.569-3.57C24.986 1.6 26.584 0 28.556 0zM3.569 0c1.972 0 3.57 1.598 3.57 3.57 0 1.97-1.598 3.569-3.57 3.569C1.6 7.139 0 5.54 0 3.569 0 1.6 1.598 0 3.57 0z" transform="translate(111 -742) translate(-111 742)"/>
            </g>
        </g>
    </g>
</svg>
